<?xml version="1.0" encoding="UTF-8" standalone="no"?>
<!-- Created with Inkscape (http://www.inkscape.org/) -->

<svg
   xmlns:dc="http://purl.org/dc/elements/1.1/"
   xmlns:cc="http://creativecommons.org/ns#"
   xmlns:rdf="http://www.w3.org/1999/02/22-rdf-syntax-ns#"
   xmlns:svg="http://www.w3.org/2000/svg"
   xmlns="http://www.w3.org/2000/svg"
   xmlns:sodipodi="http://sodipodi.sourceforge.net/DTD/sodipodi-0.dtd"
   xmlns:inkscape="http://www.inkscape.org/namespaces/inkscape"
   width="16.780275mm"
   height="19.57959mm"
   viewBox="0 0 16.780275 19.57959"
   version="1.1"
   id="svg1114"
   inkscape:version="0.92.2 (5c3e80d, 2017-08-06)"
   sodipodi:docname="logo1.svg">
  <defs
     id="defs1108" />
  <sodipodi:namedview
     id="base"
     pagecolor="#ffffff"
     bordercolor="#666666"
     borderopacity="1.0"
     inkscape:pageopacity="0.0"
     inkscape:pageshadow="2"
     inkscape:zoom="196.17688"
     inkscape:cx="31.241484"
     inkscape:cy="28.434049"
     inkscape:document-units="mm"
     inkscape:current-layer="layer1"
     showgrid="false"
     inkscape:window-width="1165"
     inkscape:window-height="1008"
     inkscape:window-x="746"
     inkscape:window-y="0"
     inkscape:window-maximized="0" />
  <metadata
     id="metadata1111">
    <rdf:RDF>
      <cc:Work
         rdf:about="">
        <dc:format>image/svg+xml</dc:format>
        <dc:type
           rdf:resource="http://purl.org/dc/dcmitype/StillImage" />
        <dc:title></dc:title>
      </cc:Work>
    </rdf:RDF>
  </metadata>
  <g
     inkscape:label="Capa 1"
     inkscape:groupmode="layer"
     id="layer1"
     transform="translate(-88.280294,-97.32276)">
    <path
       inkscape:connector-curvature="0"
       style="fill:#b7c72c;fill-opacity:1;fill-rule:evenodd;stroke:none;stroke-width:0.04882585"
       d="m 98.82875,106.63452 v 0 l 0.42315,-0.0651 0.244133,-0.0651 0.27668,-0.0814 0.11393,-0.0163 0.162747,0.0163 0.68355,0.11393 v 0 l 0.21158,0.0651 0.29296,0.1302 0.40688,0.16275 v 0 l 0.1302,-0.0326 0.0976,-0.0488 0.0976,-0.0651 0.0651,-0.0814 0.0488,-0.0976 0.0488,-0.0976 0.0326,-0.11393 0.0163,-0.1302 0.0163,-0.26041 v -0.2604 l -0.0163,-0.47199 v 0 h 0.16276 l 0.16275,-0.0326 0.16275,-0.0325 0.16275,-0.0326 0.16276,-0.0651 0.14647,-0.0651 0.14648,-0.0814 0.14648,-0.0814 0.1302,-0.11393 0.1302,-0.11393 0.0976,-0.1302 0.0976,-0.1302 0.0814,-0.14648 0.0488,-0.16275 0.0325,-0.16275 0.0163,-0.19531 v 0 -0.11393 l -0.0163,-0.0976 -0.0651,-0.17903 -0.0814,-0.17902 -0.0976,-0.19531 -0.0814,-0.22785 -0.0488,-0.14648 -0.0326,-0.14648 -0.0163,-0.17902 -0.0163,-0.21158 -0.0163,-0.24413 0.0163,-0.26041 v 0 l -0.0163,-0.1302 -0.0326,-0.14647 -0.0488,-0.16276 -0.0814,-0.17903 -0.11392,-0.16275 -0.11393,-0.14648 -0.16275,-0.11392 -0.0814,-0.0651 -0.0976,-0.0326 v 0 l -0.16276,-0.0325 -0.11392,-0.0326 -0.1302,-0.0488 -0.0488,-0.0326 -0.0488,-0.0488 -0.0488,-0.0651 -0.0326,-0.0814 -0.0163,-0.0814 v -0.0976 l 0.0163,-0.13021 0.0326,-0.1302 v 0 l 0.0488,-0.11393 0.0651,-0.11392 0.0651,-0.0977 0.0814,-0.11393 0.0488,-0.1302 0.0325,-0.14648 0.0163,-0.0814 -0.0163,-0.0814 -0.0163,-0.0977 -0.0326,-0.11392 v 0 l -0.16276,-0.0325 -0.1302,-0.0163 -0.11393,-0.0163 -0.0814,0.0163 -0.14647,0.0326 -0.13021,0.0488 -0.16275,0.0488 h -0.0976 l -0.11392,0.0163 -0.16275,-0.0163 -0.17903,-0.0325 -0.22785,-0.0326 -0.27668,-0.0651 v 0 l -0.29296,-0.0976 -0.21158,-0.0651 -0.146457,-0.0814 -0.0976,-0.0651 -0.0651,-0.0488 -0.0488,-0.0488 -0.0488,-0.0488 -0.0326,-0.0163 v 0 l -0.13021,-0.0326 -0.146483,-0.0163 h -0.1302 l -0.14647,0.0325 -0.14648,0.0326 -0.1302,0.0488 -0.13021,0.0814 -0.1302,0.0651 -0.11393,0.0976 -0.11392,0.0814 -0.11393,0.0977 -0.0814,0.0976 -0.0814,0.11393 -0.0488,0.0976 -0.0488,0.0977 -0.0326,0.0976 v 0 l -0.0976,-0.0976 -0.0488,-0.0814 -0.0488,-0.0651 -0.0163,-0.0488 -0.0163,-0.0814 -0.0163,-0.0488 h -0.0163 l -0.0326,-0.0163 -0.11392,-0.0163 h -0.63474 v 0 l -0.0651,-0.0163 -0.0651,-0.0163 -0.11393,-0.0651 -0.11392,-0.0976 -0.11393,-0.11393 -0.21158,-0.2604 -0.0976,-0.14648 -0.1302,-0.1302 -0.13021,-0.11393 -0.14647,-0.0976 -0.0977,-0.0326 -0.0814,-0.0325 -0.0976,-0.0163 -0.0977,-0.0163 h -0.11392 l -0.11393,0.0163 -0.11393,0.0325 -0.1302,0.0326 -0.14648,0.0651 -0.14647,0.0651 -0.14648,0.0976 -0.17903,0.0976 v 0 l -0.22785,0.14648 -0.24413,0.1302 -0.24413,0.16275 -0.11393,0.0814 -0.0814,0.0814 -0.0651,0.0977 -0.0488,0.0976 -0.0163,0.11393 0.0163,0.11392 0.0651,0.13021 0.11393,0.14647 0.14647,0.14648 0.19531,0.16275 v 0 l 0.0325,0.0488 0.0326,0.0488 0.0488,0.14647 v 0.17903 l -0.0163,0.0814 -0.0163,0.0814 -0.0488,0.0651 -0.0488,0.0488 -0.0651,0.0163 h -0.0814 l -0.0977,-0.0163 -0.11392,-0.0651 -0.14648,-0.113932 -0.14648,-0.130206 v 0 l -0.0976,-0.0814 -0.0814,-0.0651 -0.11393,-0.0651 -0.0976,-0.0326 -0.22785,-0.0651 -0.21158,-0.0325 v 0 l -0.2604,0.24413 -0.21158,0.16275 -0.13021,0.130206 v 0 l -0.14647,0.146482 -0.13021,0.11393 -0.1302,0.0814 -0.11392,0.0651 -0.13021,0.0326 -0.1302,0.0325 -0.2604,0.0326 -0.14648,0.0325 -0.14648,0.0488 -0.16275,0.0814 -0.17903,0.0977 -0.179033,0.1302 -0.21158,0.17903 -0.21157,0.22786 -0.24413,0.27668 v 0 l -0.14648,0.14647 -0.16275,0.11393 v 0 l -0.0814,0.0814 -0.14648,0.1302 -0.24413,0.1953 v 0 l 0.22786,-0.0488 0.22785,-0.0488 0.1953,-0.0163 h 0.0977 l 0.0814,0.0163 0.0814,0.0163 0.0651,0.0488 0.0488,0.0488 0.0488,0.0651 0.0325,0.0814 0.0326,0.0976 0.0163,0.1302 -0.0163,0.1302 v 0 l -0.0163,0.0651 -0.0488,0.0814 -0.0814,0.0814 -0.0814,0.11392 -0.0814,0.14648 -0.0651,0.1953 -0.0163,0.11393 -0.0163,0.11393 -0.0163,0.1302 v 0.16275 0 l -0.0163,0.0325 -0.0325,0.0651 -0.0977,0.11393 -0.11393,0.11393 -0.0488,0.0651 -0.0326,0.0488 v 0 l -0.0977,0.0976 -0.0488,0.0977 -0.0326,0.0976 0.0163,0.0977 0.0488,0.0977 0.0651,0.0976 0.0814,0.11392 0.0976,0.0977 0.22785,0.21157 0.24413,0.21158 0.22785,0.24413 0.0977,0.11393 0.0814,0.1302 v 0 l 0.0163,0.0163 0.0488,0.0163 0.14648,0.0326 0.423163,0.0163 0.27668,0.0163 0.2604,0.0326 0.27668,0.0488 0.1302,0.0326 0.11393,0.0325 v 0 l 0.26041,0.0651 0.21158,0.0488 0.21157,0.0163 0.19531,0.0163 0.1953,-0.0163 0.0651,-0.0163 0.0651,-0.0163 0.0488,-0.0326 0.0326,-0.0488 0.0651,-0.0488 v 0 l 0.16275,-0.0814 0.14648,-0.11393 0.29295,-0.1953 0.27669,-0.19531 0.11392,-0.0814 0.1302,-0.0814 0.13021,-0.0488 0.1302,-0.0325 0.11393,-0.0163 0.1302,0.0163 0.1302,0.0488 0.1302,0.0651 0.1302,0.11393 0.13021,0.14648 v 0 l 0.1953,0.21158 0.17903,0.14647 0.16275,0.0977 0.16275,0.0488 0.14648,0.0163 h 0.1302 l 0.13021,-0.0488 0.11392,-0.0488 0.22786,-0.11392 0.11392,-0.0488 0.0977,-0.0488 0.0977,-0.0163 h 0.0976 l 0.11393,0.0488 0.0976,0.0814 v 0 l 0.0977,-0.0163 0.22786,-0.0488 0.29295,-0.0488 h 0.1302 0.1302 v 0 l 0.0651,0.0163 0.0814,0.0488 0.0651,0.0651 0.0651,0.0814 0.11393,0.17903 0.11393,0.19531 0.11393,0.16275 0.0651,0.0488 0.0651,0.0326 h 0.0488 l 0.0814,-0.0163 0.0651,-0.0651 0.0651,-0.0976 v 0 l -0.0163,-0.0488 v -0.0163 z"
       id="path1260" />
    <path
       inkscape:connector-curvature="0"
       style="fill:#009045;fill-opacity:1;fill-rule:evenodd;stroke:none;stroke-width:0.04882585"
       d="m 97.26632,101.65428 v 0 l -0.0976,0.0977 -0.0814,0.13021 -0.0814,0.14647 -0.0651,0.13021 v 0 l -0.1302,0.0163 h -0.14648 -0.29295 -0.30923 l -0.30923,0.0163 h -0.16276 l -0.16275,0.0326 -0.14648,0.0488 -0.16275,0.0488 -0.16275,0.0814 -0.14648,0.0977 -0.14648,0.11392 -0.14648,0.14648 v 0 l -0.29295,0.32551 -0.11393,0.1302 -0.0326,0.0651 -0.0163,0.0488 v 0.0488 l 0.0326,0.0326 0.0488,0.0163 0.0651,0.0326 0.11392,0.0163 h 0.1302 l 0.35806,-0.0163 v 0 l 0.32551,-0.16276 0.24413,-0.11392 0.24412,-0.0977 0.13021,-0.0325 0.11392,-0.0163 0.0977,-0.0163 0.0976,0.0163 0.0814,0.0326 0.0488,0.0651 0.0326,0.0976 v 0.11393 0 l -0.0163,0.0651 -0.0488,0.0651 -0.11393,0.11393 -0.0651,0.0651 -0.0488,0.0814 -0.0488,0.0976 -0.0163,0.1302 v 0 l 0.26041,-0.0163 0.16275,-0.0163 0.1302,-0.0488 0.0814,-0.0651 0.21158,-0.19531 0.16275,-0.14648 0.24413,-0.16275 v 0 l 0.14648,-0.11392 0.11393,-0.0814 0.1953,-0.0814 0.0651,-0.0651 0.0651,-0.0976 0.0488,-0.14648 0.0326,-0.22785 v 0 l 0.0325,-0.0814 0.0163,-0.0488 0.0488,-0.0488 0.0488,-0.0488 0.0976,-0.0488 0.0814,-0.0651 0.0326,-0.0326 0.0326,-0.0326 v -0.0651 -0.0488 l -0.0326,-0.0814 -0.0488,-0.0977 -0.0814,-0.11393 -0.0976,-0.14647 v 0 l -0.0814,-0.11393 -0.0163,-0.0488 v -0.0488 l 0.0163,-0.0325 0.0163,-0.0326 0.0814,-0.0488 0.0977,-0.0326 0.14648,-0.0163 0.32551,-0.0163 0.37433,-0.0163 h 0.17903 l 0.16275,-0.0163 0.14648,-0.0325 0.113933,-0.0488 0.0488,-0.0325 0.0326,-0.0326 0.0326,-0.0325 0.0163,-0.0488 v 0 l -0.0814,-0.0488 -0.0976,-0.0163 -0.11393,-0.0163 h -0.1302 l -0.30923,0.0163 -0.32551,0.0326 -0.3255,0.0163 h -0.16275 l -0.14648,-0.0326 -0.14648,-0.0325 -0.11393,-0.0488 -0.11392,-0.0814 -0.0814,-0.0977 v 0 l -0.0488,-0.0651 -0.0651,-0.0326 -0.0488,-0.0163 -0.0651,0.0163 -0.0651,0.0326 -0.0651,0.0488 -0.14647,0.11393 -0.17903,0.11392 -0.0814,0.0488 -0.0976,0.0326 -0.0976,0.0163 h -0.11393 l -0.11392,-0.0325 -0.13021,-0.0651 v 0 l -0.0488,-0.0163 h -0.0488 -0.0976 -0.0976 l -0.0326,-0.0163 -0.0326,-0.0163 v 0 h -0.0488 l -0.0488,0.0163 -0.0814,0.0488 -0.0651,0.0814 -0.0651,0.0814 -0.0814,0.0814 -0.0976,0.0651 -0.0651,0.0326 -0.0814,0.0325 h -0.0976 l -0.0976,0.0163 v 0 l -0.0163,-0.0326 -0.0163,-0.0651 0.0163,-0.16275 0.0488,-0.1953 0.0488,-0.0977 0.0326,-0.0814 0.0651,-0.0814 0.0651,-0.0814 0.0651,-0.0488 0.0651,-0.0325 h 0.0976 l 0.0814,0.0325 0.0976,0.0488 0.11393,0.0976 v 0 l 0.0325,0.0326 h 0.0163 0.0163 v 0 l 0.0163,-0.0488 v -0.0651 l -0.0163,-0.11393 -0.0163,-0.0977 v -0.0814 0 l 0.0814,-0.0163 0.0651,0.0163 0.0488,0.0163 0.0488,0.0326 0.0326,0.0488 0.0326,0.0488 0.0325,0.11393 0.0488,0.13019 0.0488,0.11393 0.0326,0.0326 0.0488,0.0488 0.0488,0.0163 h 0.0814 v 0 l 0.0326,-0.0977 0.0326,-0.0976 v -0.0651 -0.0488 l -0.0163,-0.0488 -0.0163,-0.0326 0.0163,-0.0163 0.0814,-0.0326 0.48826,-0.26041 v 0 l 0.0651,-0.0488 0.0488,-0.0814 0.0163,-0.0814 0.0163,-0.0977 -0.0163,-0.21157 -0.0163,-0.19531 -0.0163,-0.0814 0.0163,-0.0651 0.0163,-0.0326 0.0326,-0.0163 h 0.0651 l 0.0977,0.0488 0.11393,0.0814 0.16275,0.11393 v 0 l 0.0325,0.0651 0.0163,0.1302 0.0163,0.16275 0.0326,0.16276 0.0326,0.146462 0.0325,0.0326 0.0326,0.0325 h 0.0488 l 0.0488,-0.0325 0.0651,-0.0651 0.0651,-0.0976 v 0 l 0.0325,-0.130196 0.0488,-0.11393 0.0651,-0.11392 0.0651,-0.0814 0.0814,-0.0651 0.0977,-0.0488 0.0814,-0.0488 0.0976,-0.0326 0.11393,-0.0163 h 0.0976 l 0.21158,0.0163 0.21158,0.0488 0.1953,0.0814 0.162753,0.0814 0.14648,0.11393 0.0976,0.11393 0.0163,0.0488 0.0163,0.0488 v 0.0488 l -0.0163,0.0488 -0.0326,0.0325 -0.0651,0.0488 -0.0651,0.0163 -0.0976,0.0326 -0.1302,0.0163 h -0.146483 v 0 l -0.30924,-0.0163 -0.27668,-0.0326 -0.22785,-0.0325 v 0 l -0.1302,0.0488 v 0 l 0.0163,0.0814 0.0163,0.0814 0.0488,0.0488 0.0488,0.0651 0.0651,0.0326 0.0651,0.0325 0.0814,0.0326 h 0.0814 0.1953 l 0.19531,-0.0326 0.1953,-0.0488 0.195303,-0.0814 v 0 l 0.14648,-0.0651 0.11393,-0.0325 0.11392,-0.0163 0.0976,0.0163 0.0814,0.0163 0.0651,0.0488 0.0651,0.0488 0.0488,0.0651 0.0651,0.13021 0.0488,0.1302 0.0326,0.14648 v 0 l 0.0163,-0.0977 0.0163,-0.0814 -0.0163,-0.16276 -0.0326,-0.1302 -0.0651,-0.1302 -0.14647,-0.276651 -0.0814,-0.16275 -0.0651,-0.19531 v 0 l 0.0488,-0.0163 h 0.0488 l 0.0976,0.0163 0.0976,0.0488 0.0814,0.0814 0.0814,0.0977 0.0814,0.11392 0.1302,0.244101 0.1302,0.21158 0.0488,0.0814 0.0651,0.0651 0.0488,0.0326 h 0.0326 0.0163 l 0.0488,-0.0488 0.0488,-0.11392 v 0 -0.14648 -0.146452 l -0.0325,-0.260399 v 0 l 0.17904,-0.11393 0.35805,-0.24413 0.16275,-0.1302 0.0976,-0.11393 0.0326,-0.0488 v -0.0326 l -0.0326,-0.0163 h -0.0651 v 0 l -0.0651,0.0163 -0.0488,0.0326 -0.0976,0.0651 -0.0651,0.0488 -0.11394,0.0326 -0.16275,0.0163 h -0.22786 v 0 l -0.0977,-0.1302 -0.16275,-0.21158 -0.1302,-0.22785 -0.0651,-0.13021 v 0 h -0.22785 l -0.13021,0.0163 -0.0814,0.0326 -0.0326,0.0488 -0.0163,0.0977 -0.0488,0.0651 -0.0814,0.0651 v 0 l -0.0488,-0.0488 -0.0488,-0.0814 -0.1302,-0.21158 -0.0651,-0.0977 -0.0325,-0.0325 -0.0326,-0.0163 h -0.0488 -0.0326 l -0.0325,0.0326 -0.0326,0.0488 v 0 l -0.0976,0.0163 -0.11393,0.0325 -0.21158,0.11393 -0.42315,0.26041 -0.22786,0.0976 -0.0976,0.0488 -0.11392,0.0163 h -0.11391 l -0.0976,-0.0163 -0.11393,-0.0325 -0.11393,-0.0814 v 0 l -0.11392,-0.0651 -0.11393,-0.0488 -0.0976,-0.0163 -0.0814,0.0163 -0.0651,0.0325 -0.0814,0.0326 -0.1302,0.0976 -0.0651,0.0326 -0.0651,0.0325 -0.0651,0.0163 -0.0977,-0.0163 -0.0814,-0.0325 -0.11393,-0.0651 -0.11392,-0.11393 -0.13021,-0.16275 v 0 l -0.34178,0.0814 -0.3255,0.0651 -0.37434,0.0651 -0.34178,0.0488 h -0.1302 l -0.1302,-0.0163 -0.0814,-0.0163 -0.0163,-0.0326 -0.0163,-0.0163 v -0.0325 l 0.0163,-0.0326 0.0651,-0.0976 v 0 l 0.0326,-0.0163 h 0.0651 l 0.16275,-0.0163 0.16276,0.0163 0.11392,0.0325 v 0 l 0.0651,0.0325 0.0651,0.0163 h 0.0488 l 0.0488,-0.0163 0.0976,-0.0325 0.0977,-0.0814 0.17903,-0.17902 0.0977,-0.0977 0.11393,-0.0977 v 0 l -0.17903,-0.0325 -0.24413,-0.0326 -0.30923,-0.0163 -0.32551,0.0163 -0.3255,0.0326 -0.32551,0.0488 -0.14647,0.0488 -0.13021,0.0488 -0.11392,0.0488 -0.0977,0.0651 v 0 l -0.0488,0.0325 -0.0163,0.0488 -0.0163,0.0325 v 0.0488 l 0.0163,0.11393 0.0488,0.11392 0.0651,0.11393 0.0814,0.1302 0.17903,0.27668 0.0976,0.14648 0.0651,0.1302 0.0488,0.13021 0.0163,0.130199 v 0.0488 l -0.0163,0.0651 -0.0326,0.0488 -0.0326,0.0488 -0.0488,0.0488 -0.0651,0.0488 -0.0814,0.0488 -0.0977,0.0325 v 0 l -0.14648,0.0325 -0.11393,0.0326 -0.16275,0.0163 h -0.11393 -0.0814 l -0.0326,0.0163 -0.0326,0.0163 -0.0977,0.11393 -0.35805,0.5208 v 0 l -0.0488,0.0488 -0.0326,0.0326 h -0.0326 -0.0325 l -0.0488,-0.0814 -0.0814,-0.0977 -0.0814,-0.1302 -0.0651,-0.0651 -0.0651,-0.0488 -0.0814,-0.0488 -0.0977,-0.0488 -0.0976,-0.0163 -0.1302,-0.0163 v 0 l 0.0163,0.0325 0.0163,0.0488 0.0814,0.11393 0.0976,0.1302 0.0814,0.14648 0.0326,0.0814 v 0.0814 0.0651 l -0.0488,0.0651 -0.0651,0.0651 -0.0976,0.0488 -0.1302,0.0488 -0.17903,0.0326 v 0 l -0.0326,0.0163 v 0.0325 0.11393 0 l 0.1302,-0.0163 h 0.11393 l 0.16275,0.0325 0.19531,0.0651 h 0.0326 0.0488 l 0.13021,-0.0325 0.1953,-0.11392 0.29295,-0.19531 v 0 l 0.16276,-0.0976 0.16275,-0.0651 0.1302,-0.0326 h 0.1302 l 0.13021,0.0163 0.1302,0.0163 0.22785,0.0814 0.22786,0.0814 0.1302,0.0326 0.1302,0.0163 h 0.1302 l 0.14648,-0.0326 0.14648,-0.0488 0.17903,-0.0977 v 0 l 0.0651,-0.0325 0.0814,-0.0163 0.0977,-0.0163 h 0.0814 l 0.21158,0.0163 0.22786,0.0488 0.50453,0.1302 0.27668,0.0488 0.29295,0.0488 v 0 l 0.0488,0.0163 0.0651,0.0325 0.0325,0.0488 z"
       id="path1264" />
    <path
       inkscape:connector-curvature="0"
       style="fill:#b7c72c;fill-opacity:1;fill-rule:evenodd;stroke:none;stroke-width:0.04882585"
       d="m 95.73644,111.22415 v 0 l -0.16275,0.0325 -0.17903,0.0326 -0.40688,0.0163 -0.22786,0.0163 -0.27668,0.0326 -0.30923,0.0651 -0.35805,0.0976 v 0 l 0.0163,0.0814 v 0.0814 0 l -0.0163,0.1302 -0.0326,0.11393 -0.0488,0.11393 -0.0814,0.0814 -0.0976,0.0814 -0.11392,0.0651 -0.11393,0.0326 -0.1302,0.0163 v 0 l -0.13021,-0.0163 -0.1302,-0.0488 -0.11393,-0.0651 -0.0976,-0.0814 v 0 l 0.0326,0.0651 0.0488,0.0814 0.14648,0.1953 h 0.3255 v 0 l 0.17903,0.0163 0.0976,0.0163 0.0651,0.0488 0.63474,0.61846 v 0 0 0 l 0.73239,0.0488 0.73238,0.0163 h 0.34179 l 0.29295,-0.0163 0.22786,-0.0326 0.14647,-0.0325 v 0 l 0.0976,-0.0326 0.11393,-0.0325 0.21158,-0.0326 h 0.24413 l 0.22785,0.0326 0.22786,0.0488 0.21158,0.0651 0.21157,0.0814 0.16276,0.0976 v 0 l 0.1302,0.0163 h 0.11393 l 0.1953,-0.0163 0.0976,-0.0163 0.11393,0.0163 0.14648,0.0325 0.17902,0.0651 0.0163,0.0163 v 0 l -0.0163,-0.0651 0.0163,-0.0651 0.0163,-0.0651 0.0488,-0.0488 0.61846,-0.63474 v 0 l 0.0814,-0.0326 0.0814,-0.0163 0.17902,-0.0163 h 0.37433 v 0 l 0.0976,0.0163 0.0651,0.0488 0.0488,0.0651 0.0163,0.0814 v 0.50454 0 h 0.11393 v 0 h 0.0651 l 0.0651,0.0163 0.0977,0.0325 0.0651,0.0488 0.0651,0.0325 h 0.0488 0.0488 l 0.14648,-0.0488 0.21158,-0.1302 0.30923,-0.19531 v 0 l 0.11393,-0.0814 0.11392,-0.0651 0.27668,-0.0977 0.27668,-0.0976 0.1302,-0.0488 0.0976,-0.0651 0.0976,-0.0488 0.0651,-0.0651 0.0488,-0.0814 v -0.0976 l -0.0163,-0.0976 -0.0814,-0.11393 -0.11392,-0.14647 -0.16276,-0.16276 v 0 l -0.76493,-0.14647 -0.60219,-0.13021 -0.27668,-0.0651 -0.1953,-0.0651 v 0 l 0.0163,-0.0488 -0.0163,-0.0326 -0.0325,-0.0488 -0.0651,-0.0326 -0.17903,-0.0488 -0.24413,-0.0325 -0.27668,-0.0163 -0.32551,-0.0163 -0.63473,0.0163 0.0163,0.78122 v 0 l -0.0163,0.0814 -0.0326,0.0814 -0.0814,0.0488 -0.0814,0.0163 v 0 0 h -0.0976 l -0.0651,-0.0488 -0.0651,-0.0814 -0.0163,-0.0814 -0.0325,-0.78122 v 0 h -0.14648 l -0.50453,0.68357 v 0 l -0.0814,0.0651 -0.0814,0.0163 h -0.0814 l -0.0814,-0.0325 v 0 0 l -0.0651,-0.0651 -0.0326,-0.0814 0.0163,-0.0977 0.0326,-0.0814 0.27668,-0.37434 v 0 l -0.19531,0.0325 -0.11392,0.0488 -0.0977,0.0488 v 0 h -0.39061 l -0.73239,-0.0163 -0.69983,-0.0163 z m 4.133923,2.26226 v 0 l 0.179027,-0.0488 0.19529,-0.0651 v -0.24412 z"
       id="path1268" />
    <path
       inkscape:connector-curvature="0"
       style="fill:#009045;fill-opacity:1;fill-rule:evenodd;stroke:none;stroke-width:0.04882585"
       d="m 100.58647,102.40295 v 0 l -0.0651,-0.0488 -0.0488,-0.0814 -0.0325,-0.0814 -0.0326,-0.0814 -0.0326,-0.1302 -0.0163,-0.0651 -0.0163,-0.0163 v 0 l -0.19531,0.0163 h -0.14647 l -0.113927,-0.0163 -0.0977,-0.0163 -0.0651,-0.0326 -0.0326,-0.0325 -0.0326,-0.0488 -0.0325,-0.0326 -0.0163,-0.0651 -0.0326,-0.0325 -0.0326,-0.0163 h -0.0325 -0.0651 l -0.21158,0.0651 v 0 l -0.14648,0.0651 -0.0488,0.0325 -0.0488,0.0488 -0.0326,0.0325 -0.0163,0.0488 -0.0163,0.0976 0.0163,0.0977 0.0488,0.0977 0.0977,0.21157 0.0976,0.17903 0.0163,0.0814 v 0.0814 l -0.0163,0.0326 -0.0163,0.0325 -0.0651,0.0488 -0.1302,0.0326 -0.17903,0.0163 v 0 h -0.0326 l -0.0325,0.0325 -0.0163,0.0163 v 0.0326 0.0325 l 0.0326,0.0163 0.0326,0.0163 0.0488,0.0163 v 0 l 0.14648,-0.0163 0.1302,-0.0326 0.11393,-0.0488 0.0976,-0.0488 0.211583,-0.11393 0.1953,-0.11392 0.0976,-0.0326 0.0977,-0.0325 h 0.0976 l 0.11393,0.0163 0.11393,0.0325 0.14647,0.0814 0.13021,0.0976 0.16275,0.14648 v 0 l 0.14648,0.11392 0.0814,0.0976 0.0488,0.0651 0.0488,0.0326 0.0325,0.0163 0.0488,-0.0163 0.11392,-0.0326 0.52081,-0.24413 0.0814,-0.0163 v 0 l 0.16275,-0.0325 0.14648,-0.0163 h 0.1302 0.11393 l 0.0976,0.0163 0.0814,0.0325 0.1302,0.0651 0.11393,0.0651 0.11393,0.0651 0.0651,0.0163 h 0.0814 0.0814 l 0.0976,-0.0163 v 0 l -0.0163,-0.11393 -0.0651,-0.14648 -0.0814,-0.16275 -0.0651,-0.0814 -0.0651,-0.0651 -0.0651,-0.0651 -0.0976,-0.0488 -0.0814,-0.0488 -0.0976,-0.0326 -0.11393,-0.0163 -0.11393,0.0163 -0.11392,0.0163 -0.13021,0.0488 v 0 l -0.16275,0.0651 -0.16275,0.0488 -0.16275,0.0163 h -0.16279 -0.16276 l -0.16275,-0.0326 -0.16275,-0.0325 -0.16276,-0.0488 v 0 l -0.0163,-0.0325 -0.0163,-0.0163 -0.0651,-0.0326 -0.0651,-0.0325 z"
       id="path1274" />
    <path
       inkscape:connector-curvature="0"
       style="fill:#009045;fill-opacity:1;fill-rule:evenodd;stroke:none;stroke-width:0.04882585"
       d="m 91.48859,102.61452 0.22786,-0.0325 v 0 h -0.17903 l -0.14648,0.0163 -0.1302,0.0163 -0.0814,0.0326 -0.11392,0.0651 -0.0651,0.0488 -0.0488,0.0326 -0.0326,-0.0163 h -0.0326 l -0.0977,-0.0814 -0.1953,-0.14648 v 0 l -0.0326,-0.0163 -0.0488,-0.0163 h -0.0814 l -0.0814,0.0488 -0.0976,0.0488 -0.14648,0.11393 -0.0814,0.0651 v 0 l -0.0814,-0.0488 -0.0488,-0.0488 -0.0326,-0.0488 -0.0163,-0.0488 0.0163,-0.0651 0.0326,-0.0488 0.0488,-0.0488 0.0651,-0.0488 0.17903,-0.0814 0.21158,-0.0814 0.24413,-0.0488 0.24413,-0.0163 v 0 l 0.16275,0.0163 0.17903,0.0488 0.17903,0.0814 0.14647,0.0814 0.11393,0.0814 0.0163,0.0488 0.0163,0.0325 -0.0163,0.0326 -0.0326,0.0163 -0.0651,0.0163 z"
       id="path1278" />
    <path
       inkscape:connector-curvature="0"
       style="fill:#009045;fill-opacity:1;fill-rule:evenodd;stroke:none;stroke-width:0.04882585"
       d="m 91.27701,101.10092 v 0 l -0.0976,0.0326 -0.0976,0.0163 -0.14648,0.0163 -0.2604,-0.0163 -0.14648,0.0163 -0.0814,0.0163 -0.0976,0.0326 -0.0976,0.0488 -0.11393,0.0814 -0.309233,0.1953 v 0 l -0.0488,0.0326 -0.0488,0.0325 h -0.0488 l -0.0326,-0.0163 -0.0326,-0.0163 -0.0326,-0.0325 -0.0488,-0.0651 -0.0163,-0.0977 -0.0163,-0.0814 -0.0163,-0.0976 v 0 l -0.14648,-0.0488 -0.0814,-0.0651 -0.0163,-0.0326 -0.0163,-0.0325 v -0.0326 l 0.0163,-0.0326 0.0651,-0.0651 0.11393,-0.0814 0.29296,-0.19531 v 0 l 0.14647,-0.0976 0.0651,-0.0163 h 0.0326 l 0.0326,0.0163 0.0326,0.0163 0.0488,0.0488 0.0488,0.0488 0.0488,0.0163 0.0488,0.0163 h 0.0651 0.0814 l 0.11393,-0.0326 0.1302,-0.0325 v 0 l 0.1302,-0.0326 0.1953,0.0163 0.0977,0.0163 0.0977,0.0163 0.0651,0.0326 0.0163,0.0488 v 0 l 0.0651,0.0163 0.0651,0.0326 0.0326,0.0488 0.0326,0.0651 v 0.0651 l -0.0163,0.0651 -0.0488,0.0651 z"
       id="path1282" />
    <path
       inkscape:connector-curvature="0"
       style="fill:#009045;fill-opacity:1;fill-rule:evenodd;stroke:none;stroke-width:0.04882585"
       d="m 92.44883,100.38481 0.27668,0.27668 v 0 l -0.17902,-0.1302 -0.14648,-0.0977 -0.1302,-0.0814 -0.11393,-0.0488 -0.0976,-0.0326 -0.0814,-0.0163 -0.0651,-0.0163 -0.0651,0.0163 -0.0976,0.0163 -0.0977,0.0326 h -0.0651 l -0.0488,-0.0163 -0.0326,-0.0163 v 0 l -0.0488,-0.0488 -0.0326,-0.0488 -0.0163,-0.0488 v -0.0488 l 0.0163,-0.0488 0.0163,-0.0488 0.0977,-0.0977 0.1302,-0.11393 0.14648,-0.0814 0.17902,-0.0814 0.19531,-0.0651 0.1953,-0.0488 0.1953,-0.0163 h 0.17903 l 0.0814,0.0163 0.0814,0.0325 0.0651,0.0326 0.0651,0.0325 0.0488,0.0651 0.0488,0.0488 0.0163,0.0814 0.0326,0.0814 v 0.113933 l -0.0163,0.0976 v 0 l -0.0163,0.0488 -0.0163,0.0488 -0.0488,0.0325 -0.0488,0.0325 -0.11393,0.0488 -0.1302,0.0326 -0.24413,0.0488 h -0.0814 z"
       id="path1286" />
    <path
       inkscape:connector-curvature="0"
       style="fill:#009045;fill-opacity:1;fill-rule:evenodd;stroke:none;stroke-width:0.04882585"
       d="m 92.67669,104.0793 0.0163,0.0325 v 0 l -0.11392,0.16275 -0.0977,0.11393 -0.0976,0.0651 -0.0651,0.0488 -0.0651,0.0163 -0.0651,-0.0163 -0.0488,-0.0326 -0.0488,-0.0488 -0.0977,-0.1302 -0.0977,-0.1302 -0.0651,-0.0651 -0.0814,-0.0488 -0.0814,-0.0325 -0.0977,-0.0163 v 0 l -0.0651,0.0163 -0.0814,0.0325 -0.16275,0.0977 -0.17903,0.1302 -0.17903,0.11393 -0.0814,0.0488 -0.0814,0.0163 -0.0651,0.0163 -0.0814,-0.0325 -0.0651,-0.0488 -0.0488,-0.0814 -0.0326,-0.11392 -0.0326,-0.16276 v 0 l -0.0651,-0.0163 -0.11392,-0.0163 -0.17903,0.0163 v 0 l -0.179033,0.0651 -0.16275,0.0814 -0.14648,0.11392 -0.11393,0.13021 -0.0976,0.1302 -0.0814,0.14648 -0.0488,0.16275 -0.0488,0.16275 -0.0163,0.16275 -0.0163,0.14648 -0.0163,0.16275 0.0163,0.13021 0.0163,0.22785 0.0325,0.0651 0.0163,0.0651 v 0 h 0.0651 l 0.0488,-0.0163 0.0488,-0.0326 0.0326,-0.0325 0.0488,-0.0814 0.0326,-0.1302 0.0163,-0.1302 v -0.16276 l 0.0326,-0.29295 0.0163,-0.1302 0.0325,-0.11393 0.0163,-0.0488 0.0326,-0.0325 0.0326,-0.0326 0.0488,-0.0163 h 0.0488 0.0651 l 0.0651,0.0325 0.0814,0.0326 0.1953,0.11393 0.24413,0.1953 v 0 l 0.0977,0.0651 0.0814,0.0326 h 0.0814 l 0.0814,-0.0326 0.0651,-0.0325 0.0651,-0.0651 0.13021,-0.1302 0.0651,-0.0651 0.0814,-0.0488 0.0977,-0.0325 0.0976,-0.0163 0.11393,0.0163 0.14647,0.0651 0.14648,0.0976 0.17903,0.14648 v 0 l 0.0488,0.0163 0.0814,0.0163 0.0814,0.0163 h 0.0976 l 0.11393,-0.0163 0.1302,-0.0326 0.11393,-0.0488 0.11392,-0.0488 0.11393,-0.0814 0.0976,-0.0814 0.0814,-0.11392 0.0651,-0.13021 0.0488,-0.1302 0.0163,-0.17903 -0.0326,-0.17902 -0.0488,-0.21158 v 0 l -0.0976,-0.0163 h -0.0814 l -0.0488,0.0163 -0.0488,0.0488 -0.0488,0.0814 -0.0326,0.0325 z"
       id="path1290" />
    <path
       inkscape:connector-curvature="0"
       style="fill:#009045;fill-opacity:1;fill-rule:evenodd;stroke:none;stroke-width:0.04882585"
       d="m 95.86664,108.27832 v 0 l -0.3255,-0.3255 -0.30923,-0.24413 -0.29296,-0.19531 -0.27668,-0.17902 -0.55336,-0.30923 -0.29295,-0.19531 -0.32551,-0.22785 -0.0814,-0.0488 v 0 l -0.24413,-0.16275 -0.13021,-0.0814 -0.0488,-0.0325 -0.0163,-0.0488 v 0 l 0.0651,-0.0651 0.0814,-0.0488 0.11393,-0.0163 h 0.1302 l 0.1302,0.0163 0.14648,0.0488 0.30923,0.11392 0.30923,0.13021 0.30923,0.14647 0.27668,0.11393 0.1302,0.0488 0.0977,0.0163 v 0 l 0.1953,0.0326 0.16275,0.0488 0.1302,0.0651 0.0977,0.0651 0.0814,0.0651 0.0488,0.0651 0.0326,0.0651 v 0.0651 l -0.0163,0.0488 -0.0488,0.0325 -0.0488,0.0163 h -0.0814 l -0.0976,-0.0326 -0.0977,-0.0488 -0.1302,-0.0814 -0.1302,-0.11393 v 0 l -0.13021,-0.0977 -0.11392,-0.0976 -0.1302,-0.0651 -0.13021,-0.0488 -0.1302,-0.0325 -0.14648,-0.0163 -0.3255,-0.0163 v 0 l 0.16275,0.0488 0.11393,0.0488 0.0976,0.0488 0.0814,0.0651 0.14647,0.0977 0.11393,0.11392 0.0651,0.0488 0.0976,0.0488 0.0977,0.0326 0.1302,0.0326 0.16275,0.0325 0.1953,0.0163 0.22786,0.0163 0.27668,0.0163 v 0 l -0.0163,-0.0814 -0.0163,-0.0651 -0.0488,-0.0814 -0.0488,-0.0651 -0.13021,-0.14647 -0.14647,-0.14648 -0.14648,-0.1302 -0.0976,-0.13021 -0.0326,-0.0488 -0.0163,-0.0651 v -0.0488 l 0.0326,-0.0325 v 0 h 0.0976 l 0.11393,0.0163 0.0976,0.0325 0.0976,0.0488 0.19531,0.0977 0.16275,0.11392 0.29296,0.24413 0.11392,0.0814 0.0977,0.0488 v 0 l 0.0326,0.0651 0.0326,0.0488 0.0325,0.11393 v 0.0814 l -0.0163,0.0651 v 0.0651 l 0.0163,0.0326 0.0651,0.0325 h 0.11393 v 0 l 0.0651,-0.0976 0.0488,-0.0977 0.0163,-0.0814 0.0163,-0.0651 -0.0163,-0.0488 -0.0163,-0.0651 -0.0651,-0.0976 -0.0814,-0.11393 -0.0651,-0.14648 -0.0326,-0.0814 -0.0163,-0.0977 -0.0163,-0.11392 0.0163,-0.14648 v 0 -0.0326 l 0.0326,-0.0488 0.0814,-0.11392 0.0651,-0.0488 0.0651,-0.0488 0.0814,-0.0326 0.0651,-0.0163 0.0814,0.0163 0.0814,0.0326 0.0651,0.0651 0.0651,0.0977 0.0488,0.14647 0.0326,0.19531 0.0326,0.24413 v 0.30923 0 l 0.0163,0.16275 v 0.16275 0.0651 l -0.0163,0.0651 -0.0326,0.0651 -0.0488,0.0814 v 0 l 0.0488,0.0814 0.0651,0.0488 0.0651,0.0163 h 0.0976 l 0.0976,-0.0326 0.11393,-0.0651 0.24413,-0.14647 0.26041,-0.17903 0.2604,-0.21158 0.24413,-0.17903 0.21158,-0.14647 v 0 l 0.24413,-0.14648 0.227853,-0.11393 0.19531,-0.0651 0.179017,-0.0488 0.14647,-0.0163 0.1302,0.0163 0.11393,0.0163 0.0814,0.0488 0.0488,0.0488 0.0488,0.0488 0.0163,0.0651 v 0.0651 l -0.0163,0.0488 -0.0488,0.0651 -0.0651,0.0326 -0.0651,0.0163 v 0 l -0.1302,0.0326 -0.14648,0.0488 -0.374317,0.14647 -0.423163,0.19531 -0.45571,0.24413 -0.21157,0.14647 -0.19531,0.13021 -0.1953,0.14647 -0.16276,0.13021 -0.1302,0.14647 -0.11392,0.13021 -0.0651,0.1302 -0.0163,0.0651 v 0.0651 0 l 0.0163,0.53708 0.0326,0.84632 0.0326,0.79749 v 0.29295 l -0.0163,0.14648 v 0 l -0.17903,0.0325 h -0.14649 l -0.11393,-0.0325 -0.0651,-0.0163 -0.0326,-0.0326 -0.0488,-0.0488 -0.0325,-0.0326 -0.0326,-0.1302 -0.0163,-0.14648 0.0163,-0.17903 v 0 l -0.0163,0.19531 -0.0326,0.16275 -0.0651,0.0976 -0.0163,0.0326 -0.0326,0.0163 -0.0325,-0.0163 -0.0326,-0.0326 -0.0325,-0.0651 -0.0326,-0.0814 -0.0163,-0.11393 -0.0163,-0.14648 -0.0163,-0.40688 v 0 -0.16275 l 0.0325,-0.22785 0.0326,-0.47199 v -0.21157 l -0.0163,-0.0814 -0.0163,-0.0814 -0.0163,-0.0325 -0.0326,-0.0326 -0.0488,0.0163 -0.0488,0.0326 v 0 l -0.14648,0.0976 -0.0326,0.0488 -0.0326,0.0977 v 0 l -0.0814,-0.1302 -0.0651,-0.13021 -0.0977,-0.29295 -0.0488,-0.11393 -0.0488,-0.0814 -0.0326,-0.0326 h -0.0326 -0.0326 l -0.0488,0.0163 v 0 l 0.0651,0.74866 0.0325,0.55336 0.0163,0.39061 v 0 0.22785 l -0.0163,0.19531 -0.0325,0.22785 -0.0326,0.17903 -0.0326,0.0651 -0.0326,0.0326 -0.0325,0.0163 -0.0326,-0.0163 -0.0326,-0.0651 -0.0488,-0.0977 v 0 -0.43943 l 0.0326,-0.87887 0.0163,-0.48826 v -0.42315 l -0.0163,-0.30923 -0.0163,-0.0976 z"
       id="path1294" />
    <path
       inkscape:connector-curvature="0"
       style="fill:#009045;fill-opacity:1;fill-rule:evenodd;stroke:none;stroke-width:0.04882585"
       d="m 91.78155,111.0614 v 0 l 0.0976,0.0163 0.11393,0.0163 0.22785,-0.0163 0.21158,-0.0163 0.1953,-0.0163 v 0 l -0.16275,0.0977 -0.1302,0.0651 -0.11393,0.0488 -0.0977,0.0326 -0.14648,0.0325 -0.0814,0.0163 v 0 l -0.0651,0.0651 -0.0488,0.0488 -0.0326,0.0488 -0.0326,0.0488 -0.0163,0.0814 -0.0163,0.0488 v 0 l -0.0163,-0.0163 -0.0651,-0.0488 -0.35805,-0.37434 v 0 l -0.17904,-0.0976 -0.14647,-0.0814 -0.14648,-0.0977 -0.0976,-0.0814 -0.0163,-0.0325 v -0.0488 l 0.0325,-0.0163 0.0651,-0.0326 0.0977,-0.0163 h 0.1302 v 0 l 0.0976,0.0163 0.0814,0.0326 0.0814,0.0325 0.0651,0.0651 0.11393,0.13021 0.0976,0.1302 0.0651,0.0976 0.0326,0.0326 0.0326,0.0163 0.0326,-0.0163 0.0325,-0.0326 0.0326,-0.0814 z"
       id="path1298" />
    <path
       inkscape:connector-curvature="0"
       style="fill:#009045;fill-opacity:1;fill-rule:evenodd;stroke:none;stroke-width:0.04882585"
       d="m 91.04916,111.76123 v 0 -0.0651 l -0.0163,-0.0488 -0.0326,-0.0325 -0.0326,-0.0488 -0.0814,-0.0651 -0.11393,-0.0651 -0.11393,-0.0325 -0.1302,-0.0326 -0.1953,-0.0163 v 0 0.21158 l 0.0163,0.24413 0.0488,0.22786 0.0325,0.0976 0.0326,0.0977 0.0488,0.0651 0.0651,0.0651 0.0651,0.0325 0.0976,0.0163 0.0976,-0.0163 0.11393,-0.0651 0.1302,-0.0814 0.14648,-0.13021 v 0 l 0.0651,-0.0814 0.0651,-0.0651 0.0326,-0.0488 0.0163,-0.0488 -0.0163,-0.0326 -0.0163,-0.0325 -0.0163,-0.0163 -0.0488,-0.0163 -0.0814,-0.0163 h -0.0814 -0.0814 z"
       id="path1302" />
    <path
       inkscape:connector-curvature="0"
       style="fill:#5e8d37;fill-opacity:1;fill-rule:evenodd;stroke:none;stroke-width:0.04882585"
       d="m 104.81804,110.81727 v 0 l -0.34178,0.1302 -0.1302,0.0651 -0.13021,0.0325 h -0.11392 l -0.0651,-0.0163 -0.0488,-0.0163 -0.0488,-0.0326 -0.0488,-0.0488 -0.0976,-0.11393 v 0 l -0.0326,-0.0488 -0.0326,-0.0325 -0.0326,-0.0163 -0.0488,-0.0163 -0.0651,0.0163 -0.0814,0.0325 -0.0651,0.0651 -0.0651,0.0814 -0.0488,0.0651 -0.0326,0.0814 v 0 l 0.0976,0.11393 0.0651,0.0814 0.0814,0.0488 0.0651,0.0325 0.0651,0.0163 0.0651,-0.0163 0.11392,-0.0488 0.0814,-0.0488 0.0488,-0.0163 0.0326,-0.0163 0.0325,0.0163 0.0326,0.0325 0.0326,0.0651 0.0326,0.0814 v 0 l 0.37434,-0.30923 z"
       id="path1306" />
    <path
       inkscape:connector-curvature="0"
       style="fill:#5e8d37;fill-opacity:1;fill-rule:evenodd;stroke:none;stroke-width:0.04882585"
       d="m 101.46533,110.81727 v 0 l 0.1302,-0.0163 0.0976,-0.0326 0.0976,-0.0163 0.0651,-0.0325 0.0976,-0.0651 0.0488,-0.0651 0.0326,-0.0326 0.0163,-0.0163 0.0163,0.0163 0.0488,0.0326 0.0814,0.11392 v 0 l 0.0488,0.0651 0.0163,0.0814 v 0 l 0.0488,0.0163 h 0.0488 l 0.0814,-0.0163 0.0651,-0.0488 0.0488,-0.0651 0.0976,-0.1302 0.0488,-0.0325 0.0651,-0.0326 v 0 l 0.24413,0.47199 0.11393,0.24413 0.0488,0.0977 0.0163,0.0814 v 0 l -0.0976,-0.0163 -0.0651,-0.0163 -0.0488,-0.0163 -0.0488,-0.0325 -0.0488,-0.0651 -0.0488,-0.0488 -0.0326,-0.0325 -0.0326,-0.0163 -0.0325,0.0163 -0.0976,0.0488 -0.14648,0.14647 v 0 l -0.0488,0.0325 -0.0488,0.0163 -0.0488,0.0163 -0.0488,-0.0163 -0.0814,-0.0325 -0.0814,-0.0651 -0.0651,-0.0814 -0.0814,-0.0488 -0.0488,-0.0163 -0.0488,-0.0163 h -0.0326 l -0.0488,0.0163 v 0 l -0.0976,-0.0488 -0.16275,-0.1302 -0.16275,-0.1302 -0.0488,-0.0488 -0.0163,-0.0326 v 0 h 0.0651 z"
       id="path1310" />
    <path
       inkscape:connector-curvature="0"
       style="fill:#bb3c12;fill-opacity:1;fill-rule:evenodd;stroke:none;stroke-width:0.04882585"
       d="m 99.496033,108.6201 v 0 l 0.0976,0.0163 0.0977,0.0163 0.0814,0.0488 0.0651,0.0651 0.0651,0.0814 0.0488,0.0814 0.0325,0.0976 v 0.0976 0 0.0977 l -0.0325,0.0976 -0.0488,0.0814 -0.0651,0.0651 -0.0651,0.0651 -0.0814,0.0488 -0.0977,0.0326 h -0.0976 v 0 H 99.3821 l -0.0814,-0.0326 -0.0976,-0.0488 -0.0651,-0.0651 -0.0651,-0.0651 -0.0488,-0.0814 -0.0163,-0.0976 -0.0163,-0.0977 v 0 l 0.0163,-0.0976 0.0163,-0.0976 0.0488,-0.0814 0.0651,-0.0814 0.0651,-0.0651 0.0976,-0.0488 0.0814,-0.0163 z"
       id="path1314" />
    <path
       inkscape:connector-curvature="0"
       style="fill:#feee00;fill-opacity:1;fill-rule:evenodd;stroke:none;stroke-width:0.04882585"
       d="m 94.22284,108.53873 v 0 l 0.0976,0.0163 0.0977,0.0326 0.0814,0.0488 0.0814,0.0488 0.0488,0.0814 0.0488,0.0814 0.0326,0.0977 0.0163,0.0976 v 0 l -0.0163,0.0976 -0.0326,0.0977 -0.0488,0.0814 -0.0488,0.0814 -0.0814,0.0488 -0.0814,0.0488 -0.0977,0.0325 -0.0976,0.0163 v 0 l -0.0976,-0.0163 -0.0976,-0.0325 -0.0814,-0.0488 -0.0814,-0.0488 -0.0651,-0.0814 -0.0326,-0.0814 -0.0325,-0.0977 -0.0163,-0.0976 v 0 l 0.0163,-0.0976 0.0325,-0.0977 0.0326,-0.0814 0.0651,-0.0814 0.0814,-0.0488 0.0814,-0.0488 0.0976,-0.0326 z"
       id="path1318" />
    <path
       inkscape:connector-curvature="0"
       style="fill:#feee00;fill-opacity:1;fill-rule:evenodd;stroke:none;stroke-width:0.04882585"
       d="m 96.84316,112.65637 v 0 l 0.16275,0.0163 0.14648,0.0326 0.1302,0.0325 0.11393,0.0651 0.0814,0.0814 0.0814,0.0814 0.0326,0.0977 0.0163,0.0976 v 0 l -0.0163,0.0977 -0.0326,0.0976 -0.0814,0.0814 -0.0814,0.0814 -0.11393,0.0488 -0.1302,0.0488 -0.14648,0.0325 -0.16275,0.0163 v 0 l -0.14648,-0.0163 -0.14647,-0.0325 -0.13021,-0.0488 -0.11392,-0.0488 -0.0977,-0.0814 -0.0651,-0.0814 -0.0488,-0.0976 -0.0163,-0.0977 v 0 l 0.0163,-0.0976 0.0488,-0.0977 0.0651,-0.0814 0.0976,-0.0814 0.11393,-0.0651 0.1302,-0.0325 0.14648,-0.0326 z"
       id="path1322" />
    <path
       inkscape:connector-curvature="0"
       style="fill:#567597;fill-opacity:1;fill-rule:evenodd;stroke:none;stroke-width:0.04882585"
       d="m 93.1975,111.04512 v 0 l 0.1302,0.0163 0.11393,0.0325 0.11392,0.0651 0.0977,0.0651 0.0814,0.0976 0.0488,0.11393 0.0326,0.11393 0.0163,0.1302 v 0 l -0.0163,0.1302 -0.0326,0.11393 -0.0488,0.11392 -0.0814,0.0814 -0.0977,0.0814 -0.11392,0.0651 -0.11393,0.0326 -0.1302,0.0163 v 0 l -0.13021,-0.0163 -0.11392,-0.0326 -0.11393,-0.0651 -0.0814,-0.0814 -0.0814,-0.0814 -0.0651,-0.11392 -0.0326,-0.11393 -0.0163,-0.1302 v 0 l 0.0163,-0.1302 0.0326,-0.11393 0.0651,-0.11393 0.0814,-0.0976 0.0814,-0.0651 0.11393,-0.0651 0.11392,-0.0325 z"
       id="path1326" />
    <path
       inkscape:connector-curvature="0"
       style="fill:#567597;fill-opacity:1;fill-rule:evenodd;stroke:none;stroke-width:0.04882585"
       d="m 100.55392,111.01257 v 0 h 0.11392 l 0.0976,0.0325 0.0976,0.0488 0.0814,0.0814 0.0651,0.0814 0.0488,0.0814 0.0325,0.11393 0.0163,0.11392 v 0 l -0.0163,0.11393 -0.0325,0.0977 -0.0488,0.0976 -0.0651,0.0814 -0.0814,0.0651 -0.0976,0.0488 -0.0976,0.0326 -0.11392,0.0163 v 0 l -0.11393,-0.0163 -0.11393,-0.0326 -0.0814,-0.0488 -0.0977,-0.0651 -0.0651,-0.0814 -0.0488,-0.0976 -0.0326,-0.0977 -0.0163,-0.11393 v 0 l 0.0163,-0.11392 0.0326,-0.11393 0.0488,-0.0814 0.0651,-0.0814 0.0977,-0.0814 0.0814,-0.0488 0.11393,-0.0325 z"
       id="path1330" />
    <path
       inkscape:connector-curvature="0"
       style="fill:#567597;fill-opacity:1;fill-rule:evenodd;stroke:none;stroke-width:0.04882585"
       d="m 99.44721,110.78472 v 0 l 0.0163,0.0976 v 0.0814 l 0.0976,0.87886 v 0 l -0.0163,0.0814 -0.0326,0.0814 -0.0814,0.0488 -0.0814,0.0163 v 0 h -0.0976 l -0.0651,-0.0488 -0.0651,-0.0814 -0.0163,-0.0814 -0.0326,-0.87886 v 0 -0.0488 l -0.0814,-0.0163 v 0 l -0.0163,0.0651 -0.0325,0.0651 -0.52081,0.71611 v 0 l -0.0814,0.0651 -0.0814,0.0163 h -0.0814 l -0.0814,-0.0326 v 0 l -0.0651,-0.0651 -0.0326,-0.0814 0.0163,-0.0976 0.0326,-0.0814 0.52081,-0.71611 v 0 l 0.0326,-0.0325 0.0488,-0.0163 -0.0163,-0.0163 0.0814,-0.66729 h -0.74865 v 0 l -0.0814,-0.0163 -0.0814,-0.0488 -0.0488,-0.0814 -0.0163,-0.0814 v 0 0 l 0.0163,-0.0976 0.0651,-0.0651 0.0651,-0.0488 0.0976,-0.0163 h 0.87887 v 0 l 0.0651,0.0163 0.0488,0.0163 0.0488,0.0488 0.0326,0.0488 0.29295,0.1302 v 0 l 0.0651,-0.0163 h 0.0651 l 0.0488,0.0163 0.0488,0.0488 0.66728,0.58591 v 0 l 0.0488,0.0651 0.0163,0.0976 v 0.0814 l -0.0488,0.0814 v 0 l -0.0814,0.0488 -0.0814,0.0163 h -0.0814 l -0.0814,-0.0488 -0.45571,-0.40688 z"
       id="path1334" />
    <path
       inkscape:connector-curvature="0"
       style="fill:#bb3c12;fill-opacity:1;fill-rule:evenodd;stroke:none;stroke-width:0.04882585"
       d="m 101.04217,114.349 v 0 l 0.0163,0.0488 0.22786,0.86259 v 0 0.0814 l -0.0163,0.0976 -0.0651,0.0651 -0.0814,0.0326 v 0 h -0.0977 l -0.0814,-0.0163 -0.0651,-0.0651 -0.0325,-0.0814 -0.22786,-0.86259 v 0 h -0.0651 l -0.35805,0.74867 v 0 l -0.0488,0.0651 -0.0814,0.0488 -0.0814,0.0163 -0.0814,-0.0163 v 0 l -0.0814,-0.0651 -0.0488,-0.0651 v -0.0977 l 0.0163,-0.0814 0.37433,-0.79749 v 0 l 0.0488,-0.11393 0.0163,-0.11393 0.0163,-0.16275 v -0.74866 l -0.43943,0.42316 v 0 l -0.0651,0.0488 -0.0977,0.0163 -0.0814,-0.0163 -0.0814,-0.0651 v 0 l -0.0488,-0.0651 -0.0163,-0.0977 0.0163,-0.0814 0.0651,-0.0651 0.61846,-0.63474 v 0 l 0.0814,-0.0326 0.0814,-0.0163 0.17903,-0.0163 h 0.37433 v 0 l 0.0976,0.0163 0.0651,0.0488 0.0488,0.0651 0.0163,0.0814 v 1.56243 0 z"
       id="path1336" />
    <path
       inkscape:connector-curvature="0"
       style="fill:#567597;fill-opacity:1;fill-rule:evenodd;stroke:none;stroke-width:0.04882585"
       d="m 95.16681,113.42131 0.99279,0.53709 h 1.23692 l 0.99279,-0.53709 v 0 l 0.0814,-0.0325 0.0814,0.0163 0.0651,0.0325 0.0488,0.0651 v 0.0163 0 l 0.0163,0.0814 v 0.0814 l -0.0326,0.0651 -0.0651,0.0488 -1.15554,0.61846 v 0.83004 l 0.52081,1.3834 v 0 0.0814 l -0.0163,0.0814 -0.0326,0.0651 -0.0651,0.0488 h -0.0163 v 0 l -0.0814,0.0163 -0.0651,-0.0163 -0.0651,-0.0488 -0.0488,-0.0651 v 0 l -0.17904,-0.53711 -0.0976,-0.27668 -0.0814,-0.21158 -0.14648,-0.3255 v 0 l -0.0163,-0.0325 -0.0488,-0.0325 h -0.0814 l -0.0814,-0.0163 -0.0651,0.0163 -0.0814,0.0163 -0.0488,0.0163 -0.0326,0.0325 v 0 l -0.48826,1.36712 v 0 l -0.0488,0.0814 -0.0651,0.0325 -0.0651,0.0163 h -0.0814 l -0.0163,-0.0163 v 0 l -0.0651,-0.0325 -0.0326,-0.0651 -0.0325,-0.0814 0.0163,-0.0814 0.42315,-1.35085 v 0 -0.87887 l -1.17182,-0.63473 v 0 l -0.0651,-0.0488 -0.0326,-0.0651 v -0.0814 l 0.0163,-0.0814 v -0.0163 0 l 0.0488,-0.0488 0.0651,-0.0488 h 0.0814 z"
       id="path1340" />
    <path
       inkscape:connector-curvature="0"
       style="fill:#feee00;fill-opacity:1;fill-rule:evenodd;stroke:none;stroke-width:0.04882585"
       d="m 92.69296,114.2839 v 0 l -0.0163,0.0325 -0.22785,0.86259 v 0 0.0976 l 0.0326,0.0814 0.0488,0.0651 0.0814,0.0326 v 0 h 0.0976 l 0.0814,-0.0163 0.0651,-0.0651 0.0488,-0.0814 0.21158,-0.86259 v 0 h 0.0651 l 0.35806,0.74867 v 0 l 0.0488,0.0651 0.0814,0.0488 0.0814,0.0163 0.0976,-0.0163 v 0 l 0.0651,-0.0651 0.0488,-0.0651 0.0163,-0.0976 -0.0326,-0.0814 -0.37433,-0.79749 v 0 l -0.0488,-0.11393 -0.0163,-0.0977 v -0.17903 -0.74866 l 0.42316,0.42316 v 0 l 0.0814,0.0488 0.0814,0.0163 0.0814,-0.0163 0.0814,-0.0488 v 0 0 l 0.0488,-0.0814 0.0163,-0.0977 -0.0163,-0.0814 -0.0488,-0.0651 -0.63473,-0.61846 v 0 l -0.0651,-0.0488 -0.0976,-0.0163 -0.17903,-0.0163 h -0.37433 v 0 l -0.0814,0.0163 -0.0814,0.0488 -0.0488,0.0651 -0.0163,0.0814 v 1.56243 0 z"
       id="path1344" />
    <path
       inkscape:connector-curvature="0"
       style="fill:#bb3c12;fill-opacity:1;fill-rule:evenodd;stroke:none;stroke-width:0.04882585"
       d="m 94.19029,110.80099 v 0 l -0.0325,0.17903 v 0.0163 -0.0326 l -0.0977,0.89514 v 0 l 0.0163,0.0814 0.0488,0.0814 0.0814,0.0488 0.0814,0.0163 v 0 l 0.0976,-0.0163 0.0651,-0.0325 0.0488,-0.0814 0.0326,-0.0814 0.0326,-0.89514 v 0 l -0.0163,-0.0325 0.0976,-0.0163 v 0 l 0.0163,0.0651 0.0326,0.0651 0.52081,0.71611 v 0 l 0.0651,0.0651 0.0814,0.0163 h 0.0976 l 0.0814,-0.0325 v 0 l 0.0651,-0.0651 0.0163,-0.0977 v -0.0814 l -0.0326,-0.0814 -0.53708,-0.71611 v 0 l -0.0325,-0.0326 -0.0326,-0.0163 0.0163,-0.0163 -0.0976,-0.66729 h 0.76494 v 0 l 0.0814,-0.0163 0.0651,-0.0651 0.0488,-0.0651 0.0326,-0.0977 v 0 l -0.0326,-0.0814 -0.0488,-0.0814 -0.0651,-0.0325 -0.0977,-0.0326 -0.87886,0.0163 v 0 l -0.0651,0.0163 -0.0488,0.0163 -0.0488,0.0488 -0.0326,0.0325 -0.30923,0.14648 v 0 l -0.0488,-0.0163 h -0.0651 l -0.0488,0.0163 -0.0651,0.0326 -0.65101,0.60219 v 0 l -0.0488,0.0651 -0.0325,0.0814 0.0163,0.0976 0.0488,0.0814 v 0 l 0.0651,0.0488 0.0976,0.0163 h 0.0814 l 0.0814,-0.0488 0.43943,-0.40689 z"
       id="path1348" />
    <path
       inkscape:connector-curvature="0"
       style="fill:#698731;fill-opacity:1;fill-rule:evenodd;stroke:none;stroke-width:0.04882585"
       d="m 103.61367,101.70311 v 0 l -0.0976,0.1302 -0.0651,0.1302 -0.0326,0.14648 -0.0163,0.1302 0.0163,0.13021 0.0488,0.11392 0.0814,0.11393 0.11393,0.11393 v 0 l 0.16275,0.1302 0.1302,0.0814 0.0651,0.0163 0.0651,0.0163 0.21158,0.0163 v 0 l 0.0326,-0.0488 v -0.0325 -0.0488 l -0.0163,-0.0488 -0.0651,-0.11392 -0.0814,-0.11393 -0.1953,-0.24413 -0.0814,-0.14648 -0.0326,-0.0651 -0.0163,-0.0651 v 0 l -0.0163,-0.0651 v -0.0814 l 0.0163,-0.17903 v -0.0651 l -0.0163,-0.0163 -0.0163,-0.0163 h -0.0163 -0.0326 l -0.0976,0.0814 v 0 h -0.0326 z"
       id="path1350" />
    <path
       inkscape:connector-curvature="0"
       style="fill:#009045;fill-opacity:1;fill-rule:evenodd;stroke:none;stroke-width:0.04882585"
       d="m 105.12727,104.45363 v 0 l -0.42316,0.29296 -0.53708,0.37433 v 0 l -0.22786,0.14648 -0.30923,0.21157 -0.14647,0.0977 -0.11393,0.11392 -0.0814,0.11393 -0.0163,0.0488 -0.0163,0.0488 v 0 0.19531 l -0.0163,0.1302 -0.0163,0.0814 -0.0325,0.0488 -0.0651,0.0814 -0.0326,0.0488 -0.0488,0.0814 v 0 l -0.0651,0.0814 -0.11393,0.16276 -0.11392,0.16275 -0.0326,0.0651 v 0.0488 l 0.0326,-0.0163 v 0 l 0.17902,-0.14647 0.11393,-0.0814 0.14648,-0.0814 0.0488,-0.0488 0.0651,-0.0814 0.22785,-0.37433 v 0 l 0.0488,-0.11393 0.0326,-0.14648 0.0325,-0.27668 v 0 l 0.11393,-0.0326 0.11393,-0.0488 0.11392,-0.0488 0.11393,-0.0814 0.22785,-0.19531 0.21158,-0.22785 0.37434,-0.42316 0.1302,-0.14648 z"
       id="path1354" />
    <path
       inkscape:connector-curvature="0"
       style="fill:#009045;fill-opacity:1;fill-rule:evenodd;stroke:none;stroke-width:0.04882585"
       d="m 104.21585,103.68869 v 0 l 0.0488,0.11393 0.0326,0.1302 0.0163,0.1302 v 0.13021 0.1302 l -0.0163,0.1302 -0.0651,0.26041 v 0 l -0.0976,0.0651 -0.17902,0.17903 -0.19531,0.17902 -0.0976,0.0651 -0.0651,0.0488 v 0 l -0.1953,0.0976 -0.11393,0.0651 -0.1302,0.0651 -0.2604,0.0814 v 0 l -0.19531,0.0651 -0.0977,0.0488 -0.0488,0.0163 -0.0163,0.0163 v 0 l -0.0325,0.0326 -0.0163,0.0163 -0.0488,0.0977 -0.0326,0.14648 -0.0325,0.16275 -0.0163,0.17903 -0.0488,0.19531 -0.0488,0.17902 -0.0814,0.16276 v 0 l -0.0814,0.11392 -0.0651,0.0977 -0.0814,0.0651 -0.0814,0.0651 -0.0814,0.0325 h -0.11392 -0.11393 l -0.14648,-0.0163 v 0 l -0.13018,-0.0326 -0.11392,-0.0488 -0.1302,-0.0488 -0.11393,-0.0651 -0.21158,-0.16275 -0.17903,-0.16275 -0.1302,-0.14648 -0.0326,-0.0651 -0.0163,-0.0325 0.0163,-0.0326 h 0.0326 l 0.0651,0.0163 0.0814,0.0326 v 0 l 0.16275,0.0814 0.16276,0.0488 0.16275,0.0488 0.16275,0.0163 0.17903,0.0163 0.16275,0.0163 0.34178,-0.0163 v 0 l 0.0814,-0.0326 0.0651,-0.0488 0.0488,-0.0651 0.0488,-0.0814 0.0163,-0.11392 0.0163,-0.11393 v -0.24413 l -0.0326,-0.47198 0.0163,-0.19531 0.0163,-0.0488 0.0163,-0.0488 v 0 l 0.11393,-0.0814 0.11393,-0.0814 0.2604,-0.14648 0.27668,-0.14648 0.29296,-0.1302 0.27668,-0.1302 0.24413,-0.11393 0.0976,-0.0814 0.0976,-0.0651 0.0651,-0.0651 0.0488,-0.0814 v 0 l 0.0977,-0.21158 0.0814,-0.17903 v 0 l -0.0163,-0.0163 z"
       id="path1358" />
    <path
       inkscape:connector-curvature="0"
       style="fill:#009045;fill-opacity:1;fill-rule:evenodd;stroke:none;stroke-width:0.04882585"
       d="m 92.49766,107.07395 0.21158,-0.1302 v 0 l -0.0651,0.0326 v 0 l -0.13021,0.0488 h -0.11392 l -0.0976,-0.0163 -0.0651,-0.0325 -0.0814,-0.0326 -0.0976,-0.0488 -0.0976,-0.0163 h -0.14648 v 0 l -0.0488,0.0163 -0.0488,0.0163 -0.0814,0.0651 h -0.0488 l -0.0651,-0.0163 -0.0488,-0.0488 -0.0651,-0.11393 v 0 l -0.0326,-0.0325 -0.0325,-0.0326 -0.0488,-0.0163 h -0.0325 l -0.0814,0.0326 -0.0976,0.0325 -0.11393,0.0326 -0.0651,0.0163 h -0.0651 l -0.0651,-0.0163 -0.0814,-0.0326 -0.0814,-0.0325 -0.0814,-0.0651 v 0 l -0.0326,-0.0488 -0.0326,-0.0326 v -0.0325 -0.0325 l 0.0326,-0.0488 v -0.0326 -0.0163 l -0.0326,-0.0163 -0.11393,-0.0163 -0.24413,-0.0163 h -0.390603 v 0 h -0.0814 l -0.0488,0.0163 -0.0325,0.0326 -0.0163,0.0326 0.0163,0.0325 0.0163,0.0326 0.0976,0.0814 0.11393,0.0977 0.14647,0.0651 0.130213,0.0488 0.0976,0.0163 v 0 h 0.0488 l 0.0488,0.0326 0.0651,0.11392 0.0488,0.0488 0.0651,0.0488 0.11393,0.0325 0.17902,0.0163 v 0 l 0.21158,0.0163 0.17903,0.0163 0.14648,0.0325 0.1302,0.0488 0.1302,0.0325 0.17903,0.0326 0.21158,0.0163 0.27668,0.0163 v 0 h 0.24413 0.11393 0.11392 l 0.0977,-0.0325 0.0651,-0.0651 0.0326,-0.0488 0.0163,-0.0488 0.0163,-0.0488 0.0163,-0.0814 v 0 l -0.0651,-0.0163 -0.0814,-0.0325 -0.0651,-0.0163 -0.0488,0.0163 -0.0651,0.0325 z"
       id="path1362" />
    <path
       inkscape:connector-curvature="0"
       style="fill:#698731;fill-opacity:1;fill-rule:evenodd;stroke:none;stroke-width:0.04882585"
       d="m 90.7562,105.70683 v 0 l -0.0163,0.11393 v 0.1302 l 0.0163,0.1302 0.0326,0.0976 0.0651,0.0977 0.0976,0.0814 0.0651,0.0325 0.0651,0.0163 0.0651,0.0163 h 0.0814 v 0 h 0.0651 l 0.0651,-0.0163 0.0651,-0.0326 0.0651,-0.0488 0.0976,-0.0976 0.0326,-0.0651 0.0163,-0.0488 v 0 l 0.0326,0.0163 0.0163,0.0325 0.0814,0.11393 0.0976,0.16275 0.11393,0.16276 0.0651,0.0651 0.0814,0.0651 0.0814,0.0488 0.0814,0.0163 0.0976,0.0163 0.0977,-0.0326 0.0976,-0.0488 0.11392,-0.0977 v 0 l 0.17903,-0.16275 0.17903,-0.17903 0.0814,-0.11393 0.0651,-0.0976 0.0488,-0.11392 0.0163,-0.11393 v 0 h -0.0814 l -0.0814,0.0163 -0.14648,0.0814 -0.30923,0.16275 -0.0651,0.0326 -0.0651,0.0325 h -0.0814 -0.0651 l -0.0651,-0.0325 -0.0651,-0.0488 -0.0651,-0.0651 -0.0651,-0.0976 v 0 l -0.19531,-0.32551 v 0 l -0.0326,-0.0163 -0.0163,0.0163 -0.0651,0.0325 -0.0651,0.0651 -0.0651,0.0814 -0.0651,0.0814 -0.0651,0.0814 -0.0651,0.0488 -0.0488,0.0163 h -0.0325 v 0 l -0.16275,-0.16275 -0.1302,-0.13021 -0.0977,-0.0977 v 0 l -0.0488,-0.0488 v 0 l -0.1302,0.0814 z"
       id="path1366" />
    <path
       inkscape:connector-curvature="0"
       style="fill:#698731;fill-opacity:1;fill-rule:evenodd;stroke:none;stroke-width:0.04882585"
       d="m 102.4093,100.28716 v 0 l -0.16276,0.0326 -0.1302,0.0488 -0.0976,0.0488 -0.0976,0.0651 -0.0814,0.0651 -0.0651,0.0488 -0.11392,0.1302 -0.0976,0.11393 -0.0976,0.0977 -0.0651,0.0488 -0.0651,0.0163 -0.0814,0.0163 -0.0976,0.0163 v 0 h -0.21159 l -0.14648,0.0326 -0.11392,0.0325 -0.0651,0.0326 -0.0814,0.0814 -0.0488,0.0325 -0.0488,0.0163 v 0 l 0.0326,0.0163 h 0.0651 0.16275 0.0976 l 0.11393,0.0163 0.1302,0.0326 0.1302,0.0488 v 0 l 0.0976,0.0326 0.11393,0.0163 h 0.0976 0.11393 l 0.11392,-0.0163 0.0977,-0.0326 0.0976,-0.0488 0.0814,-0.0488 v 0 l 0.32551,-0.21158 0.21158,-0.14648 0.0651,-0.0488 0.0163,-0.0326 v 0 l 0.0488,-0.0163 0.0163,-0.0163 0.0163,-0.0326 0.0651,-0.0163 0.17902,-0.0325 v 0 l 0.0977,-0.0163 0.0976,-0.0163 0.0814,-0.0488 0.0651,-0.0651 v -0.0163 l 0.0163,-0.0325 -0.0163,-0.0326 -0.0326,-0.0488 -0.0326,-0.0326 -0.0651,-0.0325 -0.16275,-0.0651 v 0 l -0.14646,-0.0326 -0.14647,-0.0163 h -0.14648 z"
       id="path1370" />
    <path
       inkscape:connector-curvature="0"
       style="fill:#009045;fill-opacity:1;fill-rule:evenodd;stroke:none;stroke-width:0.04882585"
       d="m 96.54986,109.27115 v 0 l -0.0325,0.1302 -0.0326,0.21158 -0.0326,0.55336 -0.0163,0.29295 v 0.26041 l 0.0163,0.1953 0.0163,0.0814 0.0163,0.0488 v 0 h 0.0163 0.0163 v -0.0976 l 0.0163,-0.34178 0.0163,-0.40688 0.0163,-0.14648 0.0163,-0.0814 v 0 l -0.0163,-0.35806 z"
       id="path1374" />
  </g>
</svg>
