<?xml version="1.0" encoding="UTF-8" standalone="no"?>
<!-- Created with Inkscape (http://www.inkscape.org/) -->

<svg
   xmlns:dc="http://purl.org/dc/elements/1.1/"
   xmlns:cc="http://creativecommons.org/ns#"
   xmlns:rdf="http://www.w3.org/1999/02/22-rdf-syntax-ns#"
   xmlns:svg="http://www.w3.org/2000/svg"
   xmlns="http://www.w3.org/2000/svg"
   xmlns:sodipodi="http://sodipodi.sourceforge.net/DTD/sodipodi-0.dtd"
   xmlns:inkscape="http://www.inkscape.org/namespaces/inkscape"
   width="107.4232"
   height="76.352745"
   viewBox="0 0 28.422389 20.201665"
   version="1.1"
   id="svg894"
   inkscape:version="0.92.2 (5c3e80d, 2017-08-06)"
   sodipodi:docname="Logo_7.svg">
  <defs
     id="defs888" />
  <sodipodi:namedview
     id="base"
     pagecolor="#ffffff"
     bordercolor="#666666"
     borderopacity="1.0"
     inkscape:pageopacity="0.0"
     inkscape:pageshadow="2"
     inkscape:zoom="7.919596"
     inkscape:cx="42.898022"
     inkscape:cy="37.55061"
     inkscape:document-units="mm"
     inkscape:current-layer="layer1"
     showgrid="false"
     fit-margin-top="1"
     fit-margin-left="1"
     fit-margin-right="1"
     fit-margin-bottom="1"
     inkscape:window-width="1920"
     inkscape:window-height="1017"
     inkscape:window-x="-8"
     inkscape:window-y="-8"
     inkscape:window-maximized="1"
     units="px" />
  <metadata
     id="metadata891">
    <rdf:RDF>
      <cc:Work
         rdf:about="">
        <dc:format>image/svg+xml</dc:format>
        <dc:type
           rdf:resource="http://purl.org/dc/dcmitype/StillImage" />
        <dc:title />
      </cc:Work>
    </rdf:RDF>
  </metadata>
  <g
     inkscape:label="Capa 1"
     inkscape:groupmode="layer"
     id="layer1"
     transform="translate(-1.0473228,-128.92211)"
     style="opacity:1">
    <text
       xml:space="preserve"
       style="font-style:normal;font-variant:normal;font-weight:normal;font-stretch:normal;font-size:3.52777767px;line-height:1.25;font-family:Arial;-inkscape-font-specification:'Arial, Normal';font-variant-ligatures:normal;font-variant-caps:normal;font-variant-numeric:normal;text-align:start;letter-spacing:0px;word-spacing:0px;writing-mode:lr-tb;text-anchor:start;fill:#000000;fill-opacity:0;stroke:none;stroke-width:0.26458332"
       x="8.694211"
       y="138.0788"
       id="text875"><tspan
         sodipodi:role="line"
         id="tspan873"
         x="8.694211"
         y="141.25645"
         style="font-size:3.52777767px;fill:#000000;fill-opacity:0;stroke-width:0.26458332" /></text>
    <g
       id="g898">
      <path
         transform="matrix(0.26458333,0,0,0.26458333,0.80975994,128.9312)"
         inkscape:connector-curvature="0"
         id="path895"
         d="m 37.821336,26.699338 c 0,-0.06434 1.103613,-2.691319 1.514643,-3.605372 0.65801,-1.463288 2.050505,-4.192255 2.754409,-5.398002 1.855012,-3.177531 3.900262,-5.935475 6.145908,-8.2875367 0.348471,-0.3649839 0.633584,-0.6934817 0.633584,-0.7299956 0,-0.1692832 -0.16178,-0.098175 -0.859628,0.3778394 -2.426375,1.6550729 -4.341211,3.5201579 -5.974144,5.8189259 -1.265658,1.781736 -2.888037,4.858642 -4.549939,8.629144 -0.466806,1.059082 -0.936635,2.124477 -1.044066,2.367545 -0.107431,0.243068 -0.196184,0.42526 -0.197229,0.40487 -0.001,-0.02039 -0.10085,-0.429947 -0.221788,-0.910127 -0.927986,-3.684538 -0.828635,-7.550398 0.279883,-10.890527 1.969227,-5.9335743 7.050737,-10.2434593 14.95184,-12.681409 1.190445,-0.3673213 3.148024,-0.87331196 3.195397,-0.82593889 0.01863,0.0186264 -0.09372,0.45873269 -0.249664,0.97801379 -0.452259,1.5060118 -0.851797,3.0067649 -1.663228,6.2474485 -1.252404,5.0018436 -1.763237,6.7487846 -2.575378,8.8072676 -2.000777,5.071238 -4.84371,7.847134 -9.370842,9.149872 -0.851725,0.245095 -2.769758,0.624568 -2.769758,0.547982 z"
         style="opacity:0;fill:#000000;fill-opacity:0;fill-rule:evenodd;stroke-width:0.00631345;stroke-miterlimit:4;stroke-dasharray:none" />
      <path
         style="fill:#9e5c2f;fill-opacity:1;stroke:none;stroke-width:0.02548834px;stroke-linecap:butt;stroke-linejoin:miter;stroke-opacity:1"
         d="m 7.1249403,133.20358 c 0.9018729,3.81541 0.3137163,5.10454 0.109584,5.75902 -0.8258831,-0.69968 -2.2998673,-1.08174 -4.002405,-1.32972 1.8590884,0.86018 4.654955,1.00839 3.974929,7.13047 2.8381507,-10.84574 0.4738139,-10.74948 -0.082108,-11.55977 z"
         id="path36"
         inkscape:connector-curvature="0"
         sodipodi:nodetypes="ccccc" />
      <path
         style="fill:#9e5c2f;fill-opacity:1;stroke:none;stroke-width:0.02548834px;stroke-linecap:butt;stroke-linejoin:miter;stroke-opacity:1"
         d="m 12.816508,135.77042 c -4.0418926,2.45612 -5.8888911,7.2412 -5.3557346,13.08862 0.1107103,-0.001 0.9076812,0.0105 0.8983319,-0.0493 -0.098879,-0.62809 -0.131801,-2.25342 -0.1184809,-2.56719 0.2265138,-5.33537 4.6433976,-5.73448 6.8223506,-6.09272 -1.106685,-0.93763 -3.703192,-0.30414 -5.3897662,0.80695 0.5790172,-1.99759 1.8019492,-3.00889 3.1432992,-5.18652 z"
         id="path55"
         inkscape:connector-curvature="0"
         sodipodi:nodetypes="ccsscccc" />
      <path
         style="opacity:0;fill:#008000;stroke-width:0.03047989"
         d="m 9.1739984,147.68172 c -1.0483638,-0.067 -2.1697676,-0.31236 -3.153078,-0.68985 -1.1967766,-0.45947 -1.8830313,-0.95098 -2.609845,-1.86928 -0.085917,-0.10862 -0.3719756,-0.51284 -0.6356846,-0.89841 -0.6394071,-0.93487 -0.8521594,-1.19783 -1.210926,-1.49668 -0.1151091,-0.0959 -0.1984796,-0.18467 -0.1852683,-0.19731 0.013212,-0.0122 0.1929556,-0.0515 0.3994319,-0.0862 1.8818972,-0.31694 3.9377103,0.0226 5.8014096,0.95842 1.5516751,0.77907 2.743476,1.88694 3.366691,3.12959 0.15638,0.31182 0.377692,0.90185 0.377692,1.00696 0,0.0531 -0.308641,0.0989 -0.975356,0.14483 -0.4640132,0.0318 -0.6500395,0.0315 -1.1750666,-0.002 z m 0.1387499,-1.43434 c 0,-0.059 -0.4907092,-0.54295 -0.7726464,-0.76208 -0.52545,-0.40835 -1.4409055,-0.91078 -2.1839029,-1.19856 -0.2095491,-0.0811 -0.799335,-0.34344 -1.3106355,-0.58283 -0.9065331,-0.42444 -1.2940896,-0.575 -1.5363551,-0.59677 -0.1997118,-0.0179 -0.1620374,0.0534 0.049318,0.0935 0.4023046,0.0761 0.8090346,0.24833 1.2584385,0.53273 0.3562404,0.22546 0.83165,0.4567 1.4182973,0.68987 0.8550655,0.33987 2.3896555,1.24582 2.8472637,1.6809 0.1872308,0.17802 0.2302228,0.20477 0.2302221,0.14326 z"
         id="path35"
         inkscape:connector-curvature="0" />
      <path
         style="opacity:0;fill:#008000;stroke-width:0.03047989"
         d="m 9.1739984,147.68172 c -1.0483638,-0.067 -2.1697676,-0.31236 -3.153078,-0.68985 -1.1967766,-0.45947 -1.8830313,-0.95098 -2.609845,-1.86928 -0.085917,-0.10862 -0.3719756,-0.51284 -0.6356846,-0.89841 -0.6394071,-0.93487 -0.8521594,-1.19783 -1.210926,-1.49668 -0.1151091,-0.0959 -0.1984796,-0.18467 -0.1852683,-0.19731 0.013212,-0.0122 0.1929556,-0.0515 0.3994319,-0.0862 1.8818972,-0.31694 3.9377103,0.0226 5.8014096,0.95842 1.5516751,0.77907 2.743476,1.88694 3.366691,3.12959 0.15638,0.31182 0.377692,0.90185 0.377692,1.00696 0,0.0531 -0.308641,0.0989 -0.975356,0.14483 -0.4640132,0.0318 -0.6500395,0.0315 -1.1750666,-0.002 z m 0.1387499,-1.43434 c 0,-0.059 -0.4907092,-0.54295 -0.7726464,-0.76208 -0.52545,-0.40835 -1.4409055,-0.91078 -2.1839029,-1.19856 -0.2095491,-0.0811 -0.799335,-0.34344 -1.3106355,-0.58283 -0.9065331,-0.42444 -1.2940896,-0.575 -1.5363551,-0.59677 -0.1997118,-0.0179 -0.1620374,0.0534 0.049318,0.0935 0.4023046,0.0761 0.8090346,0.24833 1.2584385,0.53273 0.3562404,0.22546 0.83165,0.4567 1.4182973,0.68987 0.8550655,0.33987 2.3896555,1.24582 2.8472637,1.6809 0.1872308,0.17802 0.2302228,0.20477 0.2302221,0.14326 z"
         id="path37"
         inkscape:connector-curvature="0" />
      <path
         style="opacity:0;fill:#008000;stroke-width:0.03047989"
         d="m 9.1739984,147.68172 c -1.0483638,-0.067 -2.1697676,-0.31236 -3.153078,-0.68985 -1.1967766,-0.45947 -1.8830313,-0.95098 -2.609845,-1.86928 -0.085917,-0.10862 -0.3719756,-0.51284 -0.6356846,-0.89841 -0.6394071,-0.93487 -0.8521594,-1.19783 -1.210926,-1.49668 -0.1151091,-0.0959 -0.1984796,-0.18467 -0.1852683,-0.19731 0.013212,-0.0122 0.1929556,-0.0515 0.3994319,-0.0862 1.8818972,-0.31694 3.9377103,0.0226 5.8014096,0.95842 1.5516751,0.77907 2.743476,1.88694 3.366691,3.12959 0.15638,0.31182 0.377692,0.90185 0.377692,1.00696 0,0.0531 -0.308641,0.0989 -0.975356,0.14483 -0.4640132,0.0318 -0.6500395,0.0315 -1.1750666,-0.002 z m 0.1387499,-1.43434 c 0,-0.059 -0.4907092,-0.54295 -0.7726464,-0.76208 -0.52545,-0.40835 -1.4409055,-0.91078 -2.1839029,-1.19856 -0.2095491,-0.0811 -0.799335,-0.34344 -1.3106355,-0.58283 -0.9065331,-0.42444 -1.2940896,-0.575 -1.5363551,-0.59677 -0.1997118,-0.0179 -0.1620374,0.0534 0.049318,0.0935 0.4023046,0.0761 0.8090346,0.24833 1.2584385,0.53273 0.3562404,0.22546 0.83165,0.4567 1.4182973,0.68987 0.8550655,0.33987 2.3896555,1.24582 2.8472637,1.6809 0.1872308,0.17802 0.2302228,0.20477 0.2302221,0.14326 z"
         id="path39"
         inkscape:connector-curvature="0" />
      <path
         style="opacity:0;fill:#008000;stroke-width:0.03047989"
         d="m 9.1739984,147.68172 c -1.0483638,-0.067 -2.1697676,-0.31236 -3.153078,-0.68985 -1.1967766,-0.45947 -1.8830313,-0.95098 -2.609845,-1.86928 -0.085917,-0.10862 -0.3719756,-0.51284 -0.6356846,-0.89841 -0.6394071,-0.93487 -0.8521594,-1.19783 -1.210926,-1.49668 -0.1151091,-0.0959 -0.1984796,-0.18467 -0.1852683,-0.19731 0.013212,-0.0122 0.1929556,-0.0515 0.3994319,-0.0862 1.8818972,-0.31694 3.9377103,0.0226 5.8014096,0.95842 1.5516751,0.77907 2.743476,1.88694 3.366691,3.12959 0.15638,0.31182 0.377692,0.90185 0.377692,1.00696 0,0.0531 -0.308641,0.0989 -0.975356,0.14483 -0.4640132,0.0318 -0.6500395,0.0315 -1.1750666,-0.002 z m 0.1387499,-1.43434 c 0,-0.059 -0.4907092,-0.54295 -0.7726464,-0.76208 -0.52545,-0.40835 -1.4409055,-0.91078 -2.1839029,-1.19856 -0.2095491,-0.0811 -0.799335,-0.34344 -1.3106355,-0.58283 -0.9065331,-0.42444 -1.2940896,-0.575 -1.5363551,-0.59677 -0.1997118,-0.0179 -0.1620374,0.0534 0.049318,0.0935 0.4023046,0.0761 0.8090346,0.24833 1.2584385,0.53273 0.3562404,0.22546 0.83165,0.4567 1.4182973,0.68987 0.8550655,0.33987 2.3896555,1.24582 2.8472637,1.6809 0.1872308,0.17802 0.2302228,0.20477 0.2302221,0.14326 z"
         id="path41"
         inkscape:connector-curvature="0" />
      <path
         style="opacity:0;fill:#008000;stroke-width:0.00761997"
         d="m 9.4099677,147.70748 c -1.2775507,-0.0543 -2.5937494,-0.35189 -3.7642663,-0.85097 -0.3357818,-0.14309 -0.5987526,-0.27733 -0.8229568,-0.41988 -0.4495971,-0.28586 -0.7805586,-0.564 -1.1131187,-0.93543 -0.2856873,-0.3191 -0.469552,-0.56565 -0.9088306,-1.21869 -0.3947381,-0.58683 -0.5175258,-0.75948 -0.7015042,-0.98635 -0.2297099,-0.28328 -0.4920242,-0.54058 -0.7304518,-0.71648 -0.052824,-0.039 -0.063977,-0.0503 -0.05323,-0.0543 0.032644,-0.0122 0.3227114,-0.0709 0.4844652,-0.098 0.4712093,-0.0795 0.8487475,-0.10984 1.3691354,-0.10984 0.3437147,-4e-5 0.5091009,0.007 0.811527,0.0341 1.628607,0.14675 3.2633176,0.72028 4.6038648,1.61544 0.3362619,0.22453 0.6325401,0.45305 0.9358556,0.72182 0.1381982,0.12238 0.4843287,0.47077 0.6010277,0.60478 0.483267,0.55504 0.83452,1.12629 1.051049,1.70933 0.07365,0.19832 0.183011,0.56776 0.171483,0.57928 -0.0054,0.005 -0.221806,0.0385 -0.394814,0.0604 -0.170854,0.0216 -0.439293,0.0461 -0.632458,0.0578 -0.183886,0.0104 -0.7175758,0.0157 -0.9067769,0.007 z M 9.3099332,146.25011 C 9.2729201,146.17944 9.0012307,145.88995 8.8194195,145.72733 8.3953673,145.34807 7.921094,145.04057 7.1963651,144.675 6.864478,144.50754 6.6460647,144.41 6.3010184,144.27498 c -0.094297,-0.0369 -0.2194225,-0.0858 -0.2780561,-0.1088 -0.1425343,-0.0557 -0.3584692,-0.15458 -0.8112952,-0.37095 -0.2072861,-0.0991 -0.4421716,-0.20984 -0.521968,-0.24614 -0.079797,-0.0362 -0.1940557,-0.091 -0.2539094,-0.1215 -0.1975122,-0.10079 -0.2876254,-0.13613 -0.5769724,-0.22671 -0.1923707,-0.0602 -0.3037583,-0.0862 -0.3981437,-0.093 l -0.070484,-0.005 v 0.0261 0.0261 l 0.1313014,0.0254 c 0.3033711,0.0587 0.4252649,0.0971 0.7543327,0.23815 0.1725845,0.074 0.1874792,0.0822 0.4440515,0.2441 0.51263,0.3236 0.9591747,0.53961 1.7155768,0.82987 0.230195,0.0883 0.3498873,0.14605 0.6999544,0.33711 0.7862711,0.4293 1.5813077,0.93465 1.9088036,1.21329 0.096395,0.082 0.1368369,0.12289 0.1858776,0.18815 l 0.044263,0.0588 0.022217,-0.0122 c 0.019743,-0.0104 0.021232,-0.0139 0.013369,-0.0284 z"
         id="path43"
         inkscape:connector-curvature="0" />
      <path
         sodipodi:nodetypes="ccccc"
         inkscape:connector-curvature="0"
         id="path872"
         d="m 15.167352,129.37086 c -1.174949,3.23645 -1.020162,6.30509 -4.982006,6.73799 0.933726,-2.09486 1.913208,-3.48023 3.269655,-4.70722 -1.946103,1.10587 -2.533288,2.31818 -3.6750363,4.63103 0,0 -2.1564501,-5.17503 5.3873343,-6.66185 z"
         style="fill:#1c8b3c;fill-opacity:1;fill-rule:evenodd;stroke:#1c8b3c;stroke-width:0.03916348;stroke-linecap:butt;stroke-linejoin:miter;stroke-miterlimit:4;stroke-dasharray:none;stroke-opacity:1" />
      <path
         sodipodi:nodetypes="ccccc"
         inkscape:connector-curvature="0"
         id="path872-0"
         d="m 16.108594,142.15184 c -2.275943,1.22099 -3.770704,2.88692 -6.063782,1.52617 1.563696,-0.7209 2.78701,-1.05269 4.126015,-1.15062 -1.585022,-0.20156 -2.514417,0.19689 -4.2987795,0.94842 0,0 1.5300855,-3.56872 6.2365425,-1.324 z"
         style="fill:#1c8b3c;fill-opacity:1;fill-rule:evenodd;stroke:#1c8b3c;stroke-width:0.02710168;stroke-linecap:butt;stroke-linejoin:miter;stroke-miterlimit:4;stroke-dasharray:none;stroke-opacity:1" />
      <path
         sodipodi:nodetypes="ccccc"
         inkscape:connector-curvature="0"
         id="path872-05"
         d="m 2.4675641,138.71432 c 1.405414,1.36423 2.1115069,2.91014 4.1780614,2.33575 -0.9952428,-0.84857 -1.8321475,-1.33777 -2.8147446,-1.67373 1.2428501,0.15893 1.8419374,0.64061 2.9954855,1.55546 0,0 -0.2549497,-2.98416 -4.3588023,-2.21753 z"
         style="fill:#1c8b3c;fill-opacity:1;fill-rule:evenodd;stroke:#1c8b3c;stroke-width:0.02125379;stroke-linecap:butt;stroke-linejoin:miter;stroke-miterlimit:4;stroke-dasharray:none;stroke-opacity:1" />
      <ellipse
         ry="1.3097683"
         rx="1.501372"
         cy="138.1205"
         cx="13.547387"
         id="path1105"
         style="opacity:0.57999998;fill:#0001be;fill-opacity:1;fill-rule:evenodd;stroke:#0885c2;stroke-width:0.01754837;stroke-miterlimit:4;stroke-dasharray:none;stroke-opacity:1" />
      <ellipse
         ry="1.3244612"
         rx="1.4810457"
         cy="136.27246"
         cx="5.673059"
         id="path1105-3"
         style="opacity:0.57999998;fill:#ed0000;fill-opacity:1;fill-rule:evenodd;stroke:#ed334e;stroke-width:0.01752665;stroke-miterlimit:4;stroke-dasharray:none;stroke-opacity:1" />
      <text
         id="text879"
         y="148.72443"
         x="9.1029682"
         style="font-style:normal;font-variant:normal;font-weight:normal;font-stretch:normal;font-size:6.14090252px;line-height:1.25;font-family:Arial;-inkscape-font-specification:'Arial, Normal';font-variant-ligatures:normal;font-variant-caps:normal;font-variant-numeric:normal;text-align:start;letter-spacing:0px;word-spacing:0px;writing-mode:lr-tb;text-anchor:start;fill:#a05a2c;fill-opacity:1;stroke:none;stroke-width:0.46056768"
         xml:space="preserve"><tspan
           style="font-size:5.52681208px;line-height:0.25;fill:#a05a2c;stroke-width:0.46056768"
           y="148.72443"
           x="9.1029682"
           id="tspan877"
           sodipodi:role="line">ESHDEI</tspan></text>
      <path
         inkscape:connector-curvature="0"
         id="path883"
         d="m 14.113004,148.57419 c -0.434466,-0.11696 -0.733624,-0.34888 -0.893807,-0.69292 -0.174802,-0.37544 -0.176968,-0.48206 -0.0107,-0.52662 0.24869,-0.0666 0.334384,-0.0425 0.334611,0.0942 5.99e-4,0.36585 0.430651,0.69914 1.003402,0.77764 0.351765,0.0482 0.87083,-0.1064 1.028006,-0.30622 0.154939,-0.19697 0.157642,-0.53889 0.0058,-0.73194 -0.135749,-0.17258 -0.254039,-0.22193 -1.018699,-0.42502 -0.817232,-0.21706 -1.05971,-0.35224 -1.233057,-0.68746 -0.111864,-0.21632 -0.110012,-0.61782 0.0039,-0.83803 0.214508,-0.41482 0.645738,-0.61052 1.332378,-0.60466 0.712295,0.006 1.244337,0.36971 1.355714,0.92659 0.03726,0.18633 0.03554,0.18803 -0.187742,0.18595 -0.206676,-0.002 -0.234992,-0.0223 -0.341663,-0.24619 -0.163403,-0.3429 -0.391331,-0.45802 -0.903649,-0.4564 -0.625403,0.002 -0.974919,0.26288 -0.899983,0.6718 0.05983,0.3265 0.15938,0.37854 1.291662,0.67512 0.790369,0.20703 1.182406,0.56642 1.17948,1.08128 -0.0049,0.85746 -0.988103,1.38757 -2.045608,1.10288 z"
         style="fill:#ffff00;fill-opacity:0;stroke:none;stroke-width:0.05815545" />
      <ellipse
         ry="1.3244612"
         rx="1.4810457"
         cy="143.14151"
         cx="5.3135118"
         id="path1105-3-9"
         style="opacity:0.57999998;fill:#ffd42a;fill-opacity:1;fill-rule:evenodd;stroke:#ffd42a;stroke-width:0.01752665;stroke-miterlimit:4;stroke-dasharray:none;stroke-opacity:1" />
    </g>
  </g>
</svg>
