<?xml version="1.0" encoding="UTF-8" standalone="no"?>
<!-- Created with Inkscape (http://www.inkscape.org/) -->

<svg
   xmlns:dc="http://purl.org/dc/elements/1.1/"
   xmlns:cc="http://creativecommons.org/ns#"
   xmlns:rdf="http://www.w3.org/1999/02/22-rdf-syntax-ns#"
   xmlns:svg="http://www.w3.org/2000/svg"
   xmlns="http://www.w3.org/2000/svg"
   xmlns:sodipodi="http://sodipodi.sourceforge.net/DTD/sodipodi-0.dtd"
   xmlns:inkscape="http://www.inkscape.org/namespaces/inkscape"
   width="33.560551mm"
   height="39.15918mm"
   viewBox="0 0 33.56055 39.15918"
   version="1.1"
   id="svg1114"
   inkscape:version="0.92.2 (5c3e80d, 2017-08-06)"
   sodipodi:docname="logo.svg">
  <defs
     id="defs1108" />
  <sodipodi:namedview
     id="base"
     pagecolor="#ffffff"
     bordercolor="#666666"
     borderopacity="1.0"
     inkscape:pageopacity="0.0"
     inkscape:pageshadow="2"
     inkscape:zoom="4"
     inkscape:cx="79.860272"
     inkscape:cy="99.422594"
     inkscape:document-units="mm"
     inkscape:current-layer="layer1"
     showgrid="false"
     inkscape:window-width="1324"
     inkscape:window-height="1008"
     inkscape:window-x="587"
     inkscape:window-y="0"
     inkscape:window-maximized="0"
     objecttolerance="10000" />
  <metadata
     id="metadata1111">
    <rdf:RDF>
      <cc:Work
         rdf:about="">
        <dc:format>image/svg+xml</dc:format>
        <dc:type
           rdf:resource="http://purl.org/dc/dcmitype/StillImage" />
        <dc:title></dc:title>
      </cc:Work>
    </rdf:RDF>
  </metadata>
  <g
     inkscape:label="Capa 1"
     inkscape:groupmode="layer"
     id="layer1"
     transform="translate(-79.890156,-87.53296)">
    <g
       id="g1840"
       transform="matrix(2,0,0,2,-96.670432,-107.11256)">
      <path
         id="path1260"
         d="m 98.762044,106.59991 v 0 l 0.42315,-0.0651 0.24413,-0.0651 0.27668,-0.0814 0.11393,-0.0163 0.16275,0.0163 0.683556,0.11393 v 0 l 0.21158,0.0651 0.29296,0.1302 0.40688,0.16275 v 0 l 0.1302,-0.0326 0.0976,-0.0488 0.0976,-0.0651 0.0651,-0.0814 0.0488,-0.0976 0.0488,-0.0976 0.0326,-0.11393 0.0163,-0.1302 0.0163,-0.26041 v -0.2604 l -0.0163,-0.47199 v 0 h 0.16276 l 0.16275,-0.0326 0.16275,-0.0325 0.16275,-0.0326 0.16276,-0.0651 0.14647,-0.0651 0.14648,-0.0814 0.14648,-0.0814 0.1302,-0.11393 0.1302,-0.11393 0.0976,-0.1302 0.0976,-0.1302 0.0814,-0.14648 0.0488,-0.16275 0.0325,-0.16275 0.0163,-0.19531 v 0 -0.11393 l -0.0163,-0.0976 -0.0651,-0.17903 -0.0814,-0.17902 -0.0976,-0.19531 -0.0814,-0.22785 -0.0488,-0.14648 -0.0326,-0.14648 -0.0163,-0.17902 -0.0163,-0.21158 -0.0163,-0.24413 0.0163,-0.26041 v 0 l -0.0163,-0.1302 -0.0326,-0.14647 -0.0488,-0.16276 -0.0814,-0.17903 -0.11392,-0.16275 -0.11393,-0.14648 -0.16275,-0.11392 -0.0814,-0.0651 -0.0976,-0.0326 v 0 l -0.16276,-0.0325 -0.11392,-0.0326 -0.1302,-0.0488 -0.0488,-0.0326 -0.0488,-0.0488 -0.0488,-0.0651 -0.0326,-0.0814 -0.0163,-0.0814 v -0.0976 l 0.0163,-0.13021 0.0326,-0.1302 v 0 l 0.0488,-0.11393 0.0651,-0.11392 0.0651,-0.0977 0.0814,-0.11393 0.0488,-0.1302 0.0325,-0.14648 0.0163,-0.0814 -0.0163,-0.0814 -0.0163,-0.0977 -0.0326,-0.11392 v 0 l -0.16276,-0.0325 -0.1302,-0.0163 -0.11393,-0.0163 -0.0814,0.0163 -0.14647,0.0326 -0.13021,0.0488 -0.16275,0.0488 h -0.0976 l -0.11392,0.0163 -0.16275,-0.0163 -0.17903,-0.0325 -0.22785,-0.0326 -0.27668,-0.0651 v 0 l -0.29296,-0.0976 -0.21158,-0.0651 -0.146466,-0.0814 -0.0976,-0.0651 -0.0651,-0.0488 -0.0488,-0.0488 -0.0488,-0.0488 -0.0326,-0.0163 v 0 l -0.13021,-0.0326 -0.14648,-0.0163 h -0.1302 l -0.14647,0.0325 -0.14648,0.0326 -0.1302,0.0488 -0.13021,0.0814 -0.1302,0.0651 -0.11393,0.0976 -0.11392,0.0814 -0.11393,0.0977 -0.0814,0.0976 -0.0814,0.11393 -0.0488,0.0976 -0.0488,0.0977 -0.0326,0.0976 v 0 l -0.0976,-0.0976 -0.0488,-0.0814 -0.0488,-0.0651 -0.0163,-0.0488 -0.0163,-0.0814 -0.0163,-0.0488 h -0.0163 l -0.0326,-0.0163 -0.11392,-0.0163 h -0.63474 v 0 l -0.0651,-0.0163 -0.0651,-0.0163 -0.11393,-0.0651 -0.11392,-0.0976 -0.11393,-0.11393 -0.21158,-0.2604 -0.0976,-0.14648 -0.1302,-0.1302 -0.13021,-0.11393 -0.14647,-0.0976 -0.0977,-0.0326 -0.0814,-0.0325 -0.0976,-0.0163 -0.0977,-0.0163 h -0.11392 l -0.11393,0.0163 -0.11393,0.0325 -0.1302,0.0326 -0.14648,0.0651 -0.14647,0.0651 -0.14648,0.0976 -0.17903,0.0976 v 0 l -0.22785,0.14648 -0.24413,0.1302 -0.24413,0.16275 -0.11393,0.0814 -0.0814,0.0814 -0.0651,0.0977 -0.0488,0.0976 -0.0163,0.11393 0.0163,0.11392 0.0651,0.13021 0.11393,0.14647 0.14647,0.14648 0.19531,0.16275 v 0 l 0.0325,0.0488 0.0326,0.0488 0.0488,0.14647 v 0.17903 l -0.0163,0.0814 -0.0163,0.0814 -0.0488,0.0651 -0.0488,0.0488 -0.0651,0.0163 h -0.0814 l -0.0977,-0.0163 -0.11392,-0.0651 -0.14648,-0.11393 -0.14648,-0.1302 v 0 l -0.0976,-0.0814 -0.0814,-0.0651 -0.11393,-0.0651 -0.0976,-0.0326 -0.22785,-0.0651 -0.21158,-0.0325 v 0 l -0.2604,0.24413 -0.21158,0.16275 -0.13021,0.1302 v 0 l -0.14647,0.14648 -0.13021,0.11393 -0.1302,0.0814 -0.11392,0.0651 -0.13021,0.0326 -0.1302,0.0325 -0.2604,0.0326 -0.14648,0.0325 -0.14648,0.0488 -0.16275,0.0814 -0.17903,0.0977 -0.17903,0.1302 -0.21158,0.17903 -0.21157,0.22786 -0.24413,0.27668 v 0 l -0.14648,0.14647 -0.16275,0.11393 v 0 l -0.0814,0.0814 -0.14648,0.1302 -0.24413,0.1953 v 0 l 0.22786,-0.0488 0.22785,-0.0488 0.1953,-0.0163 h 0.0977 l 0.0814,0.0163 0.0814,0.0163 0.0651,0.0488 0.0488,0.0488 0.0488,0.0651 0.0325,0.0814 0.0326,0.0976 0.0163,0.1302 -0.0163,0.1302 v 0 l -0.0163,0.0651 -0.0488,0.0814 -0.0814,0.0814 -0.0814,0.11392 -0.0814,0.14648 -0.0651,0.1953 -0.0163,0.11393 -0.0163,0.11393 -0.0163,0.1302 v 0.16275 0 l -0.0163,0.0325 -0.0325,0.0651 -0.0977,0.11393 -0.11393,0.11393 -0.0488,0.0651 -0.0326,0.0488 v 0 l -0.0977,0.0976 -0.0488,0.0977 -0.0326,0.0976 0.0163,0.0977 0.0488,0.0977 0.0651,0.0976 0.0814,0.11392 0.0976,0.0977 0.22785,0.21157 0.24413,0.21158 0.22785,0.24413 0.0977,0.11393 0.0814,0.1302 v 0 l 0.0163,0.0163 0.0488,0.0163 0.14648,0.0326 0.42316,0.0163 0.27668,0.0163 0.2604,0.0326 0.27668,0.0488 0.1302,0.0326 0.11393,0.0325 v 0 l 0.26041,0.0651 0.21158,0.0488 0.21157,0.0163 0.19531,0.0163 0.1953,-0.0163 0.0651,-0.0163 0.0651,-0.0163 0.0488,-0.0326 0.0326,-0.0488 0.0651,-0.0488 v 0 l 0.16275,-0.0814 0.14648,-0.11393 0.29295,-0.1953 0.27669,-0.19531 0.11392,-0.0814 0.1302,-0.0814 0.13021,-0.0488 0.1302,-0.0325 0.11393,-0.0163 0.1302,0.0163 0.1302,0.0488 0.1302,0.0651 0.1302,0.11393 0.13021,0.14648 v 0 l 0.1953,0.21158 0.17903,0.14647 0.16275,0.0977 0.16275,0.0488 0.14648,0.0163 h 0.1302 l 0.13021,-0.0488 0.11392,-0.0488 0.22786,-0.11392 0.11392,-0.0488 0.0977,-0.0488 0.0977,-0.0163 h 0.0976 l 0.11393,0.0488 0.0976,0.0814 v 0 l 0.0977,-0.0163 0.22786,-0.0488 0.29295,-0.0488 h 0.1302 0.1302 v 0 l 0.0651,0.0163 0.0814,0.0488 0.0651,0.0651 0.0651,0.0814 0.11393,0.17903 0.11393,0.19531 0.11393,0.16275 0.0651,0.0488 0.0651,0.0326 h 0.0488 l 0.0814,-0.0163 0.0651,-0.0651 0.0651,-0.0976 v 0 l -0.0163,-0.0488 v -0.0163 z"
         style="fill:#b7c72c;fill-opacity:1;fill-rule:evenodd;stroke:none;stroke-width:0.04882585"
         inkscape:connector-curvature="0" />
      <path
         id="path1262"
         d="m 98.762044,106.59991 v 0 l 0.42315,-0.0651 0.24413,-0.0651 0.27668,-0.0814 0.11393,-0.0163 0.16275,0.0163 0.683556,0.11393 v 0 l 0.21158,0.0651 0.29296,0.1302 0.40688,0.16275 v 0 l 0.1302,-0.0326 0.0976,-0.0488 0.0976,-0.0651 0.0651,-0.0814 0.0488,-0.0976 0.0488,-0.0976 0.0326,-0.11393 0.0163,-0.1302 0.0163,-0.26041 v -0.2604 l -0.0163,-0.47199 v 0 h 0.16276 l 0.16275,-0.0326 0.16275,-0.0325 0.16275,-0.0326 0.16276,-0.0651 0.14647,-0.0651 0.14648,-0.0814 0.14648,-0.0814 0.1302,-0.11393 0.1302,-0.11393 0.0976,-0.1302 0.0976,-0.1302 0.0814,-0.14648 0.0488,-0.16275 0.0325,-0.16275 0.0163,-0.19531 v 0 -0.11393 l -0.0163,-0.0976 -0.0651,-0.17903 -0.0814,-0.17902 -0.0976,-0.19531 -0.0814,-0.22785 -0.0488,-0.14648 -0.0326,-0.14648 -0.0163,-0.17902 -0.0163,-0.21158 -0.0163,-0.24413 0.0163,-0.26041 v 0 l -0.0163,-0.1302 -0.0326,-0.14647 -0.0488,-0.16276 -0.0814,-0.17903 -0.11392,-0.16275 -0.11393,-0.14648 -0.16275,-0.11392 -0.0814,-0.0651 -0.0976,-0.0326 v 0 l -0.16276,-0.0325 -0.11392,-0.0326 -0.1302,-0.0488 -0.0488,-0.0326 -0.0488,-0.0488 -0.0488,-0.0651 -0.0326,-0.0814 -0.0163,-0.0814 v -0.0976 l 0.0163,-0.13021 0.0326,-0.1302 v 0 l 0.0488,-0.11393 0.0651,-0.11392 0.0651,-0.0977 0.0814,-0.11393 0.0488,-0.1302 0.0325,-0.14648 0.0163,-0.0814 -0.0163,-0.0814 -0.0163,-0.0977 -0.0326,-0.11392 v 0 l -0.16276,-0.0325 -0.1302,-0.0163 -0.11393,-0.0163 -0.0814,0.0163 -0.14647,0.0326 -0.13021,0.0488 -0.16275,0.0488 h -0.0976 l -0.11392,0.0163 -0.16275,-0.0163 -0.17903,-0.0325 -0.22785,-0.0326 -0.27668,-0.0651 v 0 l -0.29296,-0.0976 -0.21158,-0.0651 -0.146466,-0.0814 -0.0976,-0.0651 -0.0651,-0.0488 -0.0488,-0.0488 -0.0488,-0.0488 -0.0326,-0.0163 v 0 l -0.13021,-0.0326 -0.14648,-0.0163 h -0.1302 l -0.14647,0.0325 -0.14648,0.0326 -0.1302,0.0488 -0.13021,0.0814 -0.1302,0.0651 -0.11393,0.0976 -0.11392,0.0814 -0.11393,0.0977 -0.0814,0.0976 -0.0814,0.11393 -0.0488,0.0976 -0.0488,0.0977 -0.0326,0.0976 v 0 l -0.0976,-0.0976 -0.0488,-0.0814 -0.0488,-0.0651 -0.0163,-0.0488 -0.0163,-0.0814 -0.0163,-0.0488 h -0.0163 l -0.0326,-0.0163 -0.11392,-0.0163 h -0.63474 v 0 l -0.0651,-0.0163 -0.0651,-0.0163 -0.11393,-0.0651 -0.11392,-0.0976 -0.11393,-0.11393 -0.21158,-0.2604 -0.0976,-0.14648 -0.1302,-0.1302 -0.13021,-0.11393 -0.14647,-0.0976 -0.0977,-0.0326 -0.0814,-0.0325 -0.0976,-0.0163 -0.0977,-0.0163 h -0.11392 l -0.11393,0.0163 -0.11393,0.0325 -0.1302,0.0326 -0.14648,0.0651 -0.14647,0.0651 -0.14648,0.0976 -0.17903,0.0976 v 0 l -0.22785,0.14648 -0.24413,0.1302 -0.24413,0.16275 -0.11393,0.0814 -0.0814,0.0814 -0.0651,0.0977 -0.0488,0.0976 -0.0163,0.11393 0.0163,0.11392 0.0651,0.13021 0.11393,0.14647 0.14647,0.14648 0.19531,0.16275 v 0 l 0.0325,0.0488 0.0326,0.0488 0.0488,0.14647 v 0.17903 l -0.0163,0.0814 -0.0163,0.0814 -0.0488,0.0651 -0.0488,0.0488 -0.0651,0.0163 h -0.0814 l -0.0977,-0.0163 -0.11392,-0.0651 -0.14648,-0.11393 -0.14648,-0.1302 v 0 l -0.0976,-0.0814 -0.0814,-0.0651 -0.11393,-0.0651 -0.0976,-0.0326 -0.22785,-0.0651 -0.21158,-0.0325 v 0 l -0.2604,0.24413 -0.21158,0.16275 -0.13021,0.1302 v 0 l -0.14647,0.14648 -0.13021,0.11393 -0.1302,0.0814 -0.11392,0.0651 -0.13021,0.0326 -0.1302,0.0325 -0.2604,0.0326 -0.14648,0.0325 -0.14648,0.0488 -0.16275,0.0814 -0.17903,0.0977 -0.17903,0.1302 -0.21158,0.17903 -0.21157,0.22786 -0.24413,0.27668 v 0 l -0.14648,0.14647 -0.16275,0.11393 v 0 l -0.0814,0.0814 -0.14648,0.1302 -0.24413,0.1953 v 0 l 0.22786,-0.0488 0.22785,-0.0488 0.1953,-0.0163 h 0.0977 l 0.0814,0.0163 0.0814,0.0163 0.0651,0.0488 0.0488,0.0488 0.0488,0.0651 0.0325,0.0814 0.0326,0.0976 0.0163,0.1302 -0.0163,0.1302 v 0 l -0.0163,0.0651 -0.0488,0.0814 -0.0814,0.0814 -0.0814,0.11392 -0.0814,0.14648 -0.0651,0.1953 -0.0163,0.11393 -0.0163,0.11393 -0.0163,0.1302 v 0.16275 0 l -0.0163,0.0325 -0.0325,0.0651 -0.0977,0.11393 -0.11393,0.11393 -0.0488,0.0651 -0.0326,0.0488 v 0 l -0.0977,0.0976 -0.0488,0.0977 -0.0326,0.0976 0.0163,0.0977 0.0488,0.0977 0.0651,0.0976 0.0814,0.11392 0.0976,0.0977 0.22785,0.21157 0.24413,0.21158 0.22785,0.24413 0.0977,0.11393 0.0814,0.1302 v 0 l 0.0163,0.0163 0.0488,0.0163 0.14648,0.0326 0.42316,0.0163 0.27668,0.0163 0.2604,0.0326 0.27668,0.0488 0.1302,0.0326 0.11393,0.0325 v 0 l 0.26041,0.0651 0.21158,0.0488 0.21157,0.0163 0.19531,0.0163 0.1953,-0.0163 0.0651,-0.0163 0.0651,-0.0163 0.0488,-0.0326 0.0326,-0.0488 0.0651,-0.0488 v 0 l 0.16275,-0.0814 0.14648,-0.11393 0.29295,-0.1953 0.27669,-0.19531 0.11392,-0.0814 0.1302,-0.0814 0.13021,-0.0488 0.1302,-0.0325 0.11393,-0.0163 0.1302,0.0163 0.1302,0.0488 0.1302,0.0651 0.1302,0.11393 0.13021,0.14648 v 0 l 0.1953,0.21158 0.17903,0.14647 0.16275,0.0977 0.16275,0.0488 0.14648,0.0163 h 0.1302 l 0.13021,-0.0488 0.11392,-0.0488 0.22786,-0.11392 0.11392,-0.0488 0.0977,-0.0488 0.0977,-0.0163 h 0.0976 l 0.11393,0.0488 0.0976,0.0814 v 0 l 0.0977,-0.0163 0.22786,-0.0488 0.29295,-0.0488 h 0.1302 0.1302 v 0 l 0.0651,0.0163 0.0814,0.0488 0.0651,0.0651 0.0651,0.0814 0.11393,0.17903 0.11393,0.19531 0.11393,0.16275 0.0651,0.0488 0.0651,0.0326 h 0.0488 l 0.0814,-0.0163 0.0651,-0.0651 0.0651,-0.0976 v 0 l -0.0163,-0.0488 v -0.0163 h -0.0326"
         style="fill:none;stroke:none;stroke-width:0.04882585"
         inkscape:connector-curvature="0" />
      <path
         id="path1264"
         d="m 97.199614,101.61967 v 0 l -0.0976,0.0977 -0.0814,0.13021 -0.0814,0.14647 -0.0651,0.13021 v 0 l -0.1302,0.0163 h -0.14648 -0.29295 -0.30923 l -0.30923,0.0163 h -0.16276 l -0.16275,0.0326 -0.14648,0.0488 -0.16275,0.0488 -0.16275,0.0814 -0.14648,0.0977 -0.14648,0.11392 -0.14648,0.14648 v 0 l -0.29295,0.32551 -0.11393,0.1302 -0.0326,0.0651 -0.0163,0.0488 v 0.0488 l 0.0326,0.0326 0.0488,0.0163 0.0651,0.0326 0.11392,0.0163 h 0.1302 l 0.35806,-0.0163 v 0 l 0.32551,-0.16276 0.24413,-0.11392 0.24412,-0.0977 0.13021,-0.0325 0.11392,-0.0163 0.0977,-0.0163 0.0976,0.0163 0.0814,0.0326 0.0488,0.0651 0.0326,0.0976 v 0.11393 0 l -0.0163,0.0651 -0.0488,0.0651 -0.11393,0.11393 -0.0651,0.0651 -0.0488,0.0814 -0.0488,0.0976 -0.0163,0.1302 v 0 l 0.26041,-0.0163 0.16275,-0.0163 0.1302,-0.0488 0.0814,-0.0651 0.21158,-0.19531 0.16275,-0.14648 0.24413,-0.16275 v 0 l 0.14648,-0.11392 0.11393,-0.0814 0.1953,-0.0814 0.0651,-0.0651 0.0651,-0.0976 0.0488,-0.14648 0.0326,-0.22785 v 0 l 0.0325,-0.0814 0.0163,-0.0488 0.0488,-0.0488 0.0488,-0.0488 0.0976,-0.0488 0.0814,-0.0651 0.0326,-0.0326 0.0326,-0.0326 v -0.0651 -0.0488 l -0.0326,-0.0814 -0.0488,-0.0977 -0.0814,-0.11393 -0.0976,-0.14647 v 0 l -0.0814,-0.11393 -0.0163,-0.0488 v -0.0488 l 0.0163,-0.0325 0.0163,-0.0326 0.0814,-0.0488 0.0977,-0.0326 0.14648,-0.0163 0.32551,-0.0163 0.37433,-0.0163 h 0.17903 l 0.16275,-0.0163 0.14648,-0.0325 0.11393,-0.0488 0.0488,-0.0325 0.0326,-0.0326 0.0326,-0.0325 0.0163,-0.0488 v 0 l -0.0814,-0.0488 -0.0976,-0.0163 -0.11393,-0.0163 h -0.1302 l -0.30923,0.0163 -0.32551,0.0326 -0.3255,0.0163 h -0.16275 l -0.14648,-0.0326 -0.14648,-0.0325 -0.11393,-0.0488 -0.11392,-0.0814 -0.0814,-0.0977 v 0 l -0.0488,-0.0651 -0.0651,-0.0326 -0.0488,-0.0163 -0.0651,0.0163 -0.0651,0.0326 -0.0651,0.0488 -0.14647,0.11393 -0.17903,0.11392 -0.0814,0.0488 -0.0976,0.0326 -0.0976,0.0163 h -0.11393 l -0.11392,-0.0325 -0.13021,-0.0651 v 0 l -0.0488,-0.0163 h -0.0488 -0.0976 -0.0976 l -0.0326,-0.0163 -0.0326,-0.0163 v 0 h -0.0488 l -0.0488,0.0163 -0.0814,0.0488 -0.0651,0.0814 -0.0651,0.0814 -0.0814,0.0814 -0.0976,0.0651 -0.0651,0.0326 -0.0814,0.0325 h -0.0976 l -0.0976,0.0163 v 0 l -0.0163,-0.0326 -0.0163,-0.0651 0.0163,-0.16275 0.0488,-0.1953 0.0488,-0.0977 0.0326,-0.0814 0.0651,-0.0814 0.0651,-0.0814 0.0651,-0.0488 0.0651,-0.0325 h 0.0976 l 0.0814,0.0325 0.0976,0.0488 0.11393,0.0976 v 0 l 0.0325,0.0326 h 0.0163 0.0163 v 0 l 0.0163,-0.0488 v -0.0651 l -0.0163,-0.11393 -0.0163,-0.0977 v -0.0814 0 l 0.0814,-0.0163 0.0651,0.0163 0.0488,0.0163 0.0488,0.0326 0.0326,0.0488 0.0326,0.0488 0.0325,0.11393 0.0488,0.1302 0.0488,0.11393 0.0326,0.0326 0.0488,0.0488 0.0488,0.0163 h 0.0814 v 0 l 0.0326,-0.0977 0.0326,-0.0976 v -0.0651 -0.0488 l -0.0163,-0.0488 -0.0163,-0.0326 0.0163,-0.0163 0.0814,-0.0326 0.48826,-0.260406 v 0 l 0.0651,-0.0488 0.0488,-0.0814 0.0163,-0.0814 0.0163,-0.0977 -0.0163,-0.21157 -0.0163,-0.19531 -0.0163,-0.0814 0.0163,-0.0651 0.0163,-0.0326 0.0326,-0.0163 h 0.0651 l 0.0977,0.0488 0.11393,0.0814 0.16275,0.11393 v 0 l 0.0325,0.0651 0.0163,0.1302 0.0163,0.16275 0.0326,0.16276 0.0326,0.14647 0.0325,0.0326 0.0326,0.0325 h 0.0488 l 0.0488,-0.0325 0.0651,-0.0651 0.0651,-0.0976 v 0 l 0.0325,-0.1302 0.0488,-0.11393 0.0651,-0.11392 0.0651,-0.0814 0.0814,-0.0651 0.0977,-0.0488 0.0814,-0.0488 0.0976,-0.0326 0.11393,-0.0163 h 0.0976 l 0.21158,0.0163 0.21158,0.0488 0.1953,0.0814 0.16275,0.0814 0.14648,0.11393 0.0976,0.11393 0.0163,0.0488 0.0163,0.0488 v 0.0488 l -0.0163,0.0488 -0.0326,0.0325 -0.0651,0.0488 -0.0651,0.0163 -0.0976,0.0326 -0.1302,0.0163 h -0.14648 v 0 l -0.30923,-0.0163 -0.27668,-0.0326 -0.22785,-0.0325 v 0 l -0.1302,0.0488 v 0 l 0.0163,0.0814 0.0163,0.0814 0.0488,0.0488 0.0488,0.0651 0.0651,0.0326 0.0651,0.0325 0.0814,0.0326 h 0.0814 0.1953 l 0.19531,-0.0326 0.1953,-0.0488 0.1953,-0.0814 v 0 l 0.14648,-0.0651 0.11393,-0.0325 0.11392,-0.0163 0.0976,0.0163 0.0814,0.0163 0.0651,0.0488 0.0651,0.0488 0.0488,0.0651 0.0651,0.13021 0.0488,0.1302 0.0326,0.14648 v 0 l 0.0163,-0.0977 0.0163,-0.0814 -0.0163,-0.16276 -0.0326,-0.1302 -0.0651,-0.1302 -0.14647,-0.276656 -0.0814,-0.16275 -0.0651,-0.19531 v 0 l 0.0488,-0.0163 h 0.0488 l 0.0976,0.0163 0.0976,0.0488 0.0814,0.0814 0.0814,0.0977 0.0814,0.11392 0.1302,0.244106 0.1302,0.21158 0.0488,0.0814 0.0651,0.0651 0.0488,0.0326 h 0.0326 0.0163 l 0.0488,-0.0488 0.0488,-0.11392 v 0 -0.14648 -0.146456 l -0.0325,-0.2604 v 0 l 0.17903,-0.11393 0.35806,-0.24413 0.16275,-0.1302 0.0976,-0.11393 0.0326,-0.0488 v -0.0326 l -0.0326,-0.0163 h -0.0651 v 0 l -0.0651,0.0163 -0.0488,0.0326 -0.0976,0.0651 -0.0651,0.0488 -0.11393,0.0326 -0.16275,0.0163 h -0.22786 v 0 l -0.0977,-0.1302 -0.16275,-0.21158 -0.1302,-0.22785 -0.0651,-0.13021 v 0 h -0.22785 l -0.13021,0.0163 -0.0814,0.0326 -0.0326,0.0488 -0.0163,0.0977 -0.0488,0.0651 -0.0814,0.0651 v 0 l -0.0488,-0.0488 -0.0488,-0.0814 -0.1302,-0.21158 -0.0651,-0.0977 -0.0325,-0.0325 -0.0326,-0.0163 h -0.0488 -0.0326 l -0.0325,0.0326 -0.0326,0.0488 v 0 l -0.0976,0.0163 -0.11393,0.0325 -0.21158,0.11393 -0.42315,0.26041 -0.22786,0.0976 -0.0976,0.0488 -0.11392,0.0163 h -0.11391 l -0.0976,-0.0163 -0.11393,-0.0325 -0.11393,-0.0814 v 0 l -0.11392,-0.0651 -0.11393,-0.0488 -0.0976,-0.0163 -0.0814,0.0163 -0.0651,0.0325 -0.0814,0.0326 -0.1302,0.0976 -0.0651,0.0326 -0.0651,0.0325 -0.0651,0.0163 -0.0977,-0.0163 -0.0814,-0.0325 -0.11393,-0.0651 -0.11392,-0.11393 -0.13021,-0.16275 v 0 l -0.34178,0.0814 -0.3255,0.0651 -0.37434,0.0651 -0.34178,0.0488 h -0.1302 l -0.1302,-0.0163 -0.0814,-0.0163 -0.0163,-0.0326 -0.0163,-0.0163 v -0.0325 l 0.0163,-0.0326 0.0651,-0.0976 v 0 l 0.0326,-0.0163 h 0.0651 l 0.16275,-0.0163 0.16276,0.0163 0.11392,0.0325 v 0 l 0.0651,0.0325 0.0651,0.0163 h 0.0488 l 0.0488,-0.0163 0.0976,-0.0325 0.0977,-0.0814 0.17903,-0.17902 0.0977,-0.0977 0.11393,-0.0977 v 0 l -0.17903,-0.0325 -0.24413,-0.0326 -0.30923,-0.0163 -0.32551,0.0163 -0.3255,0.0326 -0.32551,0.0488 -0.14647,0.0488 -0.13021,0.0488 -0.11392,0.0488 -0.0977,0.0651 v 0 l -0.0488,0.0325 -0.0163,0.0488 -0.0163,0.0325 v 0.0488 l 0.0163,0.11393 0.0488,0.11392 0.0651,0.11393 0.0814,0.1302 0.17903,0.27668 0.0976,0.14648 0.0651,0.1302 0.0488,0.13021 0.0163,0.1302 v 0.0488 l -0.0163,0.0651 -0.0326,0.0488 -0.0326,0.0488 -0.0488,0.0488 -0.0651,0.0488 -0.0814,0.0488 -0.0977,0.0325 v 0 l -0.14648,0.0325 -0.11393,0.0326 -0.16275,0.0163 h -0.11393 -0.0814 l -0.0326,0.0163 -0.0326,0.0163 -0.0977,0.11393 -0.35805,0.5208 v 0 l -0.0488,0.0488 -0.0326,0.0326 h -0.0326 -0.0325 l -0.0488,-0.0814 -0.0814,-0.0977 -0.0814,-0.1302 -0.0651,-0.0651 -0.0651,-0.0488 -0.0814,-0.0488 -0.0977,-0.0488 -0.0976,-0.0163 -0.1302,-0.0163 v 0 l 0.0163,0.0325 0.0163,0.0488 0.0814,0.11393 0.0976,0.1302 0.0814,0.14648 0.0326,0.0814 v 0.0814 0.0651 l -0.0488,0.0651 -0.0651,0.0651 -0.0976,0.0488 -0.1302,0.0488 -0.17903,0.0326 v 0 l -0.0326,0.0163 v 0.0325 0.11393 0 l 0.1302,-0.0163 h 0.11393 l 0.16275,0.0325 0.19531,0.0651 h 0.0326 0.0488 l 0.13021,-0.0325 0.1953,-0.11392 0.29295,-0.19531 v 0 l 0.16276,-0.0976 0.16275,-0.0651 0.1302,-0.0326 h 0.1302 l 0.13021,0.0163 0.1302,0.0163 0.22785,0.0814 0.22786,0.0814 0.1302,0.0326 0.1302,0.0163 h 0.1302 l 0.14648,-0.0326 0.14648,-0.0488 0.17903,-0.0977 v 0 l 0.0651,-0.0325 0.0814,-0.0163 0.0977,-0.0163 h 0.0814 l 0.21158,0.0163 0.22786,0.0488 0.50453,0.1302 0.27668,0.0488 0.29295,0.0488 v 0 l 0.0488,0.0163 0.0651,0.0325 0.0325,0.0488 z"
         style="fill:#009045;fill-opacity:1;fill-rule:evenodd;stroke:none;stroke-width:0.04882585"
         inkscape:connector-curvature="0" />
      <path
         id="path1266"
         d="m 97.199614,101.61967 v 0 l -0.0976,0.0977 -0.0814,0.13021 -0.0814,0.14647 -0.0651,0.13021 v 0 l -0.1302,0.0163 h -0.14648 -0.29295 -0.30923 l -0.30923,0.0163 h -0.16276 l -0.16275,0.0326 -0.14648,0.0488 -0.16275,0.0488 -0.16275,0.0814 -0.14648,0.0977 -0.14648,0.11392 -0.14648,0.14648 v 0 l -0.29295,0.32551 -0.11393,0.1302 -0.0326,0.0651 -0.0163,0.0488 v 0.0488 l 0.0326,0.0326 0.0488,0.0163 0.0651,0.0326 0.11392,0.0163 h 0.1302 l 0.35806,-0.0163 v 0 l 0.32551,-0.16276 0.24413,-0.11392 0.24412,-0.0977 0.13021,-0.0325 0.11392,-0.0163 0.0977,-0.0163 0.0976,0.0163 0.0814,0.0326 0.0488,0.0651 0.0326,0.0976 v 0.11393 0 l -0.0163,0.0651 -0.0488,0.0651 -0.11393,0.11393 -0.0651,0.0651 -0.0488,0.0814 -0.0488,0.0976 -0.0163,0.1302 v 0 l 0.26041,-0.0163 0.16275,-0.0163 0.1302,-0.0488 0.0814,-0.0651 0.21158,-0.19531 0.16275,-0.14648 0.24413,-0.16275 v 0 l 0.14648,-0.11392 0.11393,-0.0814 0.1953,-0.0814 0.0651,-0.0651 0.0651,-0.0976 0.0488,-0.14648 0.0326,-0.22785 v 0 l 0.0325,-0.0814 0.0163,-0.0488 0.0488,-0.0488 0.0488,-0.0488 0.0976,-0.0488 0.0814,-0.0651 0.0326,-0.0326 0.0326,-0.0326 v -0.0651 -0.0488 l -0.0326,-0.0814 -0.0488,-0.0977 -0.0814,-0.11393 -0.0976,-0.14647 v 0 l -0.0814,-0.11393 -0.0163,-0.0488 v -0.0488 l 0.0163,-0.0325 0.0163,-0.0326 0.0814,-0.0488 0.0977,-0.0326 0.14648,-0.0163 0.32551,-0.0163 0.37433,-0.0163 h 0.17903 l 0.16275,-0.0163 0.14648,-0.0325 0.11393,-0.0488 0.0488,-0.0325 0.0326,-0.0326 0.0326,-0.0325 0.0163,-0.0488 v 0 l -0.0814,-0.0488 -0.0976,-0.0163 -0.11393,-0.0163 h -0.1302 l -0.30923,0.0163 -0.32551,0.0326 -0.3255,0.0163 h -0.16275 l -0.14648,-0.0326 -0.14648,-0.0325 -0.11393,-0.0488 -0.11392,-0.0814 -0.0814,-0.0977 v 0 l -0.0488,-0.0651 -0.0651,-0.0326 -0.0488,-0.0163 -0.0651,0.0163 -0.0651,0.0326 -0.0651,0.0488 -0.14647,0.11393 -0.17903,0.11392 -0.0814,0.0488 -0.0976,0.0326 -0.0976,0.0163 h -0.11393 l -0.11392,-0.0325 -0.13021,-0.0651 v 0 l -0.0488,-0.0163 h -0.0488 -0.0976 -0.0976 l -0.0326,-0.0163 -0.0326,-0.0163 v 0 h -0.0488 l -0.0488,0.0163 -0.0814,0.0488 -0.0651,0.0814 -0.0651,0.0814 -0.0814,0.0814 -0.0976,0.0651 -0.0651,0.0326 -0.0814,0.0325 h -0.0976 l -0.0976,0.0163 v 0 l -0.0163,-0.0326 -0.0163,-0.0651 0.0163,-0.16275 0.0488,-0.1953 0.0488,-0.0977 0.0326,-0.0814 0.0651,-0.0814 0.0651,-0.0814 0.0651,-0.0488 0.0651,-0.0325 h 0.0976 l 0.0814,0.0325 0.0976,0.0488 0.11393,0.0976 v 0 l 0.0325,0.0326 h 0.0163 0.0163 v 0 l 0.0163,-0.0488 v -0.0651 l -0.0163,-0.11393 -0.0163,-0.0977 v -0.0814 0 l 0.0814,-0.0163 0.0651,0.0163 0.0488,0.0163 0.0488,0.0326 0.0326,0.0488 0.0326,0.0488 0.0325,0.11393 0.0488,0.1302 0.0488,0.11393 0.0326,0.0326 0.0488,0.0488 0.0488,0.0163 h 0.0814 v 0 l 0.0326,-0.0977 0.0326,-0.0976 v -0.0651 -0.0488 l -0.0163,-0.0488 -0.0163,-0.0326 0.0163,-0.0163 0.0814,-0.0326 0.48826,-0.260406 v 0 l 0.0651,-0.0488 0.0488,-0.0814 0.0163,-0.0814 0.0163,-0.0977 -0.0163,-0.21157 -0.0163,-0.19531 -0.0163,-0.0814 0.0163,-0.0651 0.0163,-0.0326 0.0326,-0.0163 h 0.0651 l 0.0977,0.0488 0.11393,0.0814 0.16275,0.11393 v 0 l 0.0325,0.0651 0.0163,0.1302 0.0163,0.16275 0.0326,0.16276 0.0326,0.14647 0.0325,0.0326 0.0326,0.0325 h 0.0488 l 0.0488,-0.0325 0.0651,-0.0651 0.0651,-0.0976 v 0 l 0.0325,-0.1302 0.0488,-0.11393 0.0651,-0.11392 0.0651,-0.0814 0.0814,-0.0651 0.0977,-0.0488 0.0814,-0.0488 0.0976,-0.0326 0.11393,-0.0163 h 0.0976 l 0.21158,0.0163 0.21158,0.0488 0.1953,0.0814 0.16275,0.0814 0.14648,0.11393 0.0976,0.11393 0.0163,0.0488 0.0163,0.0488 v 0.0488 l -0.0163,0.0488 -0.0326,0.0325 -0.0651,0.0488 -0.0651,0.0163 -0.0976,0.0326 -0.1302,0.0163 h -0.14648 v 0 l -0.30923,-0.0163 -0.27668,-0.0326 -0.22785,-0.0325 v 0 l -0.1302,0.0488 v 0 l 0.0163,0.0814 0.0163,0.0814 0.0488,0.0488 0.0488,0.0651 0.0651,0.0326 0.0651,0.0325 0.0814,0.0326 h 0.0814 0.1953 l 0.19531,-0.0326 0.1953,-0.0488 0.1953,-0.0814 v 0 l 0.14648,-0.0651 0.11393,-0.0325 0.11392,-0.0163 0.0976,0.0163 0.0814,0.0163 0.0651,0.0488 0.0651,0.0488 0.0488,0.0651 0.0651,0.13021 0.0488,0.1302 0.0326,0.14648 v 0 l 0.0163,-0.0977 0.0163,-0.0814 -0.0163,-0.16276 -0.0326,-0.1302 -0.0651,-0.1302 -0.14647,-0.276656 -0.0814,-0.16275 -0.0651,-0.19531 v 0 l 0.0488,-0.0163 h 0.0488 l 0.0976,0.0163 0.0976,0.0488 0.0814,0.0814 0.0814,0.0977 0.0814,0.11392 0.1302,0.244106 0.1302,0.21158 0.0488,0.0814 0.0651,0.0651 0.0488,0.0326 h 0.0326 0.0163 l 0.0488,-0.0488 0.0488,-0.11392 v 0 -0.14648 -0.146456 l -0.0325,-0.2604 v 0 l 0.17903,-0.11393 0.35806,-0.24413 0.16275,-0.1302 0.0976,-0.11393 0.0326,-0.0488 v -0.0326 l -0.0326,-0.0163 h -0.0651 v 0 l -0.0651,0.0163 -0.0488,0.0326 -0.0976,0.0651 -0.0651,0.0488 -0.11393,0.0326 -0.16275,0.0163 h -0.22786 v 0 l -0.0977,-0.1302 -0.16275,-0.21158 -0.1302,-0.22785 -0.0651,-0.13021 v 0 h -0.22785 l -0.13021,0.0163 -0.0814,0.0326 -0.0326,0.0488 -0.0163,0.0977 -0.0488,0.0651 -0.0814,0.0651 v 0 l -0.0488,-0.0488 -0.0488,-0.0814 -0.1302,-0.21158 -0.0651,-0.0977 -0.0325,-0.0325 -0.0326,-0.0163 h -0.0488 -0.0326 l -0.0325,0.0326 -0.0326,0.0488 v 0 l -0.0976,0.0163 -0.11393,0.0325 -0.21158,0.11393 -0.42315,0.26041 -0.22786,0.0976 -0.0976,0.0488 -0.11392,0.0163 h -0.11391 l -0.0976,-0.0163 -0.11393,-0.0325 -0.11393,-0.0814 v 0 l -0.11392,-0.0651 -0.11393,-0.0488 -0.0976,-0.0163 -0.0814,0.0163 -0.0651,0.0325 -0.0814,0.0326 -0.1302,0.0976 -0.0651,0.0326 -0.0651,0.0325 -0.0651,0.0163 -0.0977,-0.0163 -0.0814,-0.0325 -0.11393,-0.0651 -0.11392,-0.11393 -0.13021,-0.16275 v 0 l -0.34178,0.0814 -0.3255,0.0651 -0.37434,0.0651 -0.34178,0.0488 h -0.1302 l -0.1302,-0.0163 -0.0814,-0.0163 -0.0163,-0.0326 -0.0163,-0.0163 v -0.0325 l 0.0163,-0.0326 0.0651,-0.0976 v 0 l 0.0326,-0.0163 h 0.0651 l 0.16275,-0.0163 0.16276,0.0163 0.11392,0.0325 v 0 l 0.0651,0.0325 0.0651,0.0163 h 0.0488 l 0.0488,-0.0163 0.0976,-0.0325 0.0977,-0.0814 0.17903,-0.17902 0.0977,-0.0977 0.11393,-0.0977 v 0 l -0.17903,-0.0325 -0.24413,-0.0326 -0.30923,-0.0163 -0.32551,0.0163 -0.3255,0.0326 -0.32551,0.0488 -0.14647,0.0488 -0.13021,0.0488 -0.11392,0.0488 -0.0977,0.0651 v 0 l -0.0488,0.0325 -0.0163,0.0488 -0.0163,0.0325 v 0.0488 l 0.0163,0.11393 0.0488,0.11392 0.0651,0.11393 0.0814,0.1302 0.17903,0.27668 0.0976,0.14648 0.0651,0.1302 0.0488,0.13021 0.0163,0.1302 v 0.0488 l -0.0163,0.0651 -0.0326,0.0488 -0.0326,0.0488 -0.0488,0.0488 -0.0651,0.0488 -0.0814,0.0488 -0.0977,0.0325 v 0 l -0.14648,0.0325 -0.11393,0.0326 -0.16275,0.0163 h -0.11393 -0.0814 l -0.0326,0.0163 -0.0326,0.0163 -0.0977,0.11393 -0.35805,0.5208 v 0 l -0.0488,0.0488 -0.0326,0.0326 h -0.0326 -0.0325 l -0.0488,-0.0814 -0.0814,-0.0977 -0.0814,-0.1302 -0.0651,-0.0651 -0.0651,-0.0488 -0.0814,-0.0488 -0.0977,-0.0488 -0.0976,-0.0163 -0.1302,-0.0163 v 0 l 0.0163,0.0325 0.0163,0.0488 0.0814,0.11393 0.0976,0.1302 0.0814,0.14648 0.0326,0.0814 v 0.0814 0.0651 l -0.0488,0.0651 -0.0651,0.0651 -0.0976,0.0488 -0.1302,0.0488 -0.17903,0.0326 v 0 l -0.0326,0.0163 v 0.0325 0.11393 0 l 0.1302,-0.0163 h 0.11393 l 0.16275,0.0325 0.19531,0.0651 h 0.0326 0.0488 l 0.13021,-0.0325 0.1953,-0.11392 0.29295,-0.19531 v 0 l 0.16276,-0.0976 0.16275,-0.0651 0.1302,-0.0326 h 0.1302 l 0.13021,0.0163 0.1302,0.0163 0.22785,0.0814 0.22786,0.0814 0.1302,0.0326 0.1302,0.0163 h 0.1302 l 0.14648,-0.0326 0.14648,-0.0488 0.17903,-0.0977 v 0 l 0.0651,-0.0325 0.0814,-0.0163 0.0977,-0.0163 h 0.0814 l 0.21158,0.0163 0.22786,0.0488 0.50453,0.1302 0.27668,0.0488 0.29295,0.0488 v 0 l 0.0488,0.0163 0.0651,0.0325 0.0325,0.0488 0.0163,0.0163"
         style="fill:none;stroke:none;stroke-width:0.04882585"
         inkscape:connector-curvature="0" />
      <path
         id="path1268"
         d="m 95.669734,111.18954 v 0 l -0.16275,0.0325 -0.17903,0.0326 -0.40688,0.0163 -0.22786,0.0163 -0.27668,0.0326 -0.30923,0.0651 -0.35805,0.0976 v 0 l 0.0163,0.0814 v 0.0814 0 l -0.0163,0.1302 -0.0326,0.11393 -0.0488,0.11393 -0.0814,0.0814 -0.0976,0.0814 -0.11392,0.0651 -0.11393,0.0326 -0.1302,0.0163 v 0 l -0.13021,-0.0163 -0.1302,-0.0488 -0.11393,-0.0651 -0.0976,-0.0814 v 0 l 0.0326,0.0651 0.0488,0.0814 0.14648,0.1953 h 0.3255 v 0 l 0.17903,0.0163 0.0976,0.0163 0.0651,0.0488 0.63474,0.61846 v 0 0 0 l 0.73239,0.0488 0.73238,0.0163 h 0.34179 l 0.29295,-0.0163 0.22786,-0.0326 0.14647,-0.0325 v 0 l 0.0976,-0.0326 0.11393,-0.0325 0.21158,-0.0326 h 0.24413 l 0.22785,0.0326 0.22786,0.0488 0.21158,0.0651 0.21157,0.0814 0.16276,0.0976 v 0 l 0.1302,0.0163 h 0.11393 l 0.1953,-0.0163 0.0976,-0.0163 0.11393,0.0163 0.14648,0.0325 0.17902,0.0651 0.0163,0.0163 v 0 l -0.0163,-0.0651 0.0163,-0.0651 0.0163,-0.0651 0.0488,-0.0488 0.618466,-0.63474 v 0 l 0.0814,-0.0326 0.0814,-0.0163 0.17902,-0.0163 h 0.37433 v 0 l 0.0976,0.0163 0.0651,0.0488 0.0488,0.0651 0.0163,0.0814 v 0.50454 0 h 0.11393 v 0 h 0.0651 l 0.0651,0.0163 0.0977,0.0325 0.0651,0.0488 0.0651,0.0325 h 0.0488 0.0488 l 0.14648,-0.0488 0.21158,-0.1302 0.30923,-0.19531 v 0 l 0.11393,-0.0814 0.11392,-0.0651 0.27668,-0.0977 0.27668,-0.0976 0.1302,-0.0488 0.0976,-0.0651 0.0976,-0.0488 0.0651,-0.0651 0.0488,-0.0814 v -0.0976 l -0.0163,-0.0976 -0.0814,-0.11393 -0.11392,-0.14647 -0.16276,-0.16276 v 0 l -0.76493,-0.14647 -0.60219,-0.13021 -0.27668,-0.0651 -0.1953,-0.0651 v 0 l 0.0163,-0.0488 -0.0163,-0.0326 -0.0325,-0.0488 -0.0651,-0.0326 -0.17903,-0.0488 -0.24413,-0.0325 -0.27668,-0.0163 -0.32551,-0.0163 -0.634726,0.0163 0.0163,0.78122 v 0 l -0.0163,0.0814 -0.0326,0.0814 -0.0814,0.0488 -0.0814,0.0163 v 0 0 h -0.0976 l -0.0651,-0.0488 -0.0651,-0.0814 -0.0163,-0.0814 -0.0325,-0.78122 v 0 h -0.14648 l -0.50453,0.68357 v 0 l -0.0814,0.0651 -0.0814,0.0163 h -0.0814 l -0.0814,-0.0325 v 0 0 l -0.0651,-0.0651 -0.0326,-0.0814 0.0163,-0.0977 0.0326,-0.0814 0.27668,-0.37434 v 0 l -0.19531,0.0325 -0.11392,0.0488 -0.0977,0.0488 v 0 h -0.39061 l -0.73239,-0.0163 -0.69983,-0.0163 z m 4.13392,2.26226 v 0 l 0.17903,-0.0488 0.195296,-0.0651 v -0.24412 z"
         style="fill:#b7c72c;fill-opacity:1;fill-rule:evenodd;stroke:none;stroke-width:0.04882585"
         inkscape:connector-curvature="0" />
      <path
         id="path1270"
         d="m 95.669734,111.18954 v 0 l -0.16275,0.0325 -0.17903,0.0326 -0.40688,0.0163 -0.22786,0.0163 -0.27668,0.0326 -0.30923,0.0651 -0.35805,0.0976 v 0 l 0.0163,0.0814 v 0.0814 0 l -0.0163,0.1302 -0.0326,0.11393 -0.0488,0.11393 -0.0814,0.0814 -0.0976,0.0814 -0.11392,0.0651 -0.11393,0.0326 -0.1302,0.0163 v 0 l -0.13021,-0.0163 -0.1302,-0.0488 -0.11393,-0.0651 -0.0976,-0.0814 v 0 l 0.0326,0.0651 0.0488,0.0814 0.14648,0.1953 h 0.3255 v 0 l 0.17903,0.0163 0.0976,0.0163 0.0651,0.0488 0.63474,0.61846 v 0 0 0 l 0.73239,0.0488 0.73238,0.0163 h 0.34179 l 0.29295,-0.0163 0.22786,-0.0326 0.14647,-0.0325 v 0 l 0.0976,-0.0326 0.11393,-0.0325 0.21158,-0.0326 h 0.24413 l 0.22785,0.0326 0.22786,0.0488 0.21158,0.0651 0.21157,0.0814 0.16276,0.0976 v 0 l 0.1302,0.0163 h 0.11393 l 0.1953,-0.0163 0.0976,-0.0163 0.11393,0.0163 0.14648,0.0325 0.17902,0.0651 0.0163,0.0163 v 0 l -0.0163,-0.0651 0.0163,-0.0651 0.0163,-0.0651 0.0488,-0.0488 0.618466,-0.63474 v 0 l 0.0814,-0.0326 0.0814,-0.0163 0.17902,-0.0163 h 0.37433 v 0 l 0.0976,0.0163 0.0651,0.0488 0.0488,0.0651 0.0163,0.0814 v 0.50454 0 h 0.11393 v 0 h 0.0651 l 0.0651,0.0163 0.0977,0.0325 0.0651,0.0488 0.0651,0.0325 h 0.0488 0.0488 l 0.14648,-0.0488 0.21158,-0.1302 0.30923,-0.19531 v 0 l 0.11393,-0.0814 0.11392,-0.0651 0.27668,-0.0977 0.27668,-0.0976 0.1302,-0.0488 0.0976,-0.0651 0.0976,-0.0488 0.0651,-0.0651 0.0488,-0.0814 v -0.0976 l -0.0163,-0.0976 -0.0814,-0.11393 -0.11392,-0.14647 -0.16276,-0.16276 v 0 l -0.76493,-0.14647 -0.60219,-0.13021 -0.27668,-0.0651 -0.1953,-0.0651 v 0 l 0.0163,-0.0488 -0.0163,-0.0326 -0.0325,-0.0488 -0.0651,-0.0326 -0.17903,-0.0488 -0.24413,-0.0325 -0.27668,-0.0163 -0.32551,-0.0163 -0.634726,0.0163 0.0163,0.78122 v 0 l -0.0163,0.0814 -0.0326,0.0814 -0.0814,0.0488 -0.0814,0.0163 v 0 0 h -0.0976 l -0.0651,-0.0488 -0.0651,-0.0814 -0.0163,-0.0814 -0.0325,-0.78122 v 0 h -0.14648 l -0.50453,0.68357 v 0 l -0.0814,0.0651 -0.0814,0.0163 h -0.0814 l -0.0814,-0.0325 v 0 0 l -0.0651,-0.0651 -0.0326,-0.0814 0.0163,-0.0977 0.0326,-0.0814 0.27668,-0.37434 v 0 l -0.19531,0.0325 -0.11392,0.0488 -0.0977,0.0488 v 0 h -0.39061 l -0.73239,-0.0163 -0.69983,-0.0163 -0.35806,0.0163"
         style="fill:none;stroke:none;stroke-width:0.04882585"
         inkscape:connector-curvature="0" />
      <path
         id="path1272"
         d="m 99.803654,113.4518 v 0 l 0.17903,-0.0488 0.195296,-0.0651 v -0.24412 l -0.374326,0.35805"
         style="fill:none;stroke:none;stroke-width:0.04882585"
         inkscape:connector-curvature="0" />
      <path
         id="path1274"
         d="m 100.51977,102.36834 v 0 l -0.0651,-0.0488 -0.0488,-0.0814 -0.0325,-0.0814 -0.0326,-0.0814 -0.0326,-0.1302 -0.0163,-0.0651 -0.0163,-0.0163 v 0 l -0.19531,0.0163 h -0.146466 l -0.11393,-0.0163 -0.0977,-0.0163 -0.0651,-0.0326 -0.0326,-0.0325 -0.0326,-0.0488 -0.0325,-0.0326 -0.0163,-0.0651 -0.0326,-0.0325 -0.0326,-0.0163 h -0.0325 -0.0651 l -0.21158,0.0651 v 0 l -0.14648,0.0651 -0.0488,0.0325 -0.0488,0.0488 -0.0326,0.0325 -0.0163,0.0488 -0.0163,0.0976 0.0163,0.0977 0.0488,0.0977 0.0977,0.21157 0.0976,0.17903 0.0163,0.0814 v 0.0814 l -0.0163,0.0326 -0.0163,0.0325 -0.0651,0.0488 -0.1302,0.0326 -0.17903,0.0163 v 0 h -0.0326 l -0.0325,0.0325 -0.0163,0.0163 v 0.0326 0.0325 l 0.0326,0.0163 0.0326,0.0163 0.0488,0.0163 v 0 l 0.14648,-0.0163 0.1302,-0.0326 0.11393,-0.0488 0.0976,-0.0488 0.21158,-0.11393 0.1953,-0.11392 0.0976,-0.0326 0.0977,-0.0325 h 0.0976 l 0.113926,0.0163 0.11393,0.0325 0.14647,0.0814 0.13021,0.0976 0.16275,0.14648 v 0 l 0.14648,0.11392 0.0814,0.0976 0.0488,0.0651 0.0488,0.0326 0.0325,0.0163 0.0488,-0.0163 0.11392,-0.0326 0.52081,-0.24413 0.0814,-0.0163 v 0 l 0.16275,-0.0325 0.14648,-0.0163 h 0.1302 0.11393 l 0.0976,0.0163 0.0814,0.0325 0.1302,0.0651 0.11393,0.0651 0.11393,0.0651 0.0651,0.0163 h 0.0814 0.0814 l 0.0976,-0.0163 v 0 l -0.0163,-0.11393 -0.0651,-0.14648 -0.0814,-0.16275 -0.0651,-0.0814 -0.0651,-0.0651 -0.0651,-0.0651 -0.0976,-0.0488 -0.0814,-0.0488 -0.0976,-0.0326 -0.11393,-0.0163 -0.11393,0.0163 -0.11392,0.0163 -0.13021,0.0488 v 0 l -0.16275,0.0651 -0.16275,0.0488 -0.16275,0.0163 h -0.16279 -0.16276 l -0.16275,-0.0326 -0.16275,-0.0325 -0.16276,-0.0488 v 0 l -0.0163,-0.0325 -0.0163,-0.0163 -0.0651,-0.0326 -0.0651,-0.0325 z"
         style="fill:#009045;fill-opacity:1;fill-rule:evenodd;stroke:none;stroke-width:0.04882585"
         inkscape:connector-curvature="0" />
      <path
         id="path1276"
         d="m 100.51977,102.36834 v 0 l -0.0651,-0.0488 -0.0488,-0.0814 -0.0325,-0.0814 -0.0326,-0.0814 -0.0326,-0.1302 -0.0163,-0.0651 -0.0163,-0.0163 v 0 l -0.19531,0.0163 h -0.146466 l -0.11393,-0.0163 -0.0977,-0.0163 -0.0651,-0.0326 -0.0326,-0.0325 -0.0326,-0.0488 -0.0325,-0.0326 -0.0163,-0.0651 -0.0326,-0.0325 -0.0326,-0.0163 h -0.0325 -0.0651 l -0.21158,0.0651 v 0 l -0.14648,0.0651 -0.0488,0.0325 -0.0488,0.0488 -0.0326,0.0325 -0.0163,0.0488 -0.0163,0.0976 0.0163,0.0977 0.0488,0.0977 0.0977,0.21157 0.0976,0.17903 0.0163,0.0814 v 0.0814 l -0.0163,0.0326 -0.0163,0.0325 -0.0651,0.0488 -0.1302,0.0326 -0.17903,0.0163 v 0 h -0.0326 l -0.0325,0.0325 -0.0163,0.0163 v 0.0326 0.0325 l 0.0326,0.0163 0.0326,0.0163 0.0488,0.0163 v 0 l 0.14648,-0.0163 0.1302,-0.0326 0.11393,-0.0488 0.0976,-0.0488 0.21158,-0.11393 0.1953,-0.11392 0.0976,-0.0326 0.0977,-0.0325 h 0.0976 l 0.113926,0.0163 0.11393,0.0325 0.14647,0.0814 0.13021,0.0976 0.16275,0.14648 v 0 l 0.14648,0.11392 0.0814,0.0976 0.0488,0.0651 0.0488,0.0326 0.0325,0.0163 0.0488,-0.0163 0.11392,-0.0326 0.52081,-0.24413 0.0814,-0.0163 v 0 l 0.16275,-0.0325 0.14648,-0.0163 h 0.1302 0.11393 l 0.0976,0.0163 0.0814,0.0325 0.1302,0.0651 0.11393,0.0651 0.11393,0.0651 0.0651,0.0163 h 0.0814 0.0814 l 0.0976,-0.0163 v 0 l -0.0163,-0.11393 -0.0651,-0.14648 -0.0814,-0.16275 -0.0651,-0.0814 -0.0651,-0.0651 -0.0651,-0.0651 -0.0976,-0.0488 -0.0814,-0.0488 -0.0976,-0.0326 -0.11393,-0.0163 -0.11393,0.0163 -0.11392,0.0163 -0.13021,0.0488 v 0 l -0.16275,0.0651 -0.16275,0.0488 -0.16275,0.0163 h -0.16279 -0.16276 l -0.16275,-0.0326 -0.16275,-0.0325 -0.16276,-0.0488 v 0 l -0.0163,-0.0325 -0.0163,-0.0163 -0.0651,-0.0326 -0.0651,-0.0325 -0.0651,-0.0326"
         style="fill:none;stroke:none;stroke-width:0.04882585"
         inkscape:connector-curvature="0" />
      <path
         id="path1278"
         d="m 91.421884,102.57991 0.22786,-0.0325 v 0 h -0.17903 l -0.14648,0.0163 -0.1302,0.0163 -0.0814,0.0326 -0.11392,0.0651 -0.0651,0.0488 -0.0488,0.0326 -0.0326,-0.0163 h -0.0326 l -0.0977,-0.0814 -0.1953,-0.14648 v 0 l -0.0326,-0.0163 -0.0488,-0.0163 h -0.0814 l -0.0814,0.0488 -0.0976,0.0488 -0.14648,0.11393 -0.0814,0.0651 v 0 l -0.0814,-0.0488 -0.0488,-0.0488 -0.0326,-0.0488 -0.0163,-0.0488 0.0163,-0.0651 0.0326,-0.0488 0.0488,-0.0488 0.0651,-0.0488 0.17903,-0.0814 0.21158,-0.0814 0.24413,-0.0488 0.24413,-0.0163 v 0 l 0.16275,0.0163 0.17903,0.0488 0.17903,0.0814 0.14647,0.0814 0.11393,0.0814 0.0163,0.0488 0.0163,0.0325 -0.0163,0.0326 -0.0326,0.0163 -0.0651,0.0163 z"
         style="fill:#009045;fill-opacity:1;fill-rule:evenodd;stroke:none;stroke-width:0.04882585"
         inkscape:connector-curvature="0" />
      <path
         id="path1280"
         d="m 91.421884,102.57991 0.22786,-0.0325 v 0 h -0.17903 l -0.14648,0.0163 -0.1302,0.0163 -0.0814,0.0326 -0.11392,0.0651 -0.0651,0.0488 -0.0488,0.0326 -0.0326,-0.0163 h -0.0326 l -0.0977,-0.0814 -0.1953,-0.14648 v 0 l -0.0326,-0.0163 -0.0488,-0.0163 h -0.0814 l -0.0814,0.0488 -0.0976,0.0488 -0.14648,0.11393 -0.0814,0.0651 v 0 l -0.0814,-0.0488 -0.0488,-0.0488 -0.0326,-0.0488 -0.0163,-0.0488 0.0163,-0.0651 0.0326,-0.0488 0.0488,-0.0488 0.0651,-0.0488 0.17903,-0.0814 0.21158,-0.0814 0.24413,-0.0488 0.24413,-0.0163 v 0 l 0.16275,0.0163 0.17903,0.0488 0.17903,0.0814 0.14647,0.0814 0.11393,0.0814 0.0163,0.0488 0.0163,0.0325 -0.0163,0.0326 -0.0326,0.0163 -0.0651,0.0163 h -0.0976"
         style="fill:none;stroke:none;stroke-width:0.04882585"
         inkscape:connector-curvature="0" />
      <path
         id="path1282"
         d="m 91.210304,101.06631 v 0 l -0.0976,0.0326 -0.0976,0.0163 -0.14648,0.0163 -0.2604,-0.0163 -0.14648,0.0163 -0.0814,0.0163 -0.0976,0.0326 -0.0976,0.0488 -0.11393,0.0814 -0.30923,0.1953 v 0 l -0.0488,0.0326 -0.0488,0.0325 h -0.0488 l -0.0326,-0.0163 -0.0326,-0.0163 -0.0326,-0.0325 -0.0488,-0.0651 -0.0163,-0.0977 -0.0163,-0.0814 -0.0163,-0.0976 v 0 l -0.14648,-0.0488 -0.0814,-0.0651 -0.0163,-0.0326 -0.0163,-0.0325 v -0.0326 l 0.0163,-0.0326 0.0651,-0.0651 0.11393,-0.0814 0.29296,-0.19531 v 0 l 0.14647,-0.0976 0.0651,-0.0163 h 0.0326 l 0.0326,0.0163 0.0326,0.0163 0.0488,0.0488 0.0488,0.0488 0.0488,0.0163 0.0488,0.0163 h 0.0651 0.0814 l 0.11393,-0.0326 0.1302,-0.0325 v 0 l 0.1302,-0.0326 0.1953,0.0163 0.0977,0.0163 0.0977,0.0163 0.0651,0.0326 0.0163,0.0488 v 0 l 0.0651,0.0163 0.0651,0.0326 0.0326,0.0488 0.0326,0.0651 v 0.0651 l -0.0163,0.0651 -0.0488,0.0651 z"
         style="fill:#009045;fill-opacity:1;fill-rule:evenodd;stroke:none;stroke-width:0.04882585"
         inkscape:connector-curvature="0" />
      <path
         id="path1284"
         d="m 91.210304,101.06631 v 0 l -0.0976,0.0326 -0.0976,0.0163 -0.14648,0.0163 -0.2604,-0.0163 -0.14648,0.0163 -0.0814,0.0163 -0.0976,0.0326 -0.0976,0.0488 -0.11393,0.0814 -0.30923,0.1953 v 0 l -0.0488,0.0326 -0.0488,0.0325 h -0.0488 l -0.0326,-0.0163 -0.0326,-0.0163 -0.0326,-0.0325 -0.0488,-0.0651 -0.0163,-0.0977 -0.0163,-0.0814 -0.0163,-0.0976 v 0 l -0.14648,-0.0488 -0.0814,-0.0651 -0.0163,-0.0326 -0.0163,-0.0325 v -0.0326 l 0.0163,-0.0326 0.0651,-0.0651 0.11393,-0.0814 0.29296,-0.19531 v 0 l 0.14647,-0.0976 0.0651,-0.0163 h 0.0326 l 0.0326,0.0163 0.0326,0.0163 0.0488,0.0488 0.0488,0.0488 0.0488,0.0163 0.0488,0.0163 h 0.0651 0.0814 l 0.11393,-0.0326 0.1302,-0.0325 v 0 l 0.1302,-0.0326 0.1953,0.0163 0.0977,0.0163 0.0977,0.0163 0.0651,0.0326 0.0163,0.0488 v 0 l 0.0651,0.0163 0.0651,0.0326 0.0326,0.0488 0.0326,0.0651 v 0.0651 l -0.0163,0.0651 -0.0488,0.0651 -0.0651,0.0488"
         style="fill:none;stroke:none;stroke-width:0.04882585"
         inkscape:connector-curvature="0" />
      <path
         id="path1286"
         d="m 92.382124,100.3502 0.27668,0.27668 v 0 l -0.17902,-0.1302 -0.14648,-0.0977 -0.1302,-0.0814 -0.11393,-0.0488 -0.0976,-0.0326 -0.0814,-0.0163 -0.0651,-0.0163 -0.0651,0.0163 -0.0976,0.0163 -0.0977,0.0326 h -0.0651 l -0.0488,-0.0163 -0.0326,-0.0163 v 0 l -0.0488,-0.0488 -0.0326,-0.0488 -0.0163,-0.0488 v -0.0488 l 0.0163,-0.0488 0.0163,-0.0488 0.0977,-0.0977 0.1302,-0.11393 0.14648,-0.0814 0.17902,-0.0814 0.19531,-0.0651 0.1953,-0.0488 0.1953,-0.0163 h 0.17903 l 0.0814,0.0163 0.0814,0.0325 0.0651,0.0326 0.0651,0.0325 0.0488,0.0651 0.0488,0.0488 0.0163,0.0814 0.0326,0.0814 v 0.11393 l -0.0163,0.0976 v 0 l -0.0163,0.0488 -0.0163,0.0488 -0.0488,0.0325 -0.0488,0.0325 -0.11393,0.0488 -0.1302,0.0326 -0.24413,0.0488 h -0.0814 z"
         style="fill:#009045;fill-opacity:1;fill-rule:evenodd;stroke:none;stroke-width:0.04882585"
         inkscape:connector-curvature="0" />
      <path
         id="path1288"
         d="m 92.382124,100.3502 0.27668,0.27668 v 0 l -0.17902,-0.1302 -0.14648,-0.0977 -0.1302,-0.0814 -0.11393,-0.0488 -0.0976,-0.0326 -0.0814,-0.0163 -0.0651,-0.0163 -0.0651,0.0163 -0.0976,0.0163 -0.0977,0.0326 h -0.0651 l -0.0488,-0.0163 -0.0326,-0.0163 v 0 l -0.0488,-0.0488 -0.0326,-0.0488 -0.0163,-0.0488 v -0.0488 l 0.0163,-0.0488 0.0163,-0.0488 0.0977,-0.0977 0.1302,-0.11393 0.14648,-0.0814 0.17902,-0.0814 0.19531,-0.0651 0.1953,-0.0488 0.1953,-0.0163 h 0.17903 l 0.0814,0.0163 0.0814,0.0325 0.0651,0.0326 0.0651,0.0325 0.0488,0.0651 0.0488,0.0488 0.0163,0.0814 0.0326,0.0814 v 0.11393 l -0.0163,0.0976 v 0 l -0.0163,0.0488 -0.0163,0.0488 -0.0488,0.0325 -0.0488,0.0325 -0.11393,0.0488 -0.1302,0.0326 -0.24413,0.0488 h -0.0814 l -0.0325,0.0163"
         style="fill:none;stroke:none;stroke-width:0.04882585"
         inkscape:connector-curvature="0" />
      <path
         id="path1290"
         d="m 92.609984,104.04469 0.0163,0.0325 v 0 l -0.11392,0.16275 -0.0977,0.11393 -0.0976,0.0651 -0.0651,0.0488 -0.0651,0.0163 -0.0651,-0.0163 -0.0488,-0.0326 -0.0488,-0.0488 -0.0977,-0.1302 -0.0977,-0.1302 -0.0651,-0.0651 -0.0814,-0.0488 -0.0814,-0.0325 -0.0977,-0.0163 v 0 l -0.0651,0.0163 -0.0814,0.0325 -0.16275,0.0977 -0.17903,0.1302 -0.17903,0.11393 -0.0814,0.0488 -0.0814,0.0163 -0.0651,0.0163 -0.0814,-0.0325 -0.0651,-0.0488 -0.0488,-0.0814 -0.0326,-0.11392 -0.0326,-0.16276 v 0 l -0.0651,-0.0163 -0.11392,-0.0163 -0.17903,0.0163 v 0 l -0.17903,0.0651 -0.16275,0.0814 -0.14648,0.11392 -0.11393,0.13021 -0.0976,0.1302 -0.0814,0.14648 -0.0488,0.16275 -0.0488,0.16275 -0.0163,0.16275 -0.0163,0.14648 -0.0163,0.16275 0.0163,0.13021 0.0163,0.22785 0.0325,0.0651 0.0163,0.0651 v 0 h 0.0651 l 0.0488,-0.0163 0.0488,-0.0326 0.0326,-0.0325 0.0488,-0.0814 0.0326,-0.1302 0.0163,-0.1302 v -0.16276 l 0.0326,-0.29295 0.0163,-0.1302 0.0325,-0.11393 0.0163,-0.0488 0.0326,-0.0325 0.0326,-0.0326 0.0488,-0.0163 h 0.0488 0.0651 l 0.0651,0.0325 0.0814,0.0326 0.1953,0.11393 0.24413,0.1953 v 0 l 0.0977,0.0651 0.0814,0.0326 h 0.0814 l 0.0814,-0.0326 0.0651,-0.0325 0.0651,-0.0651 0.13021,-0.1302 0.0651,-0.0651 0.0814,-0.0488 0.0977,-0.0325 0.0976,-0.0163 0.11393,0.0163 0.14647,0.0651 0.14648,0.0976 0.17903,0.14648 v 0 l 0.0488,0.0163 0.0814,0.0163 0.0814,0.0163 h 0.0976 l 0.11393,-0.0163 0.1302,-0.0326 0.11393,-0.0488 0.11392,-0.0488 0.11393,-0.0814 0.0976,-0.0814 0.0814,-0.11392 0.0651,-0.13021 0.0488,-0.1302 0.0163,-0.17903 -0.0326,-0.17902 -0.0488,-0.21158 v 0 l -0.0976,-0.0163 h -0.0814 l -0.0488,0.0163 -0.0488,0.0488 -0.0488,0.0814 -0.0326,0.0325 z"
         style="fill:#009045;fill-opacity:1;fill-rule:evenodd;stroke:none;stroke-width:0.04882585"
         inkscape:connector-curvature="0" />
      <path
         id="path1292"
         d="m 92.609984,104.04469 0.0163,0.0325 v 0 l -0.11392,0.16275 -0.0977,0.11393 -0.0976,0.0651 -0.0651,0.0488 -0.0651,0.0163 -0.0651,-0.0163 -0.0488,-0.0326 -0.0488,-0.0488 -0.0977,-0.1302 -0.0977,-0.1302 -0.0651,-0.0651 -0.0814,-0.0488 -0.0814,-0.0325 -0.0977,-0.0163 v 0 l -0.0651,0.0163 -0.0814,0.0325 -0.16275,0.0977 -0.17903,0.1302 -0.17903,0.11393 -0.0814,0.0488 -0.0814,0.0163 -0.0651,0.0163 -0.0814,-0.0325 -0.0651,-0.0488 -0.0488,-0.0814 -0.0326,-0.11392 -0.0326,-0.16276 v 0 l -0.0651,-0.0163 -0.11392,-0.0163 -0.17903,0.0163 v 0 l -0.17903,0.0651 -0.16275,0.0814 -0.14648,0.11392 -0.11393,0.13021 -0.0976,0.1302 -0.0814,0.14648 -0.0488,0.16275 -0.0488,0.16275 -0.0163,0.16275 -0.0163,0.14648 -0.0163,0.16275 0.0163,0.13021 0.0163,0.22785 0.0325,0.0651 0.0163,0.0651 v 0 h 0.0651 l 0.0488,-0.0163 0.0488,-0.0326 0.0326,-0.0325 0.0488,-0.0814 0.0326,-0.1302 0.0163,-0.1302 v -0.16276 l 0.0326,-0.29295 0.0163,-0.1302 0.0325,-0.11393 0.0163,-0.0488 0.0326,-0.0325 0.0326,-0.0326 0.0488,-0.0163 h 0.0488 0.0651 l 0.0651,0.0325 0.0814,0.0326 0.1953,0.11393 0.24413,0.1953 v 0 l 0.0977,0.0651 0.0814,0.0326 h 0.0814 l 0.0814,-0.0326 0.0651,-0.0325 0.0651,-0.0651 0.13021,-0.1302 0.0651,-0.0651 0.0814,-0.0488 0.0977,-0.0325 0.0976,-0.0163 0.11393,0.0163 0.14647,0.0651 0.14648,0.0976 0.17903,0.14648 v 0 l 0.0488,0.0163 0.0814,0.0163 0.0814,0.0163 h 0.0976 l 0.11393,-0.0163 0.1302,-0.0326 0.11393,-0.0488 0.11392,-0.0488 0.11393,-0.0814 0.0976,-0.0814 0.0814,-0.11392 0.0651,-0.13021 0.0488,-0.1302 0.0163,-0.17903 -0.0326,-0.17902 -0.0488,-0.21158 v 0 l -0.0976,-0.0163 h -0.0814 l -0.0488,0.0163 -0.0488,0.0488 -0.0488,0.0814 -0.0326,0.0325 -0.0326,0.0326"
         style="fill:none;stroke:none;stroke-width:0.04882585"
         inkscape:connector-curvature="0" />
      <path
         id="path1294"
         d="m 95.799934,108.24371 v 0 l -0.3255,-0.3255 -0.30923,-0.24413 -0.29296,-0.19531 -0.27668,-0.17902 -0.55336,-0.30923 -0.29295,-0.19531 -0.32551,-0.22785 -0.0814,-0.0488 v 0 l -0.24413,-0.16275 -0.13021,-0.0814 -0.0488,-0.0325 -0.0163,-0.0488 v 0 l 0.0651,-0.0651 0.0814,-0.0488 0.11393,-0.0163 h 0.1302 l 0.1302,0.0163 0.14648,0.0488 0.30923,0.11392 0.30923,0.13021 0.30923,0.14647 0.27668,0.11393 0.1302,0.0488 0.0977,0.0163 v 0 l 0.1953,0.0326 0.16275,0.0488 0.1302,0.0651 0.0977,0.0651 0.0814,0.0651 0.0488,0.0651 0.0326,0.0651 v 0.0651 l -0.0163,0.0488 -0.0488,0.0325 -0.0488,0.0163 h -0.0814 l -0.0976,-0.0326 -0.0977,-0.0488 -0.1302,-0.0814 -0.1302,-0.11393 v 0 l -0.13021,-0.0977 -0.11392,-0.0976 -0.1302,-0.0651 -0.13021,-0.0488 -0.1302,-0.0325 -0.14648,-0.0163 -0.3255,-0.0163 v 0 l 0.16275,0.0488 0.11393,0.0488 0.0976,0.0488 0.0814,0.0651 0.14647,0.0977 0.11393,0.11392 0.0651,0.0488 0.0976,0.0488 0.0977,0.0326 0.1302,0.0326 0.16275,0.0325 0.1953,0.0163 0.22786,0.0163 0.27668,0.0163 v 0 l -0.0163,-0.0814 -0.0163,-0.0651 -0.0488,-0.0814 -0.0488,-0.0651 -0.13021,-0.14647 -0.14647,-0.14648 -0.14648,-0.1302 -0.0976,-0.13021 -0.0326,-0.0488 -0.0163,-0.0651 v -0.0488 l 0.0326,-0.0325 v 0 h 0.0976 l 0.11393,0.0163 0.0976,0.0325 0.0976,0.0488 0.19531,0.0977 0.16275,0.11392 0.29296,0.24413 0.11392,0.0814 0.0977,0.0488 v 0 l 0.0326,0.0651 0.0326,0.0488 0.0325,0.11393 v 0.0814 l -0.0163,0.0651 v 0.0651 l 0.0163,0.0326 0.0651,0.0325 h 0.11393 v 0 l 0.0651,-0.0976 0.0488,-0.0977 0.0163,-0.0814 0.0163,-0.0651 -0.0163,-0.0488 -0.0163,-0.0651 -0.0651,-0.0976 -0.0814,-0.11393 -0.0651,-0.14648 -0.0326,-0.0814 -0.0163,-0.0977 -0.0163,-0.11392 0.0163,-0.14648 v 0 -0.0326 l 0.0326,-0.0488 0.0814,-0.11392 0.0651,-0.0488 0.0651,-0.0488 0.0814,-0.0326 0.0651,-0.0163 0.0814,0.0163 0.0814,0.0326 0.0651,0.0651 0.0651,0.0977 0.0488,0.14647 0.0326,0.19531 0.0326,0.24413 v 0.30923 0 l 0.0163,0.16275 v 0.16275 0.0651 l -0.0163,0.0651 -0.0326,0.0651 -0.0488,0.0814 v 0 l 0.0488,0.0814 0.0651,0.0488 0.0651,0.0163 h 0.0976 l 0.0976,-0.0326 0.11393,-0.0651 0.24413,-0.14647 0.26041,-0.17903 0.2604,-0.21158 0.24413,-0.17903 0.21158,-0.14647 v 0 l 0.24413,-0.14648 0.22785,-0.11393 0.19531,-0.0651 0.17902,-0.0488 0.146476,-0.0163 0.1302,0.0163 0.11393,0.0163 0.0814,0.0488 0.0488,0.0488 0.0488,0.0488 0.0163,0.0651 v 0.0651 l -0.0163,0.0488 -0.0488,0.0651 -0.0651,0.0326 -0.0651,0.0163 v 0 l -0.1302,0.0326 -0.14648,0.0488 -0.374326,0.14647 -0.42316,0.19531 -0.45571,0.24413 -0.21157,0.14647 -0.19531,0.13021 -0.1953,0.14647 -0.16276,0.13021 -0.1302,0.14647 -0.11392,0.13021 -0.0651,0.1302 -0.0163,0.0651 v 0.0651 0 l 0.0163,0.53708 0.0326,0.84632 0.0326,0.79749 v 0.29295 l -0.0163,0.14648 v 0 l -0.17903,0.0325 h -0.14649 l -0.11393,-0.0325 -0.0651,-0.0163 -0.0326,-0.0326 -0.0488,-0.0488 -0.0325,-0.0326 -0.0326,-0.1302 -0.0163,-0.14648 0.0163,-0.17903 v 0 l -0.0163,0.19531 -0.0326,0.16275 -0.0651,0.0976 -0.0163,0.0326 -0.0326,0.0163 -0.0325,-0.0163 -0.0326,-0.0326 -0.0325,-0.0651 -0.0326,-0.0814 -0.0163,-0.11393 -0.0163,-0.14648 -0.0163,-0.40688 v 0 -0.16275 l 0.0325,-0.22785 0.0326,-0.47199 v -0.21157 l -0.0163,-0.0814 -0.0163,-0.0814 -0.0163,-0.0325 -0.0326,-0.0326 -0.0488,0.0163 -0.0488,0.0326 v 0 l -0.14648,0.0976 -0.0326,0.0488 -0.0326,0.0977 v 0 l -0.0814,-0.1302 -0.0651,-0.13021 -0.0977,-0.29295 -0.0488,-0.11393 -0.0488,-0.0814 -0.0326,-0.0326 h -0.0326 -0.0326 l -0.0488,0.0163 v 0 l 0.0651,0.74866 0.0325,0.55336 0.0163,0.39061 v 0 0.22785 l -0.0163,0.19531 -0.0325,0.22785 -0.0326,0.17903 -0.0326,0.0651 -0.0326,0.0326 -0.0325,0.0163 -0.0326,-0.0163 -0.0326,-0.0651 -0.0488,-0.0977 v 0 -0.43943 l 0.0326,-0.87887 0.0163,-0.48826 v -0.42315 l -0.0163,-0.30923 -0.0163,-0.0976 z"
         style="fill:#009045;fill-opacity:1;fill-rule:evenodd;stroke:none;stroke-width:0.04882585"
         inkscape:connector-curvature="0" />
      <path
         id="path1296"
         d="m 95.799934,108.24371 v 0 l -0.3255,-0.3255 -0.30923,-0.24413 -0.29296,-0.19531 -0.27668,-0.17902 -0.55336,-0.30923 -0.29295,-0.19531 -0.32551,-0.22785 -0.0814,-0.0488 v 0 l -0.24413,-0.16275 -0.13021,-0.0814 -0.0488,-0.0325 -0.0163,-0.0488 v 0 l 0.0651,-0.0651 0.0814,-0.0488 0.11393,-0.0163 h 0.1302 l 0.1302,0.0163 0.14648,0.0488 0.30923,0.11392 0.30923,0.13021 0.30923,0.14647 0.27668,0.11393 0.1302,0.0488 0.0977,0.0163 v 0 l 0.1953,0.0326 0.16275,0.0488 0.1302,0.0651 0.0977,0.0651 0.0814,0.0651 0.0488,0.0651 0.0326,0.0651 v 0.0651 l -0.0163,0.0488 -0.0488,0.0325 -0.0488,0.0163 h -0.0814 l -0.0976,-0.0326 -0.0977,-0.0488 -0.1302,-0.0814 -0.1302,-0.11393 v 0 l -0.13021,-0.0977 -0.11392,-0.0976 -0.1302,-0.0651 -0.13021,-0.0488 -0.1302,-0.0325 -0.14648,-0.0163 -0.3255,-0.0163 v 0 l 0.16275,0.0488 0.11393,0.0488 0.0976,0.0488 0.0814,0.0651 0.14647,0.0977 0.11393,0.11392 0.0651,0.0488 0.0976,0.0488 0.0977,0.0326 0.1302,0.0326 0.16275,0.0325 0.1953,0.0163 0.22786,0.0163 0.27668,0.0163 v 0 l -0.0163,-0.0814 -0.0163,-0.0651 -0.0488,-0.0814 -0.0488,-0.0651 -0.13021,-0.14647 -0.14647,-0.14648 -0.14648,-0.1302 -0.0976,-0.13021 -0.0326,-0.0488 -0.0163,-0.0651 v -0.0488 l 0.0326,-0.0325 v 0 h 0.0976 l 0.11393,0.0163 0.0976,0.0325 0.0976,0.0488 0.19531,0.0977 0.16275,0.11392 0.29296,0.24413 0.11392,0.0814 0.0977,0.0488 v 0 l 0.0326,0.0651 0.0326,0.0488 0.0325,0.11393 v 0.0814 l -0.0163,0.0651 v 0.0651 l 0.0163,0.0326 0.0651,0.0325 h 0.11393 v 0 l 0.0651,-0.0976 0.0488,-0.0977 0.0163,-0.0814 0.0163,-0.0651 -0.0163,-0.0488 -0.0163,-0.0651 -0.0651,-0.0976 -0.0814,-0.11393 -0.0651,-0.14648 -0.0326,-0.0814 -0.0163,-0.0977 -0.0163,-0.11392 0.0163,-0.14648 v 0 -0.0326 l 0.0326,-0.0488 0.0814,-0.11392 0.0651,-0.0488 0.0651,-0.0488 0.0814,-0.0326 0.0651,-0.0163 0.0814,0.0163 0.0814,0.0326 0.0651,0.0651 0.0651,0.0977 0.0488,0.14647 0.0326,0.19531 0.0326,0.24413 v 0.30923 0 l 0.0163,0.16275 v 0.16275 0.0651 l -0.0163,0.0651 -0.0326,0.0651 -0.0488,0.0814 v 0 l 0.0488,0.0814 0.0651,0.0488 0.0651,0.0163 h 0.0976 l 0.0976,-0.0326 0.11393,-0.0651 0.24413,-0.14647 0.26041,-0.17903 0.2604,-0.21158 0.24413,-0.17903 0.21158,-0.14647 v 0 l 0.24413,-0.14648 0.22785,-0.11393 0.19531,-0.0651 0.17902,-0.0488 0.146476,-0.0163 0.1302,0.0163 0.11393,0.0163 0.0814,0.0488 0.0488,0.0488 0.0488,0.0488 0.0163,0.0651 v 0.0651 l -0.0163,0.0488 -0.0488,0.0651 -0.0651,0.0326 -0.0651,0.0163 v 0 l -0.1302,0.0326 -0.14648,0.0488 -0.374326,0.14647 -0.42316,0.19531 -0.45571,0.24413 -0.21157,0.14647 -0.19531,0.13021 -0.1953,0.14647 -0.16276,0.13021 -0.1302,0.14647 -0.11392,0.13021 -0.0651,0.1302 -0.0163,0.0651 v 0.0651 0 l 0.0163,0.53708 0.0326,0.84632 0.0326,0.79749 v 0.29295 l -0.0163,0.14648 v 0 l -0.17903,0.0325 h -0.14649 l -0.11393,-0.0325 -0.0651,-0.0163 -0.0326,-0.0326 -0.0488,-0.0488 -0.0325,-0.0326 -0.0326,-0.1302 -0.0163,-0.14648 0.0163,-0.17903 v 0 l -0.0163,0.19531 -0.0326,0.16275 -0.0651,0.0976 -0.0163,0.0326 -0.0326,0.0163 -0.0325,-0.0163 -0.0326,-0.0326 -0.0325,-0.0651 -0.0326,-0.0814 -0.0163,-0.11393 -0.0163,-0.14648 -0.0163,-0.40688 v 0 -0.16275 l 0.0325,-0.22785 0.0326,-0.47199 v -0.21157 l -0.0163,-0.0814 -0.0163,-0.0814 -0.0163,-0.0325 -0.0326,-0.0326 -0.0488,0.0163 -0.0488,0.0326 v 0 l -0.14648,0.0976 -0.0326,0.0488 -0.0326,0.0977 v 0 l -0.0814,-0.1302 -0.0651,-0.13021 -0.0977,-0.29295 -0.0488,-0.11393 -0.0488,-0.0814 -0.0326,-0.0326 h -0.0326 -0.0326 l -0.0488,0.0163 v 0 l 0.0651,0.74866 0.0325,0.55336 0.0163,0.39061 v 0 0.22785 l -0.0163,0.19531 -0.0325,0.22785 -0.0326,0.17903 -0.0326,0.0651 -0.0326,0.0326 -0.0325,0.0163 -0.0326,-0.0163 -0.0326,-0.0651 -0.0488,-0.0977 v 0 -0.43943 l 0.0326,-0.87887 0.0163,-0.48826 v -0.42315 l -0.0163,-0.30923 -0.0163,-0.0976 -0.0326,-0.0488"
         style="fill:none;stroke:none;stroke-width:0.04882585"
         inkscape:connector-curvature="0" />
      <path
         id="path1298"
         d="m 91.714844,111.02679 v 0 l 0.0976,0.0163 0.11393,0.0163 0.22785,-0.0163 0.21158,-0.0163 0.1953,-0.0163 v 0 l -0.16275,0.0977 -0.1302,0.0651 -0.11393,0.0488 -0.0977,0.0326 -0.14648,0.0325 -0.0814,0.0163 v 0 l -0.0651,0.0651 -0.0488,0.0488 -0.0326,0.0488 -0.0326,0.0488 -0.0163,0.0814 -0.0163,0.0488 v 0 l -0.0163,-0.0163 -0.0651,-0.0488 -0.35805,-0.37434 v 0 l -0.17904,-0.0976 -0.14647,-0.0814 -0.14648,-0.0977 -0.0976,-0.0814 -0.0163,-0.0325 v -0.0488 l 0.0325,-0.0163 0.0651,-0.0326 0.0977,-0.0163 h 0.1302 v 0 l 0.0976,0.0163 0.0814,0.0326 0.0814,0.0325 0.0651,0.0651 0.11393,0.13021 0.0976,0.1302 0.0651,0.0976 0.0326,0.0326 0.0326,0.0163 0.0326,-0.0163 0.0325,-0.0326 0.0326,-0.0814 z"
         style="fill:#009045;fill-opacity:1;fill-rule:evenodd;stroke:none;stroke-width:0.04882585"
         inkscape:connector-curvature="0" />
      <path
         id="path1300"
         d="m 91.714844,111.02679 v 0 l 0.0976,0.0163 0.11393,0.0163 0.22785,-0.0163 0.21158,-0.0163 0.1953,-0.0163 v 0 l -0.16275,0.0977 -0.1302,0.0651 -0.11393,0.0488 -0.0977,0.0326 -0.14648,0.0325 -0.0814,0.0163 v 0 l -0.0651,0.0651 -0.0488,0.0488 -0.0326,0.0488 -0.0326,0.0488 -0.0163,0.0814 -0.0163,0.0488 v 0 l -0.0163,-0.0163 -0.0651,-0.0488 -0.35805,-0.37434 v 0 l -0.17904,-0.0976 -0.14647,-0.0814 -0.14648,-0.0977 -0.0976,-0.0814 -0.0163,-0.0325 v -0.0488 l 0.0325,-0.0163 0.0651,-0.0326 0.0977,-0.0163 h 0.1302 v 0 l 0.0976,0.0163 0.0814,0.0326 0.0814,0.0325 0.0651,0.0651 0.11393,0.13021 0.0976,0.1302 0.0651,0.0976 0.0326,0.0326 0.0326,0.0163 0.0326,-0.0163 0.0325,-0.0326 0.0326,-0.0814 0.0326,-0.0976"
         style="fill:none;stroke:none;stroke-width:0.04882585"
         inkscape:connector-curvature="0" />
      <path
         id="path1302"
         d="m 90.982454,111.72662 v 0 -0.0651 l -0.0163,-0.0488 -0.0326,-0.0325 -0.0326,-0.0488 -0.0814,-0.0651 -0.11393,-0.0651 -0.11393,-0.0325 -0.1302,-0.0326 -0.1953,-0.0163 v 0 0.21158 l 0.0163,0.24413 0.0488,0.22786 0.0325,0.0976 0.0326,0.0977 0.0488,0.0651 0.0651,0.0651 0.0651,0.0325 0.0976,0.0163 0.0976,-0.0163 0.11393,-0.0651 0.1302,-0.0814 0.14648,-0.13021 v 0 l 0.0651,-0.0814 0.0651,-0.0651 0.0326,-0.0488 0.0163,-0.0488 -0.0163,-0.0326 -0.0163,-0.0325 -0.0163,-0.0163 -0.0488,-0.0163 -0.0814,-0.0163 h -0.0814 -0.0814 z"
         style="fill:#009045;fill-opacity:1;fill-rule:evenodd;stroke:none;stroke-width:0.04882585"
         inkscape:connector-curvature="0" />
      <path
         id="path1304"
         d="m 90.982454,111.72662 v 0 -0.0651 l -0.0163,-0.0488 -0.0326,-0.0325 -0.0326,-0.0488 -0.0814,-0.0651 -0.11393,-0.0651 -0.11393,-0.0325 -0.1302,-0.0326 -0.1953,-0.0163 v 0 0.21158 l 0.0163,0.24413 0.0488,0.22786 0.0325,0.0976 0.0326,0.0977 0.0488,0.0651 0.0651,0.0651 0.0651,0.0325 0.0976,0.0163 0.0976,-0.0163 0.11393,-0.0651 0.1302,-0.0814 0.14648,-0.13021 v 0 l 0.0651,-0.0814 0.0651,-0.0651 0.0326,-0.0488 0.0163,-0.0488 -0.0163,-0.0326 -0.0163,-0.0325 -0.0163,-0.0163 -0.0488,-0.0163 -0.0814,-0.0163 h -0.0814 -0.0814 -0.0163"
         style="fill:none;stroke:none;stroke-width:0.04882585"
         inkscape:connector-curvature="0" />
      <path
         id="path1306"
         d="m 104.75134,110.78266 v 0 l -0.34178,0.1302 -0.1302,0.0651 -0.13021,0.0325 h -0.11392 l -0.0651,-0.0163 -0.0488,-0.0163 -0.0488,-0.0326 -0.0488,-0.0488 -0.0976,-0.11393 v 0 l -0.0326,-0.0488 -0.0326,-0.0325 -0.0326,-0.0163 -0.0488,-0.0163 -0.0651,0.0163 -0.0814,0.0325 -0.0651,0.0651 -0.0651,0.0814 -0.0488,0.0651 -0.0326,0.0814 v 0 l 0.0976,0.11393 0.0651,0.0814 0.0814,0.0488 0.0651,0.0325 0.0651,0.0163 0.0651,-0.0163 0.11392,-0.0488 0.0814,-0.0488 0.0488,-0.0163 0.0326,-0.0163 0.0325,0.0163 0.0326,0.0325 0.0326,0.0651 0.0326,0.0814 v 0 l 0.37434,-0.30923 z"
         style="fill:#5e8d37;fill-opacity:1;fill-rule:evenodd;stroke:none;stroke-width:0.04882585"
         inkscape:connector-curvature="0" />
      <path
         id="path1308"
         d="m 104.75134,110.78266 v 0 l -0.34178,0.1302 -0.1302,0.0651 -0.13021,0.0325 h -0.11392 l -0.0651,-0.0163 -0.0488,-0.0163 -0.0488,-0.0326 -0.0488,-0.0488 -0.0976,-0.11393 v 0 l -0.0326,-0.0488 -0.0326,-0.0325 -0.0326,-0.0163 -0.0488,-0.0163 -0.0651,0.0163 -0.0814,0.0325 -0.0651,0.0651 -0.0651,0.0814 -0.0488,0.0651 -0.0326,0.0814 v 0 l 0.0976,0.11393 0.0651,0.0814 0.0814,0.0488 0.0651,0.0325 0.0651,0.0163 0.0651,-0.0163 0.11392,-0.0488 0.0814,-0.0488 0.0488,-0.0163 0.0326,-0.0163 0.0325,0.0163 0.0326,0.0325 0.0326,0.0651 0.0326,0.0814 v 0 l 0.37434,-0.30923 0.30923,-0.26041"
         style="fill:none;stroke:none;stroke-width:0.04882585"
         inkscape:connector-curvature="0" />
      <path
         id="path1310"
         d="m 101.39863,110.78266 v 0 l 0.1302,-0.0163 0.0976,-0.0326 0.0976,-0.0163 0.0651,-0.0325 0.0976,-0.0651 0.0488,-0.0651 0.0326,-0.0326 0.0163,-0.0163 0.0163,0.0163 0.0488,0.0326 0.0814,0.11392 v 0 l 0.0488,0.0651 0.0163,0.0814 v 0 l 0.0488,0.0163 h 0.0488 l 0.0814,-0.0163 0.0651,-0.0488 0.0488,-0.0651 0.0976,-0.1302 0.0488,-0.0325 0.0651,-0.0326 v 0 l 0.24413,0.47199 0.11393,0.24413 0.0488,0.0977 0.0163,0.0814 v 0 l -0.0976,-0.0163 -0.0651,-0.0163 -0.0488,-0.0163 -0.0488,-0.0325 -0.0488,-0.0651 -0.0488,-0.0488 -0.0326,-0.0325 -0.0326,-0.0163 -0.0325,0.0163 -0.0976,0.0488 -0.14648,0.14647 v 0 l -0.0488,0.0325 -0.0488,0.0163 -0.0488,0.0163 -0.0488,-0.0163 -0.0814,-0.0325 -0.0814,-0.0651 -0.0651,-0.0814 -0.0814,-0.0488 -0.0488,-0.0163 -0.0488,-0.0163 h -0.0326 l -0.0488,0.0163 v 0 l -0.0976,-0.0488 -0.16275,-0.1302 -0.16275,-0.1302 -0.0488,-0.0488 -0.0163,-0.0326 v 0 h 0.0651 z"
         style="fill:#5e8d37;fill-opacity:1;fill-rule:evenodd;stroke:none;stroke-width:0.04882585"
         inkscape:connector-curvature="0" />
      <path
         id="path1312"
         d="m 101.39863,110.78266 v 0 l 0.1302,-0.0163 0.0976,-0.0326 0.0976,-0.0163 0.0651,-0.0325 0.0976,-0.0651 0.0488,-0.0651 0.0326,-0.0326 0.0163,-0.0163 0.0163,0.0163 0.0488,0.0326 0.0814,0.11392 v 0 l 0.0488,0.0651 0.0163,0.0814 v 0 l 0.0488,0.0163 h 0.0488 l 0.0814,-0.0163 0.0651,-0.0488 0.0488,-0.0651 0.0976,-0.1302 0.0488,-0.0325 0.0651,-0.0326 v 0 l 0.24413,0.47199 0.11393,0.24413 0.0488,0.0977 0.0163,0.0814 v 0 l -0.0976,-0.0163 -0.0651,-0.0163 -0.0488,-0.0163 -0.0488,-0.0325 -0.0488,-0.0651 -0.0488,-0.0488 -0.0326,-0.0325 -0.0326,-0.0163 -0.0325,0.0163 -0.0976,0.0488 -0.14648,0.14647 v 0 l -0.0488,0.0325 -0.0488,0.0163 -0.0488,0.0163 -0.0488,-0.0163 -0.0814,-0.0325 -0.0814,-0.0651 -0.0651,-0.0814 -0.0814,-0.0488 -0.0488,-0.0163 -0.0488,-0.0163 h -0.0326 l -0.0488,0.0163 v 0 l -0.0976,-0.0488 -0.16275,-0.1302 -0.16275,-0.1302 -0.0488,-0.0488 -0.0163,-0.0326 v 0 h 0.0651 0.0814"
         style="fill:none;stroke:none;stroke-width:0.04882585"
         inkscape:connector-curvature="0" />
      <path
         id="path1314"
         d="m 99.429324,108.58549 v 0 l 0.0976,0.0163 0.0977,0.0163 0.0814,0.0488 0.0651,0.0651 0.0651,0.0814 0.0488,0.0814 0.0325,0.0976 v 0.0976 0 0.0977 l -0.0325,0.0976 -0.0488,0.0814 -0.0651,0.0651 -0.0651,0.0651 -0.0814,0.0488 -0.0977,0.0326 h -0.0976 v 0 h -0.11393 l -0.0814,-0.0326 -0.0976,-0.0488 -0.0651,-0.0651 -0.0651,-0.0651 -0.0488,-0.0814 -0.0163,-0.0976 -0.0163,-0.0977 v 0 l 0.0163,-0.0976 0.0163,-0.0976 0.0488,-0.0814 0.0651,-0.0814 0.0651,-0.0651 0.0976,-0.0488 0.0814,-0.0163 z"
         style="fill:#bb3c12;fill-opacity:1;fill-rule:evenodd;stroke:none;stroke-width:0.04882585"
         inkscape:connector-curvature="0" />
      <path
         id="path1316"
         d="m 99.429324,108.58549 v 0 l 0.0976,0.0163 0.0977,0.0163 0.0814,0.0488 0.0651,0.0651 0.0651,0.0814 0.0488,0.0814 0.0325,0.0976 v 0.0976 0 0.0977 l -0.0325,0.0976 -0.0488,0.0814 -0.0651,0.0651 -0.0651,0.0651 -0.0814,0.0488 -0.0977,0.0326 h -0.0976 v 0 h -0.11393 l -0.0814,-0.0326 -0.0976,-0.0488 -0.0651,-0.0651 -0.0651,-0.0651 -0.0488,-0.0814 -0.0163,-0.0976 -0.0163,-0.0977 v 0 l 0.0163,-0.0976 0.0163,-0.0976 0.0488,-0.0814 0.0651,-0.0814 0.0651,-0.0651 0.0976,-0.0488 0.0814,-0.0163 0.11393,-0.0163"
         style="fill:none;stroke:none;stroke-width:0.04882585"
         inkscape:connector-curvature="0" />
      <path
         id="path1318"
         d="m 94.156134,108.50412 v 0 l 0.0976,0.0163 0.0977,0.0326 0.0814,0.0488 0.0814,0.0488 0.0488,0.0814 0.0488,0.0814 0.0326,0.0977 0.0163,0.0976 v 0 l -0.0163,0.0976 -0.0326,0.0977 -0.0488,0.0814 -0.0488,0.0814 -0.0814,0.0488 -0.0814,0.0488 -0.0977,0.0325 -0.0976,0.0163 v 0 l -0.0976,-0.0163 -0.0976,-0.0325 -0.0814,-0.0488 -0.0814,-0.0488 -0.0651,-0.0814 -0.0326,-0.0814 -0.0325,-0.0977 -0.0163,-0.0976 v 0 l 0.0163,-0.0976 0.0325,-0.0977 0.0326,-0.0814 0.0651,-0.0814 0.0814,-0.0488 0.0814,-0.0488 0.0976,-0.0326 z"
         style="fill:#feee00;fill-opacity:1;fill-rule:evenodd;stroke:none;stroke-width:0.04882585"
         inkscape:connector-curvature="0" />
      <path
         id="path1320"
         d="m 94.156134,108.50412 v 0 l 0.0976,0.0163 0.0977,0.0326 0.0814,0.0488 0.0814,0.0488 0.0488,0.0814 0.0488,0.0814 0.0326,0.0977 0.0163,0.0976 v 0 l -0.0163,0.0976 -0.0326,0.0977 -0.0488,0.0814 -0.0488,0.0814 -0.0814,0.0488 -0.0814,0.0488 -0.0977,0.0325 -0.0976,0.0163 v 0 l -0.0976,-0.0163 -0.0976,-0.0325 -0.0814,-0.0488 -0.0814,-0.0488 -0.0651,-0.0814 -0.0326,-0.0814 -0.0325,-0.0977 -0.0163,-0.0976 v 0 l 0.0163,-0.0976 0.0325,-0.0977 0.0326,-0.0814 0.0651,-0.0814 0.0814,-0.0488 0.0814,-0.0488 0.0976,-0.0326 0.0976,-0.0163"
         style="fill:none;stroke:none;stroke-width:0.04882585"
         inkscape:connector-curvature="0" />
      <path
         id="path1322"
         d="m 96.776454,112.62176 v 0 l 0.16275,0.0163 0.14648,0.0326 0.1302,0.0325 0.11393,0.0651 0.0814,0.0814 0.0814,0.0814 0.0326,0.0977 0.0163,0.0976 v 0 l -0.0163,0.0977 -0.0326,0.0976 -0.0814,0.0814 -0.0814,0.0814 -0.11393,0.0488 -0.1302,0.0488 -0.14648,0.0325 -0.16275,0.0163 v 0 l -0.14648,-0.0163 -0.14647,-0.0325 -0.13021,-0.0488 -0.11392,-0.0488 -0.0977,-0.0814 -0.0651,-0.0814 -0.0488,-0.0976 -0.0163,-0.0977 v 0 l 0.0163,-0.0976 0.0488,-0.0977 0.0651,-0.0814 0.0976,-0.0814 0.11393,-0.0651 0.1302,-0.0325 0.14648,-0.0326 z"
         style="fill:#feee00;fill-opacity:1;fill-rule:evenodd;stroke:none;stroke-width:0.04882585"
         inkscape:connector-curvature="0" />
      <path
         id="path1324"
         d="m 96.776454,112.62176 v 0 l 0.16275,0.0163 0.14648,0.0326 0.1302,0.0325 0.11393,0.0651 0.0814,0.0814 0.0814,0.0814 0.0326,0.0977 0.0163,0.0976 v 0 l -0.0163,0.0977 -0.0326,0.0976 -0.0814,0.0814 -0.0814,0.0814 -0.11393,0.0488 -0.1302,0.0488 -0.14648,0.0325 -0.16275,0.0163 v 0 l -0.14648,-0.0163 -0.14647,-0.0325 -0.13021,-0.0488 -0.11392,-0.0488 -0.0977,-0.0814 -0.0651,-0.0814 -0.0488,-0.0976 -0.0163,-0.0977 v 0 l 0.0163,-0.0976 0.0488,-0.0977 0.0651,-0.0814 0.0976,-0.0814 0.11393,-0.0651 0.1302,-0.0325 0.14648,-0.0326 0.14648,-0.0163"
         style="fill:none;stroke:none;stroke-width:0.04882585"
         inkscape:connector-curvature="0" />
      <path
         id="path1326"
         d="m 93.130794,111.01051 v 0 l 0.1302,0.0163 0.11393,0.0325 0.11392,0.0651 0.0977,0.0651 0.0814,0.0976 0.0488,0.11393 0.0326,0.11393 0.0163,0.1302 v 0 l -0.0163,0.1302 -0.0326,0.11393 -0.0488,0.11392 -0.0814,0.0814 -0.0977,0.0814 -0.11392,0.0651 -0.11393,0.0326 -0.1302,0.0163 v 0 l -0.13021,-0.0163 -0.11392,-0.0326 -0.11393,-0.0651 -0.0814,-0.0814 -0.0814,-0.0814 -0.0651,-0.11392 -0.0326,-0.11393 -0.0163,-0.1302 v 0 l 0.0163,-0.1302 0.0326,-0.11393 0.0651,-0.11393 0.0814,-0.0976 0.0814,-0.0651 0.11393,-0.0651 0.11392,-0.0325 z"
         style="fill:#567597;fill-opacity:1;fill-rule:evenodd;stroke:none;stroke-width:0.04882585"
         inkscape:connector-curvature="0" />
      <path
         id="path1328"
         d="m 93.130794,111.01051 v 0 l 0.1302,0.0163 0.11393,0.0325 0.11392,0.0651 0.0977,0.0651 0.0814,0.0976 0.0488,0.11393 0.0326,0.11393 0.0163,0.1302 v 0 l -0.0163,0.1302 -0.0326,0.11393 -0.0488,0.11392 -0.0814,0.0814 -0.0977,0.0814 -0.11392,0.0651 -0.11393,0.0326 -0.1302,0.0163 v 0 l -0.13021,-0.0163 -0.11392,-0.0326 -0.11393,-0.0651 -0.0814,-0.0814 -0.0814,-0.0814 -0.0651,-0.11392 -0.0326,-0.11393 -0.0163,-0.1302 v 0 l 0.0163,-0.1302 0.0326,-0.11393 0.0651,-0.11393 0.0814,-0.0976 0.0814,-0.0651 0.11393,-0.0651 0.11392,-0.0325 0.13021,-0.0163"
         style="fill:none;stroke:none;stroke-width:0.04882585"
         inkscape:connector-curvature="0" />
      <path
         id="path1330"
         d="m 100.48722,110.97796 v 0 h 0.11392 l 0.0976,0.0325 0.0976,0.0488 0.0814,0.0814 0.0651,0.0814 0.0488,0.0814 0.0325,0.11393 0.0163,0.11392 v 0 l -0.0163,0.11393 -0.0325,0.0977 -0.0488,0.0976 -0.0651,0.0814 -0.0814,0.0651 -0.0976,0.0488 -0.0976,0.0326 -0.11392,0.0163 v 0 l -0.11393,-0.0163 -0.11393,-0.0326 -0.0814,-0.0488 -0.0977,-0.0651 -0.0651,-0.0814 -0.0488,-0.0976 -0.0326,-0.0977 -0.0163,-0.11393 v 0 l 0.0163,-0.11392 0.0326,-0.11393 0.0488,-0.0814 0.0651,-0.0814 0.0977,-0.0814 0.0814,-0.0488 0.11393,-0.0325 z"
         style="fill:#567597;fill-opacity:1;fill-rule:evenodd;stroke:none;stroke-width:0.04882585"
         inkscape:connector-curvature="0" />
      <path
         id="path1332"
         d="m 100.48722,110.97796 v 0 h 0.11392 l 0.0976,0.0325 0.0976,0.0488 0.0814,0.0814 0.0651,0.0814 0.0488,0.0814 0.0325,0.11393 0.0163,0.11392 v 0 l -0.0163,0.11393 -0.0325,0.0977 -0.0488,0.0976 -0.0651,0.0814 -0.0814,0.0651 -0.0976,0.0488 -0.0976,0.0326 -0.11392,0.0163 v 0 l -0.11393,-0.0163 -0.11393,-0.0326 -0.0814,-0.0488 -0.0977,-0.0651 -0.0651,-0.0814 -0.0488,-0.0976 -0.0326,-0.0977 -0.0163,-0.11393 v 0 l 0.0163,-0.11392 0.0326,-0.11393 0.0488,-0.0814 0.0651,-0.0814 0.0977,-0.0814 0.0814,-0.0488 0.11393,-0.0325 h 0.11393"
         style="fill:none;stroke:none;stroke-width:0.04882585"
         inkscape:connector-curvature="0" />
      <path
         id="path1334"
         d="m 99.380504,110.75011 v 0 l 0.0163,0.0976 v 0.0814 l 0.0976,0.87886 v 0 l -0.0163,0.0814 -0.0326,0.0814 -0.0814,0.0488 -0.0814,0.0163 v 0 h -0.0976 l -0.0651,-0.0488 -0.0651,-0.0814 -0.0163,-0.0814 -0.0326,-0.87886 v 0 -0.0488 l -0.0814,-0.0163 v 0 l -0.0163,0.0651 -0.0325,0.0651 -0.52081,0.71611 v 0 l -0.0814,0.0651 -0.0814,0.0163 h -0.0814 l -0.0814,-0.0326 v 0 l -0.0651,-0.0651 -0.0326,-0.0814 0.0163,-0.0976 0.0326,-0.0814 0.52081,-0.71611 v 0 l 0.0326,-0.0325 0.0488,-0.0163 -0.0163,-0.0163 0.0814,-0.66729 h -0.74865 v 0 l -0.0814,-0.0163 -0.0814,-0.0488 -0.0488,-0.0814 -0.0163,-0.0814 v 0 0 l 0.0163,-0.0976 0.0651,-0.0651 0.0651,-0.0488 0.0976,-0.0163 h 0.87887 v 0 l 0.0651,0.0163 0.0488,0.0163 0.0488,0.0488 0.0326,0.0488 0.29295,0.1302 v 0 l 0.0651,-0.0163 h 0.0651 l 0.0488,0.0163 0.0488,0.0488 0.667286,0.58591 v 0 l 0.0488,0.0651 0.0163,0.0976 v 0.0814 l -0.0488,0.0814 v 0 l -0.0814,0.0488 -0.0814,0.0163 h -0.0814 l -0.0814,-0.0488 -0.45571,-0.40688 z"
         style="fill:#567597;fill-opacity:1;fill-rule:evenodd;stroke:none;stroke-width:0.04882585"
         inkscape:connector-curvature="0" />
      <path
         id="path1336"
         d="m 100.97547,114.31439 v 0 l 0.0163,0.0488 0.22786,0.86259 v 0 0.0814 l -0.0163,0.0976 -0.0651,0.0651 -0.0814,0.0326 v 0 h -0.0977 l -0.0814,-0.0163 -0.0651,-0.0651 -0.0325,-0.0814 -0.22786,-0.86259 v 0 h -0.0651 l -0.35805,0.74867 v 0 l -0.0488,0.0651 -0.0814,0.0488 -0.0814,0.0163 -0.0814,-0.0163 v 0 l -0.0814,-0.0651 -0.0488,-0.0651 v -0.0977 l 0.0163,-0.0814 0.37433,-0.79749 v 0 l 0.0488,-0.11393 0.0163,-0.11393 0.0163,-0.16275 v -0.74866 l -0.43943,0.42316 v 0 l -0.0651,0.0488 -0.0977,0.0163 -0.0814,-0.0163 -0.0814,-0.0651 v 0 l -0.0488,-0.0651 -0.0163,-0.0977 0.0163,-0.0814 0.0651,-0.0651 0.61846,-0.63474 v 0 l 0.0814,-0.0326 0.0814,-0.0163 0.17903,-0.0163 h 0.37433 v 0 l 0.0976,0.0163 0.0651,0.0488 0.0488,0.0651 0.0163,0.0814 v 1.56243 0 z"
         style="fill:#bb3c12;fill-opacity:1;fill-rule:evenodd;stroke:none;stroke-width:0.04882585"
         inkscape:connector-curvature="0" />
      <path
         id="path1338"
         d="m 100.97547,114.31439 v 0 l 0.0163,0.0488 0.22786,0.86259 v 0 0.0814 l -0.0163,0.0976 -0.0651,0.0651 -0.0814,0.0326 v 0 h -0.0977 l -0.0814,-0.0163 -0.0651,-0.0651 -0.0325,-0.0814 -0.22786,-0.86259 v 0 h -0.0651 l -0.35805,0.74867 v 0 l -0.0488,0.0651 -0.0814,0.0488 -0.0814,0.0163 -0.0814,-0.0163 v 0 l -0.0814,-0.0651 -0.0488,-0.0651 v -0.0977 l 0.0163,-0.0814 0.37433,-0.79749 v 0 l 0.0488,-0.11393 0.0163,-0.11393 0.0163,-0.16275 v -0.74866 l -0.43943,0.42316 v 0 l -0.0651,0.0488 -0.0977,0.0163 -0.0814,-0.0163 -0.0814,-0.0651 v 0 l -0.0488,-0.0651 -0.0163,-0.0977 0.0163,-0.0814 0.0651,-0.0651 0.61846,-0.63474 v 0 l 0.0814,-0.0326 0.0814,-0.0163 0.17903,-0.0163 h 0.37433 v 0 l 0.0976,0.0163 0.0651,0.0488 0.0488,0.0651 0.0163,0.0814 v 1.56243 0 l -0.0163,0.0488"
         style="fill:none;stroke:none;stroke-width:0.04882585"
         inkscape:connector-curvature="0" />
      <path
         id="path1340"
         d="m 95.100104,113.3867 0.99279,0.53709 h 1.23692 l 0.99279,-0.53709 v 0 l 0.0814,-0.0325 0.0814,0.0163 0.0651,0.0325 0.0488,0.0651 v 0.0163 0 l 0.0163,0.0814 v 0.0814 l -0.0326,0.0651 -0.0651,0.0488 -1.15554,0.61846 v 0.83004 l 0.52081,1.3834 v 0 0.0814 l -0.0163,0.0814 -0.0326,0.0651 -0.0651,0.0488 h -0.0163 v 0 l -0.0814,0.0163 -0.0651,-0.0163 -0.0651,-0.0488 -0.0488,-0.0651 v 0 l -0.17904,-0.53711 -0.0976,-0.27668 -0.0814,-0.21158 -0.14648,-0.3255 v 0 l -0.0163,-0.0325 -0.0488,-0.0325 h -0.0814 l -0.0814,-0.0163 -0.0651,0.0163 -0.0814,0.0163 -0.0488,0.0163 -0.0326,0.0325 v 0 l -0.48826,1.36712 v 0 l -0.0488,0.0814 -0.0651,0.0325 -0.0651,0.0163 h -0.0814 l -0.0163,-0.0163 v 0 l -0.0651,-0.0325 -0.0326,-0.0651 -0.0325,-0.0814 0.0163,-0.0814 0.42315,-1.35085 v 0 -0.87887 l -1.17182,-0.63473 v 0 l -0.0651,-0.0488 -0.0326,-0.0651 v -0.0814 l 0.0163,-0.0814 v -0.0163 0 l 0.0488,-0.0488 0.0651,-0.0488 h 0.0814 z"
         style="fill:#567597;fill-opacity:1;fill-rule:evenodd;stroke:none;stroke-width:0.04882585"
         inkscape:connector-curvature="0" />
      <path
         id="path1342"
         d="m 95.100104,113.3867 0.99279,0.53709 h 1.23692 l 0.99279,-0.53709 v 0 l 0.0814,-0.0325 0.0814,0.0163 0.0651,0.0325 0.0488,0.0651 v 0.0163 0 l 0.0163,0.0814 v 0.0814 l -0.0326,0.0651 -0.0651,0.0488 -1.15554,0.61846 v 0.83004 l 0.52081,1.3834 v 0 0.0814 l -0.0163,0.0814 -0.0326,0.0651 -0.0651,0.0488 h -0.0163 v 0 l -0.0814,0.0163 -0.0651,-0.0163 -0.0651,-0.0488 -0.0488,-0.0651 v 0 l -0.17904,-0.53711 -0.0976,-0.27668 -0.0814,-0.21158 -0.14648,-0.3255 v 0 l -0.0163,-0.0325 -0.0488,-0.0325 h -0.0814 l -0.0814,-0.0163 -0.0651,0.0163 -0.0814,0.0163 -0.0488,0.0163 -0.0326,0.0325 v 0 l -0.48826,1.36712 v 0 l -0.0488,0.0814 -0.0651,0.0325 -0.0651,0.0163 h -0.0814 l -0.0163,-0.0163 v 0 l -0.0651,-0.0325 -0.0326,-0.0651 -0.0325,-0.0814 0.0163,-0.0814 0.42315,-1.35085 v 0 -0.87887 l -1.17182,-0.63473 v 0 l -0.0651,-0.0488 -0.0326,-0.0651 v -0.0814 l 0.0163,-0.0814 v -0.0163 0 l 0.0488,-0.0488 0.0651,-0.0488 h 0.0814 l 0.0814,0.0163"
         style="fill:none;stroke:none;stroke-width:0.04882585"
         inkscape:connector-curvature="0" />
      <path
         id="path1344"
         d="m 92.626254,114.24929 v 0 l -0.0163,0.0325 -0.22785,0.86259 v 0 0.0976 l 0.0326,0.0814 0.0488,0.0651 0.0814,0.0326 v 0 h 0.0976 l 0.0814,-0.0163 0.0651,-0.0651 0.0488,-0.0814 0.21158,-0.86259 v 0 h 0.0651 l 0.35806,0.74867 v 0 l 0.0488,0.0651 0.0814,0.0488 0.0814,0.0163 0.0976,-0.0163 v 0 l 0.0651,-0.0651 0.0488,-0.0651 0.0163,-0.0976 -0.0326,-0.0814 -0.37433,-0.79749 v 0 l -0.0488,-0.11393 -0.0163,-0.0977 v -0.17903 -0.74866 l 0.42316,0.42316 v 0 l 0.0814,0.0488 0.0814,0.0163 0.0814,-0.0163 0.0814,-0.0488 v 0 0 l 0.0488,-0.0814 0.0163,-0.0977 -0.0163,-0.0814 -0.0488,-0.0651 -0.63473,-0.61846 v 0 l -0.0651,-0.0488 -0.0976,-0.0163 -0.17903,-0.0163 h -0.37433 v 0 l -0.0814,0.0163 -0.0814,0.0488 -0.0488,0.0651 -0.0163,0.0814 v 1.56243 0 z"
         style="fill:#feee00;fill-opacity:1;fill-rule:evenodd;stroke:none;stroke-width:0.04882585"
         inkscape:connector-curvature="0" />
      <path
         id="path1346"
         d="m 92.626254,114.24929 v 0 l -0.0163,0.0325 -0.22785,0.86259 v 0 0.0976 l 0.0326,0.0814 0.0488,0.0651 0.0814,0.0326 v 0 h 0.0976 l 0.0814,-0.0163 0.0651,-0.0651 0.0488,-0.0814 0.21158,-0.86259 v 0 h 0.0651 l 0.35806,0.74867 v 0 l 0.0488,0.0651 0.0814,0.0488 0.0814,0.0163 0.0976,-0.0163 v 0 l 0.0651,-0.0651 0.0488,-0.0651 0.0163,-0.0976 -0.0326,-0.0814 -0.37433,-0.79749 v 0 l -0.0488,-0.11393 -0.0163,-0.0977 v -0.17903 -0.74866 l 0.42316,0.42316 v 0 l 0.0814,0.0488 0.0814,0.0163 0.0814,-0.0163 0.0814,-0.0488 v 0 0 l 0.0488,-0.0814 0.0163,-0.0977 -0.0163,-0.0814 -0.0488,-0.0651 -0.63473,-0.61846 v 0 l -0.0651,-0.0488 -0.0976,-0.0163 -0.17903,-0.0163 h -0.37433 v 0 l -0.0814,0.0163 -0.0814,0.0488 -0.0488,0.0651 -0.0163,0.0814 v 1.56243 0 l 0.0163,0.0651"
         style="fill:none;stroke:none;stroke-width:0.04882585"
         inkscape:connector-curvature="0" />
      <path
         id="path1348"
         d="m 94.123584,110.76638 v 0 l -0.0325,0.17903 v 0.0163 -0.0326 l -0.0977,0.89514 v 0 l 0.0163,0.0814 0.0488,0.0814 0.0814,0.0488 0.0814,0.0163 v 0 l 0.0976,-0.0163 0.0651,-0.0325 0.0488,-0.0814 0.0326,-0.0814 0.0326,-0.89514 v 0 l -0.0163,-0.0325 0.0976,-0.0163 v 0 l 0.0163,0.0651 0.0326,0.0651 0.52081,0.71611 v 0 l 0.0651,0.0651 0.0814,0.0163 h 0.0976 l 0.0814,-0.0325 v 0 l 0.0651,-0.0651 0.0163,-0.0977 v -0.0814 l -0.0326,-0.0814 -0.53708,-0.71611 v 0 l -0.0325,-0.0326 -0.0326,-0.0163 0.0163,-0.0163 -0.0976,-0.66729 h 0.76494 v 0 l 0.0814,-0.0163 0.0651,-0.0651 0.0488,-0.0651 0.0326,-0.0977 v 0 l -0.0326,-0.0814 -0.0488,-0.0814 -0.0651,-0.0325 -0.0977,-0.0326 -0.87886,0.0163 v 0 l -0.0651,0.0163 -0.0488,0.0163 -0.0488,0.0488 -0.0326,0.0325 -0.30923,0.14648 v 0 l -0.0488,-0.0163 h -0.0651 l -0.0488,0.0163 -0.0651,0.0326 -0.65101,0.60219 v 0 l -0.0488,0.0651 -0.0325,0.0814 0.0163,0.0976 0.0488,0.0814 v 0 l 0.0651,0.0488 0.0976,0.0163 h 0.0814 l 0.0814,-0.0488 0.43943,-0.40689 z"
         style="fill:#bb3c12;fill-opacity:1;fill-rule:evenodd;stroke:none;stroke-width:0.04882585"
         inkscape:connector-curvature="0" />
      <path
         id="path1350"
         d="m 103.54697,101.6685 v 0 l -0.0976,0.1302 -0.0651,0.1302 -0.0326,0.14648 -0.0163,0.1302 0.0163,0.13021 0.0488,0.11392 0.0814,0.11393 0.11393,0.11393 v 0 l 0.16275,0.1302 0.1302,0.0814 0.0651,0.0163 0.0651,0.0163 0.21158,0.0163 v 0 l 0.0326,-0.0488 v -0.0325 -0.0488 l -0.0163,-0.0488 -0.0651,-0.11392 -0.0814,-0.11393 -0.1953,-0.24413 -0.0814,-0.14648 -0.0326,-0.0651 -0.0163,-0.0651 v 0 l -0.0163,-0.0651 v -0.0814 l 0.0163,-0.17903 v -0.0651 l -0.0163,-0.0163 -0.0163,-0.0163 h -0.0163 -0.0326 l -0.0976,0.0814 v 0 h -0.0326 z"
         style="fill:#698731;fill-opacity:1;fill-rule:evenodd;stroke:none;stroke-width:0.04882585"
         inkscape:connector-curvature="0" />
      <path
         id="path1352"
         d="m 103.54697,101.6685 v 0 l -0.0976,0.1302 -0.0651,0.1302 -0.0326,0.14648 -0.0163,0.1302 0.0163,0.13021 0.0488,0.11392 0.0814,0.11393 0.11393,0.11393 v 0 l 0.16275,0.1302 0.1302,0.0814 0.0651,0.0163 0.0651,0.0163 0.21158,0.0163 v 0 l 0.0326,-0.0488 v -0.0325 -0.0488 l -0.0163,-0.0488 -0.0651,-0.11392 -0.0814,-0.11393 -0.1953,-0.24413 -0.0814,-0.14648 -0.0326,-0.0651 -0.0163,-0.0651 v 0 l -0.0163,-0.0651 v -0.0814 l 0.0163,-0.17903 v -0.0651 l -0.0163,-0.0163 -0.0163,-0.0163 h -0.0163 -0.0326 l -0.0976,0.0814 v 0 h -0.0326 -0.0163"
         style="fill:none;stroke:none;stroke-width:0.04882585"
         inkscape:connector-curvature="0" />
      <path
         id="path1354"
         d="m 105.06057,104.41902 v 0 l -0.42316,0.29296 -0.53708,0.37433 v 0 l -0.22786,0.14648 -0.30923,0.21157 -0.14647,0.0977 -0.11393,0.11392 -0.0814,0.11393 -0.0163,0.0488 -0.0163,0.0488 v 0 0.19531 l -0.0163,0.1302 -0.0163,0.0814 -0.0325,0.0488 -0.0651,0.0814 -0.0326,0.0488 -0.0488,0.0814 v 0 l -0.0651,0.0814 -0.11393,0.16276 -0.11392,0.16275 -0.0326,0.0651 v 0.0488 l 0.0326,-0.0163 v 0 l 0.17902,-0.14647 0.11393,-0.0814 0.14648,-0.0814 0.0488,-0.0488 0.0651,-0.0814 0.22785,-0.37433 v 0 l 0.0488,-0.11393 0.0326,-0.14648 0.0325,-0.27668 v 0 l 0.11393,-0.0326 0.11393,-0.0488 0.11392,-0.0488 0.11393,-0.0814 0.22785,-0.19531 0.21158,-0.22785 0.37434,-0.42316 0.1302,-0.14648 z"
         style="fill:#009045;fill-opacity:1;fill-rule:evenodd;stroke:none;stroke-width:0.04882585"
         inkscape:connector-curvature="0" />
      <path
         id="path1356"
         d="m 105.06057,104.41902 v 0 l -0.42316,0.29296 -0.53708,0.37433 v 0 l -0.22786,0.14648 -0.30923,0.21157 -0.14647,0.0977 -0.11393,0.11392 -0.0814,0.11393 -0.0163,0.0488 -0.0163,0.0488 v 0 0.19531 l -0.0163,0.1302 -0.0163,0.0814 -0.0325,0.0488 -0.0651,0.0814 -0.0326,0.0488 -0.0488,0.0814 v 0 l -0.0651,0.0814 -0.11393,0.16276 -0.11392,0.16275 -0.0326,0.0651 v 0.0488 l 0.0326,-0.0163 v 0 l 0.17902,-0.14647 0.11393,-0.0814 0.14648,-0.0814 0.0488,-0.0488 0.0651,-0.0814 0.22785,-0.37433 v 0 l 0.0488,-0.11393 0.0326,-0.14648 0.0325,-0.27668 v 0 l 0.11393,-0.0326 0.11393,-0.0488 0.11392,-0.0488 0.11393,-0.0814 0.22785,-0.19531 0.21158,-0.22785 0.37434,-0.42316 0.1302,-0.14648 0.0814,-0.0651"
         style="fill:none;stroke:none;stroke-width:0.04882585"
         inkscape:connector-curvature="0" />
      <path
         id="path1358"
         d="m 104.14915,103.65408 v 0 l 0.0488,0.11393 0.0326,0.1302 0.0163,0.1302 v 0.13021 0.1302 l -0.0163,0.1302 -0.0651,0.26041 v 0 l -0.0976,0.0651 -0.17902,0.17903 -0.19531,0.17902 -0.0976,0.0651 -0.0651,0.0488 v 0 l -0.1953,0.0976 -0.11393,0.0651 -0.1302,0.0651 -0.2604,0.0814 v 0 l -0.19531,0.0651 -0.0977,0.0488 -0.0488,0.0163 -0.0163,0.0163 v 0 l -0.0325,0.0326 -0.0163,0.0163 -0.0488,0.0977 -0.0326,0.14648 -0.0325,0.16275 -0.0163,0.17903 -0.0488,0.19531 -0.0488,0.17902 -0.0814,0.16276 v 0 l -0.0814,0.11392 -0.0651,0.0977 -0.0814,0.0651 -0.0814,0.0651 -0.0814,0.0325 h -0.11392 -0.11393 l -0.14648,-0.0163 v 0 l -0.13018,-0.0326 -0.11392,-0.0488 -0.1302,-0.0488 -0.11393,-0.0651 -0.21158,-0.16275 -0.17903,-0.16275 -0.1302,-0.14648 -0.0326,-0.0651 -0.0163,-0.0325 0.0163,-0.0326 h 0.0326 l 0.0651,0.0163 0.0814,0.0326 v 0 l 0.16275,0.0814 0.16276,0.0488 0.16275,0.0488 0.16275,0.0163 0.17903,0.0163 0.16275,0.0163 0.34178,-0.0163 v 0 l 0.0814,-0.0326 0.0651,-0.0488 0.0488,-0.0651 0.0488,-0.0814 0.0163,-0.11392 0.0163,-0.11393 v -0.24413 l -0.0326,-0.47198 0.0163,-0.19531 0.0163,-0.0488 0.0163,-0.0488 v 0 l 0.11393,-0.0814 0.11393,-0.0814 0.2604,-0.14648 0.27668,-0.14648 0.29296,-0.1302 0.27668,-0.1302 0.24413,-0.11393 0.0976,-0.0814 0.0976,-0.0651 0.0651,-0.0651 0.0488,-0.0814 v 0 l 0.0977,-0.21158 0.0814,-0.17903 v 0 l -0.0163,-0.0163 z"
         style="fill:#009045;fill-opacity:1;fill-rule:evenodd;stroke:none;stroke-width:0.04882585"
         inkscape:connector-curvature="0" />
      <path
         id="path1360"
         d="m 104.14915,103.65408 v 0 l 0.0488,0.11393 0.0326,0.1302 0.0163,0.1302 v 0.13021 0.1302 l -0.0163,0.1302 -0.0651,0.26041 v 0 l -0.0976,0.0651 -0.17902,0.17903 -0.19531,0.17902 -0.0976,0.0651 -0.0651,0.0488 v 0 l -0.1953,0.0976 -0.11393,0.0651 -0.1302,0.0651 -0.2604,0.0814 v 0 l -0.19531,0.0651 -0.0977,0.0488 -0.0488,0.0163 -0.0163,0.0163 v 0 l -0.0325,0.0326 -0.0163,0.0163 -0.0488,0.0977 -0.0326,0.14648 -0.0325,0.16275 -0.0163,0.17903 -0.0488,0.19531 -0.0488,0.17902 -0.0814,0.16276 v 0 l -0.0814,0.11392 -0.0651,0.0977 -0.0814,0.0651 -0.0814,0.0651 -0.0814,0.0325 h -0.11392 -0.11393 l -0.14648,-0.0163 v 0 l -0.13018,-0.0326 -0.11392,-0.0488 -0.1302,-0.0488 -0.11393,-0.0651 -0.21158,-0.16275 -0.17903,-0.16275 -0.1302,-0.14648 -0.0326,-0.0651 -0.0163,-0.0325 0.0163,-0.0326 h 0.0326 l 0.0651,0.0163 0.0814,0.0326 v 0 l 0.16275,0.0814 0.16276,0.0488 0.16275,0.0488 0.16275,0.0163 0.17903,0.0163 0.16275,0.0163 0.34178,-0.0163 v 0 l 0.0814,-0.0326 0.0651,-0.0488 0.0488,-0.0651 0.0488,-0.0814 0.0163,-0.11392 0.0163,-0.11393 v -0.24413 l -0.0326,-0.47198 0.0163,-0.19531 0.0163,-0.0488 0.0163,-0.0488 v 0 l 0.11393,-0.0814 0.11393,-0.0814 0.2604,-0.14648 0.27668,-0.14648 0.29296,-0.1302 0.27668,-0.1302 0.24413,-0.11393 0.0976,-0.0814 0.0976,-0.0651 0.0651,-0.0651 0.0488,-0.0814 v 0 l 0.0977,-0.21158 0.0814,-0.17903 v 0 l -0.0163,-0.0163 -0.0163,-0.0163"
         style="fill:none;stroke:none;stroke-width:0.04882585"
         inkscape:connector-curvature="0" />
      <path
         id="path1362"
         d="m 92.430954,107.03934 0.21158,-0.1302 v 0 l -0.0651,0.0326 v 0 l -0.13021,0.0488 h -0.11392 l -0.0976,-0.0163 -0.0651,-0.0325 -0.0814,-0.0326 -0.0976,-0.0488 -0.0976,-0.0163 h -0.14648 v 0 l -0.0488,0.0163 -0.0488,0.0163 -0.0814,0.0651 h -0.0488 l -0.0651,-0.0163 -0.0488,-0.0488 -0.0651,-0.11393 v 0 l -0.0326,-0.0325 -0.0325,-0.0326 -0.0488,-0.0163 h -0.0325 l -0.0814,0.0326 -0.0976,0.0325 -0.11393,0.0326 -0.0651,0.0163 h -0.0651 l -0.0651,-0.0163 -0.0814,-0.0326 -0.0814,-0.0325 -0.0814,-0.0651 v 0 l -0.0326,-0.0488 -0.0326,-0.0326 v -0.0325 -0.0325 l 0.0326,-0.0488 v -0.0326 -0.0163 l -0.0326,-0.0163 -0.11393,-0.0163 -0.24413,-0.0163 h -0.3906 v 0 h -0.0814 l -0.0488,0.0163 -0.0325,0.0326 -0.0163,0.0326 0.0163,0.0325 0.0163,0.0326 0.0976,0.0814 0.11393,0.0977 0.14647,0.0651 0.13021,0.0488 0.0976,0.0163 v 0 h 0.0488 l 0.0488,0.0326 0.0651,0.11392 0.0488,0.0488 0.0651,0.0488 0.11393,0.0325 0.17902,0.0163 v 0 l 0.21158,0.0163 0.17903,0.0163 0.14648,0.0325 0.1302,0.0488 0.1302,0.0325 0.17903,0.0326 0.21158,0.0163 0.27668,0.0163 v 0 h 0.24413 0.11393 0.11392 l 0.0977,-0.0325 0.0651,-0.0651 0.0326,-0.0488 0.0163,-0.0488 0.0163,-0.0488 0.0163,-0.0814 v 0 l -0.0651,-0.0163 -0.0814,-0.0325 -0.0651,-0.0163 -0.0488,0.0163 -0.0651,0.0325 z"
         style="fill:#009045;fill-opacity:1;fill-rule:evenodd;stroke:none;stroke-width:0.04882585"
         inkscape:connector-curvature="0" />
      <path
         id="path1364"
         d="m 92.430954,107.03934 0.21158,-0.1302 v 0 l -0.0651,0.0326 v 0 l -0.13021,0.0488 h -0.11392 l -0.0976,-0.0163 -0.0651,-0.0325 -0.0814,-0.0326 -0.0976,-0.0488 -0.0976,-0.0163 h -0.14648 v 0 l -0.0488,0.0163 -0.0488,0.0163 -0.0814,0.0651 h -0.0488 l -0.0651,-0.0163 -0.0488,-0.0488 -0.0651,-0.11393 v 0 l -0.0326,-0.0325 -0.0325,-0.0326 -0.0488,-0.0163 h -0.0325 l -0.0814,0.0326 -0.0976,0.0325 -0.11393,0.0326 -0.0651,0.0163 h -0.0651 l -0.0651,-0.0163 -0.0814,-0.0326 -0.0814,-0.0325 -0.0814,-0.0651 v 0 l -0.0326,-0.0488 -0.0326,-0.0326 v -0.0325 -0.0325 l 0.0326,-0.0488 v -0.0326 -0.0163 l -0.0326,-0.0163 -0.11393,-0.0163 -0.24413,-0.0163 h -0.3906 v 0 h -0.0814 l -0.0488,0.0163 -0.0325,0.0326 -0.0163,0.0326 0.0163,0.0325 0.0163,0.0326 0.0976,0.0814 0.11393,0.0977 0.14647,0.0651 0.13021,0.0488 0.0976,0.0163 v 0 h 0.0488 l 0.0488,0.0326 0.0651,0.11392 0.0488,0.0488 0.0651,0.0488 0.11393,0.0325 0.17902,0.0163 v 0 l 0.21158,0.0163 0.17903,0.0163 0.14648,0.0325 0.1302,0.0488 0.1302,0.0325 0.17903,0.0326 0.21158,0.0163 0.27668,0.0163 v 0 h 0.24413 0.11393 0.11392 l 0.0977,-0.0325 0.0651,-0.0651 0.0326,-0.0488 0.0163,-0.0488 0.0163,-0.0488 0.0163,-0.0814 v 0 l -0.0651,-0.0163 -0.0814,-0.0325 -0.0651,-0.0163 -0.0488,0.0163 -0.0651,0.0325 -0.0814,0.0651"
         style="fill:none;stroke:none;stroke-width:0.04882585"
         inkscape:connector-curvature="0" />
      <path
         id="path1366"
         d="m 90.689494,105.67222 v 0 l -0.0163,0.11393 v 0.1302 l 0.0163,0.1302 0.0326,0.0976 0.0651,0.0977 0.0976,0.0814 0.0651,0.0325 0.0651,0.0163 0.0651,0.0163 h 0.0814 v 0 h 0.0651 l 0.0651,-0.0163 0.0651,-0.0326 0.0651,-0.0488 0.0976,-0.0976 0.0326,-0.0651 0.0163,-0.0488 v 0 l 0.0326,0.0163 0.0163,0.0325 0.0814,0.11393 0.0976,0.16275 0.11393,0.16276 0.0651,0.0651 0.0814,0.0651 0.0814,0.0488 0.0814,0.0163 0.0976,0.0163 0.0977,-0.0326 0.0976,-0.0488 0.11392,-0.0977 v 0 l 0.17903,-0.16275 0.17903,-0.17903 0.0814,-0.11393 0.0651,-0.0976 0.0488,-0.11392 0.0163,-0.11393 v 0 h -0.0814 l -0.0814,0.0163 -0.14648,0.0814 -0.30923,0.16275 -0.0651,0.0326 -0.0651,0.0325 h -0.0814 -0.0651 l -0.0651,-0.0325 -0.0651,-0.0488 -0.0651,-0.0651 -0.0651,-0.0976 v 0 l -0.1953,-0.3255 v 0 l -0.0326,-0.0163 -0.0163,0.0163 -0.0651,0.0325 -0.0651,0.0651 -0.0651,0.0814 -0.0651,0.0814 -0.0651,0.0814 -0.0651,0.0488 -0.0488,0.0163 h -0.0325 v 0 l -0.16275,-0.16275 -0.1302,-0.13021 -0.0977,-0.0977 v 0 l -0.0488,-0.0488 v 0 l -0.1302,0.0814 z"
         style="fill:#698731;fill-opacity:1;fill-rule:evenodd;stroke:none;stroke-width:0.04882585"
         inkscape:connector-curvature="0" />
      <path
         id="path1368"
         d="m 90.689494,105.67222 v 0 l -0.0163,0.11393 v 0.1302 l 0.0163,0.1302 0.0326,0.0976 0.0651,0.0977 0.0976,0.0814 0.0651,0.0325 0.0651,0.0163 0.0651,0.0163 h 0.0814 v 0 h 0.0651 l 0.0651,-0.0163 0.0651,-0.0326 0.0651,-0.0488 0.0976,-0.0976 0.0326,-0.0651 0.0163,-0.0488 v 0 l 0.0326,0.0163 0.0163,0.0325 0.0814,0.11393 0.0976,0.16275 0.11393,0.16276 0.0651,0.0651 0.0814,0.0651 0.0814,0.0488 0.0814,0.0163 0.0976,0.0163 0.0977,-0.0326 0.0976,-0.0488 0.11392,-0.0977 v 0 l 0.17903,-0.16275 0.17903,-0.17903 0.0814,-0.11393 0.0651,-0.0976 0.0488,-0.11392 0.0163,-0.11393 v 0 h -0.0814 l -0.0814,0.0163 -0.14648,0.0814 -0.30923,0.16275 -0.0651,0.0326 -0.0651,0.0325 h -0.0814 -0.0651 l -0.0651,-0.0325 -0.0651,-0.0488 -0.0651,-0.0651 -0.0651,-0.0976 v 0 l -0.1953,-0.3255 v 0 l -0.0326,-0.0163 -0.0163,0.0163 -0.0651,0.0325 -0.0651,0.0651 -0.0651,0.0814 -0.0651,0.0814 -0.0651,0.0814 -0.0651,0.0488 -0.0488,0.0163 h -0.0325 v 0 l -0.16275,-0.16275 -0.1302,-0.13021 -0.0977,-0.0977 v 0 l -0.0488,-0.0488 v 0 l -0.1302,0.0814 -0.0651,0.0488"
         style="fill:none;stroke:none;stroke-width:0.04882585"
         inkscape:connector-curvature="0" />
      <path
         id="path1370"
         d="m 102.3426,100.25255 v 0 l -0.16276,0.0326 -0.1302,0.0488 -0.0976,0.0488 -0.0976,0.0651 -0.0814,0.0651 -0.0651,0.0488 -0.11392,0.1302 -0.0976,0.11393 -0.0976,0.0977 -0.0651,0.0488 -0.0651,0.0163 -0.0814,0.0163 -0.0976,0.0163 v 0 h -0.21159 l -0.14648,0.0326 -0.11392,0.0325 -0.0651,0.0326 -0.0814,0.0814 -0.0488,0.0325 -0.0488,0.0163 v 0 l 0.0326,0.0163 h 0.0651 0.16275 0.0976 l 0.11393,0.0163 0.1302,0.0326 0.1302,0.0488 v 0 l 0.0976,0.0326 0.11393,0.0163 h 0.0976 0.11393 l 0.11392,-0.0163 0.0977,-0.0326 0.0976,-0.0488 0.0814,-0.0488 v 0 l 0.32551,-0.21158 0.21158,-0.14648 0.0651,-0.0488 0.0163,-0.0326 v 0 l 0.0488,-0.0163 0.0163,-0.0163 0.0163,-0.0326 0.0651,-0.0163 0.17902,-0.0325 v 0 l 0.0977,-0.0163 0.0976,-0.0163 0.0814,-0.0488 0.0651,-0.0651 v -0.0163 l 0.0163,-0.0325 -0.0163,-0.0326 -0.0326,-0.0488 -0.0326,-0.0326 -0.0651,-0.0325 -0.16275,-0.0651 v 0 l -0.14646,-0.0326 -0.14647,-0.0163 h -0.14648 z"
         style="fill:#698731;fill-opacity:1;fill-rule:evenodd;stroke:none;stroke-width:0.04882585"
         inkscape:connector-curvature="0" />
      <path
         id="path1372"
         d="m 102.3426,100.25255 v 0 l -0.16276,0.0326 -0.1302,0.0488 -0.0976,0.0488 -0.0976,0.0651 -0.0814,0.0651 -0.0651,0.0488 -0.11392,0.1302 -0.0976,0.11393 -0.0976,0.0977 -0.0651,0.0488 -0.0651,0.0163 -0.0814,0.0163 -0.0976,0.0163 v 0 h -0.21159 l -0.14648,0.0326 -0.11392,0.0325 -0.0651,0.0326 -0.0814,0.0814 -0.0488,0.0325 -0.0488,0.0163 v 0 l 0.0326,0.0163 h 0.0651 0.16275 0.0976 l 0.11393,0.0163 0.1302,0.0326 0.1302,0.0488 v 0 l 0.0976,0.0326 0.11393,0.0163 h 0.0976 0.11393 l 0.11392,-0.0163 0.0977,-0.0326 0.0976,-0.0488 0.0814,-0.0488 v 0 l 0.32551,-0.21158 0.21158,-0.14648 0.0651,-0.0488 0.0163,-0.0326 v 0 l 0.0488,-0.0163 0.0163,-0.0163 0.0163,-0.0326 0.0651,-0.0163 0.17902,-0.0325 v 0 l 0.0977,-0.0163 0.0976,-0.0163 0.0814,-0.0488 0.0651,-0.0651 v -0.0163 l 0.0163,-0.0325 -0.0163,-0.0326 -0.0326,-0.0488 -0.0326,-0.0326 -0.0651,-0.0325 -0.16275,-0.0651 v 0 l -0.14646,-0.0326 -0.14647,-0.0163 h -0.14648 l -0.1302,0.0163"
         style="fill:none;stroke:none;stroke-width:0.04882585"
         inkscape:connector-curvature="0" />
      <path
         id="path1374"
         d="m 96.450944,109.23651 v 0 l -0.0325,0.1302 -0.0326,0.21158 -0.0326,0.55336 -0.0163,0.29295 v 0.26041 l 0.0163,0.1953 0.0163,0.0814 0.0163,0.0488 v 0 h 0.0163 0.0163 v -0.0976 l 0.0163,-0.34178 0.0163,-0.40688 0.0163,-0.14648 0.0163,-0.0814 v 0 l -0.0163,-0.35806 z"
         style="fill:#009045;fill-opacity:1;fill-rule:evenodd;stroke:none;stroke-width:0.04882585"
         inkscape:connector-curvature="0" />
      <path
         id="path1376"
         d="m 96.450944,109.23651 v 0 l -0.0325,0.1302 -0.0326,0.21158 -0.0326,0.55336 -0.0163,0.29295 v 0.26041 l 0.0163,0.1953 0.0163,0.0814 0.0163,0.0488 v 0 h 0.0163 0.0163 v -0.0976 l 0.0163,-0.34178 0.0163,-0.40688 0.0163,-0.14648 0.0163,-0.0814 v 0 l -0.0163,-0.35806 -0.0163,-0.34178"
         style="fill:none;stroke:none;stroke-width:0.04882585"
         inkscape:connector-curvature="0" />
    </g>
  </g>
</svg>
